<svg xmlns="http://www.w3.org/2000/svg" xmlns:xlink="http://www.w3.org/1999/xlink" width="500" zoomAndPan="magnify" viewBox="0 0 375 374.999991" height="500" preserveAspectRatio="xMidYMid meet" version="1.2"><defs><clipPath id="4591f5a73c"><path d="M 98.390625 150 L 276.890625 150 L 276.890625 237.488281 L 98.390625 237.488281 Z M 98.390625 150 "/></clipPath><clipPath id="f56319db98"><path d="M 149 118.238281 L 226 118.238281 L 226 152 L 149 152 Z M 149 118.238281 "/></clipPath></defs><g id="c2a260b71d"><g clip-rule="nonzero" clip-path="url(#4591f5a73c)"><path style=" stroke:none;fill-rule:nonzero;fill:#1e1e24;fill-opacity:1;" d="M 274.628906 172.511719 C 274.507812 172.585938 264.09375 178.984375 249.839844 182.449219 C 250.300781 180.882812 250.742188 179.316406 251.179688 177.757812 C 251.628906 176.160156 252.09375 174.511719 252.566406 172.894531 C 257.605469 155.726562 265.15625 152.808594 265.222656 152.785156 L 271.0625 150.789062 L 264.894531 150.53125 C 264.398438 150.511719 252.632812 150.074219 238.882812 153.996094 C 220.5625 159.214844 207.660156 169.773438 201.570312 184.535156 C 195.445312 199.382812 196.550781 216.886719 196.773438 219.675781 C 196.871094 221.40625 197.1875 223.15625 197.710938 224.921875 C 190.9375 225.929688 184.046875 225.929688 177.277344 224.921875 C 177.796875 223.160156 178.113281 221.417969 178.210938 219.6875 C 178.429688 216.941406 179.546875 199.40625 173.414062 184.535156 C 167.324219 169.773438 154.421875 159.214844 136.101562 153.996094 C 122.351562 150.074219 110.585938 150.515625 110.089844 150.53125 L 104.242188 150.78125 L 109.753906 152.78125 C 109.832031 152.804688 117.382812 155.726562 122.421875 172.890625 C 122.894531 174.507812 123.359375 176.15625 123.808594 177.753906 C 124.246094 179.3125 124.6875 180.878906 125.144531 182.445312 C 110.894531 178.980469 100.480469 172.582031 100.359375 172.507812 L 98.386719 171.277344 L 98.597656 173.59375 C 99.566406 184.195312 101.464844 193.171875 104.394531 201.039062 C 108.246094 211.371094 115.03125 220.246094 124.015625 226.703125 C 133.011719 233.167969 143.585938 236.753906 154.59375 237.074219 C 155.089844 237.085938 155.574219 237.09375 156.054688 237.09375 C 166.523438 237.09375 173.511719 233.703125 176.441406 227.226562 C 180.078125 227.804688 183.773438 228.097656 187.492188 228.097656 C 191.214844 228.097656 194.90625 227.804688 198.542969 227.226562 C 201.472656 233.703125 208.460938 237.09375 218.929688 237.09375 C 219.410156 237.09375 219.898438 237.085938 220.390625 237.074219 C 231.398438 236.753906 241.972656 233.167969 250.96875 226.703125 C 259.953125 220.246094 266.738281 211.371094 270.589844 201.039062 C 273.519531 193.171875 275.417969 184.199219 276.386719 173.59375 L 276.597656 171.277344 Z M 142.664062 209.03125 L 142.195312 208.617188 C 134.828125 202.117188 131.25 194.152344 128.511719 185.554688 C 129.585938 185.761719 130.675781 185.953125 131.78125 186.121094 C 146.894531 188.40625 165.4375 196.050781 172.792969 207.972656 C 176.027344 213.210938 176.757812 218.785156 174.980469 224.542969 C 163.308594 222.398438 152.101562 217.230469 142.664062 209.03125 Z M 126.039062 177.128906 C 125.589844 175.527344 125.121094 173.871094 124.644531 172.242188 C 121.363281 161.0625 117.011719 155.53125 114.003906 152.878906 C 118.570312 153.046875 126.707031 153.71875 135.535156 156.238281 C 153.367188 161.335938 165.390625 171.152344 171.277344 185.417969 C 174.542969 193.332031 175.664062 202.214844 175.984375 208.972656 C 175.621094 208.226562 175.214844 207.488281 174.761719 206.753906 C 167.019531 194.203125 147.769531 186.199219 132.128906 183.832031 C 130.636719 183.605469 129.171875 183.335938 127.734375 183.035156 C 127.152344 181.089844 126.597656 179.121094 126.039062 177.128906 Z M 154.664062 234.765625 C 133.027344 234.140625 114.148438 220.585938 106.566406 200.234375 C 103.914062 193.121094 102.128906 185.054688 101.125 175.625 C 105.011719 177.769531 114.226562 182.378906 125.921875 185.015625 C 128.765625 194.203125 132.5625 203.199219 140.664062 210.355469 C 140.824219 210.492188 140.984375 210.636719 141.148438 210.777344 C 150.585938 218.976562 161.964844 224.46875 174.082031 226.8125 C 171.257812 232.382812 164.738281 235.058594 154.664062 234.765625 Z M 203.714844 185.417969 C 209.597656 171.152344 221.625 161.335938 239.457031 156.238281 C 248.285156 153.71875 256.421875 153.046875 260.988281 152.878906 C 257.980469 155.53125 253.628906 161.0625 250.347656 172.242188 C 249.871094 173.871094 249.40625 175.527344 248.953125 177.128906 C 248.394531 179.121094 247.839844 181.089844 247.257812 183.035156 C 245.824219 183.335938 244.359375 183.605469 242.863281 183.832031 C 227.222656 186.199219 207.972656 194.203125 200.230469 206.753906 C 199.777344 207.488281 199.367188 208.226562 199.007812 208.972656 C 199.324219 202.214844 200.449219 193.335938 203.714844 185.417969 Z M 202.199219 207.96875 C 209.554688 196.050781 228.097656 188.40625 243.210938 186.117188 C 244.316406 185.949219 245.40625 185.757812 246.480469 185.550781 C 243.742188 194.152344 240.160156 202.113281 232.796875 208.617188 C 232.640625 208.753906 232.484375 208.890625 232.328125 209.027344 C 222.890625 217.230469 211.683594 222.394531 200.011719 224.539062 C 198.238281 218.78125 198.964844 213.210938 202.199219 207.96875 Z M 268.425781 200.234375 C 260.84375 220.582031 241.964844 234.140625 220.328125 234.765625 C 210.257812 235.054688 203.738281 232.382812 200.910156 226.8125 C 213.027344 224.46875 224.410156 218.976562 233.847656 210.773438 C 234.007812 210.632812 234.167969 210.492188 234.328125 210.351562 C 242.433594 203.199219 246.230469 194.199219 249.074219 185.011719 C 260.765625 182.375 269.984375 177.769531 273.867188 175.625 C 272.863281 185.054688 271.074219 193.121094 268.425781 200.234375 Z M 268.425781 200.234375 "/></g><path style=" stroke:none;fill-rule:nonzero;fill:#1e1e24;fill-opacity:1;" d="M 193.828125 145.75 C 190.394531 142.472656 188.65625 137.574219 188.65625 131.1875 L 186.339844 131.1875 C 186.339844 137.574219 184.597656 142.472656 181.164062 145.75 C 177.078125 149.652344 171.648438 150.183594 169.761719 150.246094 C 169.308594 150.234375 169.027344 150.246094 168.96875 150.25 L 168.96875 152.5625 C 169.027344 152.566406 169.308594 152.578125 169.761719 152.566406 C 171.648438 152.628906 177.078125 153.164062 181.164062 157.0625 C 184.597656 160.34375 186.339844 165.242188 186.339844 171.628906 L 188.65625 171.628906 C 188.65625 165.242188 190.394531 160.34375 193.828125 157.0625 C 197.917969 153.164062 203.347656 152.628906 205.234375 152.566406 C 205.6875 152.578125 205.96875 152.566406 206.027344 152.5625 L 206.027344 150.25 C 205.96875 150.25 205.6875 150.234375 205.234375 150.246094 C 203.347656 150.179688 197.914062 149.648438 193.828125 145.75 Z M 192.25 155.367188 C 190.058594 157.449219 188.472656 160.082031 187.496094 163.222656 C 186.519531 160.078125 184.933594 157.449219 182.738281 155.367188 C 180.644531 153.375 178.285156 152.152344 176.117188 151.40625 C 178.285156 150.65625 180.644531 149.4375 182.738281 147.441406 C 184.929688 145.359375 186.519531 142.726562 187.496094 139.585938 C 188.46875 142.730469 190.058594 145.359375 192.25 147.441406 C 194.347656 149.4375 196.703125 150.65625 198.871094 151.40625 C 196.707031 152.152344 194.347656 153.375 192.25 155.367188 Z M 192.25 155.367188 "/><g clip-rule="nonzero" clip-path="url(#f56319db98)"><path style=" stroke:none;fill-rule:nonzero;fill:#1e1e24;fill-opacity:1;" d="M 158.867188 136.101562 C 165.988281 125.835938 175.621094 120.632812 187.496094 120.632812 C 199.347656 120.632812 208.964844 125.816406 216.085938 136.039062 C 221.453125 143.75 223.3125 151.589844 223.328125 151.667969 L 225.582031 151.148438 C 225.507812 150.8125 223.628906 142.855469 218.027344 134.78125 C 210.554688 124.011719 199.996094 118.320312 187.496094 118.320312 C 174.992188 118.320312 164.4375 124.011719 156.960938 134.78125 C 151.359375 142.855469 149.484375 150.8125 149.40625 151.148438 L 151.660156 151.667969 C 151.683594 151.585938 153.515625 143.808594 158.867188 136.101562 Z M 158.867188 136.101562 "/></g><g style="fill:#1e1e24;fill-opacity:1;"><g transform="translate(96.472334, 287.094493)"><path style="stroke:none" d="M 23.5 -8.015625 L 23.578125 0 L 20.421875 0 L 20.578125 -7.734375 L 20.53125 -11.59375 L 13.390625 -11.625 L 6.859375 -11.59375 L 6.8125 -8.015625 L 6.9375 0 L 3.765625 0 L 3.890625 -7.734375 L 3.765625 -25.703125 L 6.984375 -25.703125 L 6.859375 -14.3125 L 13.671875 -14.28125 L 20.53125 -14.3125 L 20.421875 -25.703125 L 23.671875 -25.703125 Z M 23.5 -8.015625 "/></g></g><g style="fill:#1e1e24;fill-opacity:1;"><g transform="translate(124.946463, 287.094493)"><path style="stroke:none" d="M 13.03125 -25.953125 C 16.5625 -25.953125 19.269531 -24.867188 21.15625 -22.703125 C 23.039062 -20.535156 23.984375 -17.421875 23.984375 -13.359375 C 23.984375 -8.972656 22.976562 -5.59375 20.96875 -3.21875 C 18.96875 -0.851562 16.109375 0.328125 12.390625 0.328125 C 8.910156 0.328125 6.226562 -0.796875 4.34375 -3.046875 C 2.46875 -5.296875 1.53125 -8.492188 1.53125 -12.640625 C 1.53125 -16.910156 2.523438 -20.195312 4.515625 -22.5 C 6.503906 -24.800781 9.34375 -25.953125 13.03125 -25.953125 Z M 12.828125 -23.34375 C 7.484375 -23.34375 4.8125 -19.894531 4.8125 -13 C 4.8125 -9.332031 5.457031 -6.613281 6.75 -4.84375 C 8.050781 -3.082031 10.015625 -2.203125 12.640625 -2.203125 C 17.984375 -2.203125 20.65625 -5.71875 20.65625 -12.75 C 20.65625 -16.332031 20.003906 -18.992188 18.703125 -20.734375 C 17.410156 -22.472656 15.453125 -23.34375 12.828125 -23.34375 Z M 12.828125 -23.34375 "/></g></g><g style="fill:#1e1e24;fill-opacity:1;"><g transform="translate(151.455505, 287.094493)"><path style="stroke:none" d="M 16.5625 -2.40625 L 16.28125 0 L 3.609375 0 L 3.8125 -7.734375 L 3.609375 -25.703125 L 6.90625 -25.703125 L 6.703125 -8.015625 L 6.8125 -2.6875 L 16.328125 -2.6875 Z M 16.5625 -2.40625 "/></g></g><g style="fill:#1e1e24;fill-opacity:1;"><g transform="translate(169.181856, 287.094493)"><path style="stroke:none" d="M 6.8125 -8.015625 L 6.984375 0 L 3.734375 0 L 3.9375 -7.734375 L 3.734375 -25.703125 L 7.015625 -25.703125 Z M 9.828125 -34.578125 L 10.625 -32.6875 L 10.546875 -32.375 C 8.003906 -31.195312 5.382812 -30.046875 2.6875 -28.921875 L 2.328125 -29.078125 L 1.765625 -30.53125 C 4.578125 -31.914062 7.128906 -33.289062 9.421875 -34.65625 Z M 9.828125 -34.578125 "/></g></g><g style="fill:#1e1e24;fill-opacity:1;"><g transform="translate(180.97288, 287.094493)"><path style="stroke:none" d="M 10.703125 -25.90625 C 12.554688 -25.90625 14.46875 -25.503906 16.4375 -24.703125 L 15.921875 -21.625 L 15.359375 -21.453125 C 14.585938 -22.046875 13.765625 -22.5 12.890625 -22.8125 C 12.023438 -23.132812 11.164062 -23.296875 10.3125 -23.296875 C 9.320312 -23.296875 8.457031 -23.09375 7.71875 -22.6875 C 6.988281 -22.289062 6.425781 -21.769531 6.03125 -21.125 C 5.644531 -20.488281 5.453125 -19.820312 5.453125 -19.125 C 5.453125 -18.40625 5.671875 -17.769531 6.109375 -17.21875 C 6.554688 -16.675781 7.113281 -16.203125 7.78125 -15.796875 C 8.445312 -15.398438 9.359375 -14.921875 10.515625 -14.359375 C 11.953125 -13.691406 13.113281 -13.066406 14 -12.484375 C 14.882812 -11.910156 15.640625 -11.179688 16.265625 -10.296875 C 16.890625 -9.421875 17.203125 -8.351562 17.203125 -7.09375 C 17.203125 -5.757812 16.84375 -4.53125 16.125 -3.40625 C 15.40625 -2.28125 14.390625 -1.382812 13.078125 -0.71875 C 11.765625 -0.0507812 10.265625 0.28125 8.578125 0.28125 C 7.460938 0.28125 6.296875 0.128906 5.078125 -0.171875 C 3.859375 -0.484375 2.726562 -0.9375 1.6875 -1.53125 L 2.078125 -4.8125 L 2.53125 -5.015625 C 3.46875 -4.109375 4.503906 -3.429688 5.640625 -2.984375 C 6.773438 -2.546875 7.863281 -2.328125 8.90625 -2.328125 C 9.914062 -2.328125 10.816406 -2.523438 11.609375 -2.921875 C 12.398438 -3.328125 13 -3.863281 13.40625 -4.53125 C 13.820312 -5.195312 14.03125 -5.90625 14.03125 -6.65625 C 14.03125 -7.78125 13.601562 -8.679688 12.75 -9.359375 C 11.894531 -10.046875 10.597656 -10.789062 8.859375 -11.59375 C 7.441406 -12.289062 6.304688 -12.910156 5.453125 -13.453125 C 4.597656 -14.003906 3.863281 -14.710938 3.25 -15.578125 C 2.632812 -16.453125 2.328125 -17.515625 2.328125 -18.765625 C 2.328125 -20.078125 2.679688 -21.28125 3.390625 -22.375 C 4.097656 -23.476562 5.085938 -24.34375 6.359375 -24.96875 C 7.628906 -25.59375 9.078125 -25.90625 10.703125 -25.90625 Z M 10.703125 -25.90625 "/></g></g><g style="fill:#1e1e24;fill-opacity:1;"><g transform="translate(200.945028, 287.094493)"><path style="stroke:none" d="M 18.8125 -25.390625 L 18.578125 -22.90625 L 14.078125 -23.140625 L 11.46875 -23.140625 L 11.34375 -8.015625 L 11.46875 0 L 8.21875 0 L 8.46875 -7.734375 L 8.265625 -23.140625 L 5.65625 -23.140625 L 1.078125 -22.90625 L 0.875 -23.21875 L 1.125 -25.703125 L 18.578125 -25.703125 Z M 18.8125 -25.390625 "/></g></g><g style="fill:#1e1e24;fill-opacity:1;"><g transform="translate(221.639065, 287.094493)"><path style="stroke:none" d="M 6.8125 -8.015625 L 6.984375 0 L 3.734375 0 L 3.9375 -7.734375 L 3.734375 -25.703125 L 7.015625 -25.703125 Z M 6.8125 -8.015625 "/></g></g><g style="fill:#1e1e24;fill-opacity:1;"><g transform="translate(233.430061, 287.094493)"><path style="stroke:none" d="M 12.921875 -25.90625 C 15.617188 -25.90625 17.957031 -25.265625 19.9375 -23.984375 L 19.296875 -21.0625 L 18.9375 -20.984375 C 17.144531 -22.472656 15.082031 -23.21875 12.75 -23.21875 C 10.207031 -23.21875 8.253906 -22.34375 6.890625 -20.59375 C 5.535156 -18.84375 4.859375 -16.285156 4.859375 -12.921875 C 4.859375 -9.523438 5.535156 -6.929688 6.890625 -5.140625 C 8.253906 -3.347656 10.179688 -2.453125 12.671875 -2.453125 C 13.847656 -2.453125 15.015625 -2.664062 16.171875 -3.09375 C 17.335938 -3.519531 18.40625 -4.117188 19.375 -4.890625 L 19.78125 -4.6875 L 19.5 -1.640625 C 17.164062 -0.359375 14.796875 0.28125 12.390625 0.28125 C 8.941406 0.28125 6.269531 -0.832031 4.375 -3.0625 C 2.476562 -5.300781 1.53125 -8.492188 1.53125 -12.640625 C 1.53125 -16.890625 2.515625 -20.160156 4.484375 -22.453125 C 6.460938 -24.753906 9.273438 -25.90625 12.921875 -25.90625 Z M 12.921875 -25.90625 "/></g></g><g style="fill:#1e1e24;fill-opacity:1;"><g transform="translate(255.327203, 287.094493)"><path style="stroke:none" d="M 22.296875 0 L 19.015625 0 L 18.40625 -2.5625 L 16.96875 -6.984375 L 11.1875 -7.09375 L 5.96875 -6.984375 L 4.40625 -2.734375 L 3.765625 0 L 0.5625 0 L 9.984375 -25.703125 L 13.71875 -25.703125 Z M 16.078125 -9.703125 L 11.90625 -22.375 L 11.625 -22.375 L 6.984375 -9.703125 L 11.46875 -9.625 Z M 16.078125 -9.703125 "/></g></g><g style="fill:#1e1e24;fill-opacity:1;"><g transform="translate(115.708452, 91.177993)"><path style="stroke:none" d="M 18.296875 -24.6875 L 18.0625 -22.265625 L 13.6875 -22.5 L 11.15625 -22.5 L 11.03125 -7.796875 L 11.15625 0 L 8 0 L 8.234375 -7.53125 L 8.03125 -22.5 L 5.5 -22.5 L 1.046875 -22.265625 L 0.859375 -22.578125 L 1.09375 -25 L 18.0625 -25 Z M 18.296875 -24.6875 "/></g></g><g style="fill:#1e1e24;fill-opacity:1;"><g transform="translate(136.183464, 91.177993)"><path style="stroke:none" d="M 17.90625 -2.421875 L 17.671875 0 L 3.625 0 L 3.828125 -7.53125 L 3.625 -25 L 17.703125 -25 L 17.859375 -24.6875 L 17.625 -22.265625 L 11.734375 -22.390625 L 6.78125 -22.3125 L 6.703125 -14.125 L 11.390625 -14.046875 L 15.515625 -14.15625 L 15.75 -13.890625 L 15.484375 -11.46875 L 11.109375 -11.546875 L 6.671875 -11.5 L 6.625 -7.796875 L 6.75 -2.609375 L 11.703125 -2.578125 L 17.703125 -2.734375 Z M 17.90625 -2.421875 "/></g></g><g style="fill:#1e1e24;fill-opacity:1;"><g transform="translate(156.346476, 91.177993)"><path style="stroke:none" d="M 13.8125 -10.09375 C 15.519531 -7.257812 17.675781 -4.140625 20.28125 -0.734375 L 20.234375 -0.34375 C 19.304688 0.0078125 18.347656 0.238281 17.359375 0.34375 L 16.921875 0.078125 C 14.796875 -3.117188 12.882812 -6.238281 11.1875 -9.28125 L 6.625 -9.28125 L 6.625 -7.796875 L 6.78125 0 L 3.625 0 L 3.828125 -7.53125 L 3.625 -25 L 11.265625 -25.03125 C 13.710938 -25.03125 15.601562 -24.410156 16.9375 -23.171875 C 18.28125 -21.941406 18.953125 -20.1875 18.953125 -17.90625 C 18.953125 -16.1875 18.503906 -14.644531 17.609375 -13.28125 C 16.710938 -11.914062 15.445312 -10.851562 13.8125 -10.09375 Z M 6.671875 -11.9375 L 11.34375 -11.8125 C 14.257812 -12.644531 15.71875 -14.582031 15.71875 -17.625 C 15.71875 -19.207031 15.285156 -20.394531 14.421875 -21.1875 C 13.566406 -21.988281 12.28125 -22.414062 10.5625 -22.46875 L 6.78125 -22.34375 Z M 6.671875 -11.9375 "/></g></g><g style="fill:#1e1e24;fill-opacity:1;"><g transform="translate(179.356492, 91.177993)"><path style="stroke:none" d="M 21.6875 0 L 18.484375 0 L 17.90625 -2.5 L 16.5 -6.78125 L 10.875 -6.90625 L 5.8125 -6.78125 L 4.296875 -2.65625 L 3.671875 0 L 0.546875 0 L 9.71875 -25 L 13.34375 -25 Z M 15.640625 -9.4375 L 11.578125 -21.765625 L 11.3125 -21.765625 L 6.78125 -9.4375 L 11.15625 -9.359375 Z M 15.640625 -9.4375 "/></g></g><g style="fill:#1e1e24;fill-opacity:1;"><g transform="translate(203.263507, 91.177993)"><path style="stroke:none" d="M 11.265625 -25.03125 C 13.710938 -25.03125 15.597656 -24.398438 16.921875 -23.140625 C 18.253906 -21.878906 18.921875 -20.066406 18.921875 -17.703125 C 18.921875 -14.921875 18.09375 -12.738281 16.4375 -11.15625 C 14.789062 -9.570312 12.507812 -8.78125 9.59375 -8.78125 L 6.625 -8.78125 L 6.625 -7.796875 L 6.78125 0 L 3.625 0 L 3.828125 -7.53125 L 3.625 -25 Z M 10.765625 -11.3125 C 12.378906 -11.570312 13.609375 -12.21875 14.453125 -13.25 C 15.296875 -14.289062 15.71875 -15.6875 15.71875 -17.4375 C 15.71875 -20.65625 14 -22.332031 10.5625 -22.46875 L 6.78125 -22.34375 L 6.671875 -11.390625 Z M 10.765625 -11.3125 "/></g></g><g style="fill:#1e1e24;fill-opacity:1;"><g transform="translate(224.908518, 91.177993)"><path style="stroke:none" d="M 6.625 -7.796875 L 6.78125 0 L 3.625 0 L 3.828125 -7.53125 L 3.625 -25 L 6.828125 -25 Z M 6.625 -7.796875 "/></g></g><g style="fill:#1e1e24;fill-opacity:1;"><g transform="translate(236.725526, 91.177993)"><path style="stroke:none" d="M 21.6875 0 L 18.484375 0 L 17.90625 -2.5 L 16.5 -6.78125 L 10.875 -6.90625 L 5.8125 -6.78125 L 4.296875 -2.65625 L 3.671875 0 L 0.546875 0 L 9.71875 -25 L 13.34375 -25 Z M 15.640625 -9.4375 L 11.578125 -21.765625 L 11.3125 -21.765625 L 6.78125 -9.4375 L 11.15625 -9.359375 Z M 15.640625 -9.4375 "/></g></g><g style="fill:#1e1e24;fill-opacity:1;"><g transform="translate(99.429802, 317.898777)"><path style="stroke:none" d="M 3.171875 -7.65625 C 3.710938 -7.65625 4.273438 -7.539062 4.859375 -7.3125 L 4.703125 -6.390625 L 4.546875 -6.34375 C 4.316406 -6.519531 4.070312 -6.65625 3.8125 -6.75 C 3.550781 -6.84375 3.296875 -6.890625 3.046875 -6.890625 C 2.753906 -6.890625 2.5 -6.828125 2.28125 -6.703125 C 2.0625 -6.585938 1.894531 -6.4375 1.78125 -6.25 C 1.664062 -6.0625 1.609375 -5.863281 1.609375 -5.65625 C 1.609375 -5.445312 1.671875 -5.257812 1.796875 -5.09375 C 1.929688 -4.925781 2.097656 -4.785156 2.296875 -4.671875 C 2.492188 -4.554688 2.765625 -4.414062 3.109375 -4.25 C 3.535156 -4.050781 3.878906 -3.863281 4.140625 -3.6875 C 4.398438 -3.519531 4.625 -3.304688 4.8125 -3.046875 C 5 -2.785156 5.09375 -2.46875 5.09375 -2.09375 C 5.09375 -1.695312 4.984375 -1.332031 4.765625 -1 C 4.554688 -0.675781 4.253906 -0.414062 3.859375 -0.21875 C 3.472656 -0.0195312 3.03125 0.078125 2.53125 0.078125 C 2.207031 0.078125 1.863281 0.0351562 1.5 -0.046875 C 1.132812 -0.140625 0.800781 -0.273438 0.5 -0.453125 L 0.609375 -1.421875 L 0.75 -1.484375 C 1.019531 -1.210938 1.320312 -1.007812 1.65625 -0.875 C 2 -0.75 2.320312 -0.6875 2.625 -0.6875 C 2.925781 -0.6875 3.191406 -0.742188 3.421875 -0.859375 C 3.660156 -0.984375 3.84375 -1.144531 3.96875 -1.34375 C 4.09375 -1.539062 4.15625 -1.75 4.15625 -1.96875 C 4.15625 -2.300781 4.023438 -2.566406 3.765625 -2.765625 C 3.515625 -2.972656 3.132812 -3.191406 2.625 -3.421875 C 2.207031 -3.628906 1.867188 -3.8125 1.609375 -3.96875 C 1.359375 -4.132812 1.140625 -4.347656 0.953125 -4.609375 C 0.773438 -4.867188 0.6875 -5.179688 0.6875 -5.546875 C 0.6875 -5.929688 0.789062 -6.285156 1 -6.609375 C 1.207031 -6.941406 1.5 -7.195312 1.875 -7.375 C 2.25 -7.5625 2.679688 -7.65625 3.171875 -7.65625 Z M 3.171875 -7.65625 "/></g></g><g style="fill:#1e1e24;fill-opacity:1;"><g transform="translate(111.003592, 317.898777)"><path style="stroke:none" d="M 5.4375 -0.734375 L 5.375 0 L 1.109375 0 L 1.15625 -2.28125 L 1.109375 -7.609375 L 5.390625 -7.609375 L 5.4375 -7.5 L 5.359375 -6.765625 L 3.5625 -6.8125 L 2.0625 -6.78125 L 2.046875 -4.296875 L 3.46875 -4.265625 L 4.71875 -4.3125 L 4.796875 -4.21875 L 4.703125 -3.484375 L 3.375 -3.515625 L 2.03125 -3.5 L 2.015625 -2.375 L 2.046875 -0.796875 L 3.5625 -0.78125 L 5.390625 -0.828125 Z M 5.4375 -0.734375 "/></g></g><g style="fill:#1e1e24;fill-opacity:1;"><g transform="translate(122.695958, 317.898777)"><path style="stroke:none" d="M 4.296875 -3.96875 C 5.367188 -3.75 5.90625 -3.132812 5.90625 -2.125 C 5.90625 -1.40625 5.644531 -0.863281 5.125 -0.5 C 4.601562 -0.132812 3.820312 0.046875 2.78125 0.046875 C 2.09375 0.046875 1.535156 0.03125 1.109375 0 L 1.15625 -2.28125 L 1.109375 -7.609375 L 3.21875 -7.609375 C 3.925781 -7.609375 4.472656 -7.453125 4.859375 -7.140625 C 5.242188 -6.828125 5.4375 -6.367188 5.4375 -5.765625 C 5.4375 -5.335938 5.335938 -4.96875 5.140625 -4.65625 C 4.941406 -4.351562 4.660156 -4.125 4.296875 -3.96875 Z M 4.453125 -5.65625 C 4.453125 -6.070312 4.335938 -6.367188 4.109375 -6.546875 C 3.890625 -6.734375 3.53125 -6.828125 3.03125 -6.828125 L 2.0625 -6.828125 L 2.046875 -4.28125 L 3.34375 -4.25 C 4.082031 -4.414062 4.453125 -4.882812 4.453125 -5.65625 Z M 2.921875 -0.75 C 3.578125 -0.75 4.078125 -0.867188 4.421875 -1.109375 C 4.773438 -1.359375 4.953125 -1.710938 4.953125 -2.171875 C 4.953125 -2.941406 4.460938 -3.382812 3.484375 -3.5 L 2.03125 -3.484375 L 2.015625 -2.375 L 2.046875 -0.78125 C 2.359375 -0.757812 2.648438 -0.75 2.921875 -0.75 Z M 2.921875 -0.75 "/></g></g><g style="fill:#1e1e24;fill-opacity:1;"><g transform="translate(135.040472, 317.898777)"><path style="stroke:none" d="M 6.59375 0 L 5.625 0 L 5.4375 -0.765625 L 5.015625 -2.0625 L 3.3125 -2.09375 L 1.765625 -2.0625 L 1.296875 -0.8125 L 1.109375 0 L 0.171875 0 L 2.953125 -7.609375 L 4.0625 -7.609375 Z M 4.75 -2.875 L 3.515625 -6.625 L 3.4375 -6.625 L 2.0625 -2.875 L 3.390625 -2.84375 Z M 4.75 -2.875 "/></g></g><g style="fill:#1e1e24;fill-opacity:1;"><g transform="translate(147.871137, 317.898777)"><path style="stroke:none" d="M 3.171875 -7.65625 C 3.710938 -7.65625 4.273438 -7.539062 4.859375 -7.3125 L 4.703125 -6.390625 L 4.546875 -6.34375 C 4.316406 -6.519531 4.070312 -6.65625 3.8125 -6.75 C 3.550781 -6.84375 3.296875 -6.890625 3.046875 -6.890625 C 2.753906 -6.890625 2.5 -6.828125 2.28125 -6.703125 C 2.0625 -6.585938 1.894531 -6.4375 1.78125 -6.25 C 1.664062 -6.0625 1.609375 -5.863281 1.609375 -5.65625 C 1.609375 -5.445312 1.671875 -5.257812 1.796875 -5.09375 C 1.929688 -4.925781 2.097656 -4.785156 2.296875 -4.671875 C 2.492188 -4.554688 2.765625 -4.414062 3.109375 -4.25 C 3.535156 -4.050781 3.878906 -3.863281 4.140625 -3.6875 C 4.398438 -3.519531 4.625 -3.304688 4.8125 -3.046875 C 5 -2.785156 5.09375 -2.46875 5.09375 -2.09375 C 5.09375 -1.695312 4.984375 -1.332031 4.765625 -1 C 4.554688 -0.675781 4.253906 -0.414062 3.859375 -0.21875 C 3.472656 -0.0195312 3.03125 0.078125 2.53125 0.078125 C 2.207031 0.078125 1.863281 0.0351562 1.5 -0.046875 C 1.132812 -0.140625 0.800781 -0.273438 0.5 -0.453125 L 0.609375 -1.421875 L 0.75 -1.484375 C 1.019531 -1.210938 1.320312 -1.007812 1.65625 -0.875 C 2 -0.75 2.320312 -0.6875 2.625 -0.6875 C 2.925781 -0.6875 3.191406 -0.742188 3.421875 -0.859375 C 3.660156 -0.984375 3.84375 -1.144531 3.96875 -1.34375 C 4.09375 -1.539062 4.15625 -1.75 4.15625 -1.96875 C 4.15625 -2.300781 4.023438 -2.566406 3.765625 -2.765625 C 3.515625 -2.972656 3.132812 -3.191406 2.625 -3.421875 C 2.207031 -3.628906 1.867188 -3.8125 1.609375 -3.96875 C 1.359375 -4.132812 1.140625 -4.347656 0.953125 -4.609375 C 0.773438 -4.867188 0.6875 -5.179688 0.6875 -5.546875 C 0.6875 -5.929688 0.789062 -6.285156 1 -6.609375 C 1.207031 -6.941406 1.5 -7.195312 1.875 -7.375 C 2.25 -7.5625 2.679688 -7.65625 3.171875 -7.65625 Z M 3.171875 -7.65625 "/></g></g><g style="fill:#1e1e24;fill-opacity:1;"><g transform="translate(159.255196, 317.898777)"><path style="stroke:none" d="M 5.5625 -7.5 L 5.484375 -6.765625 L 4.15625 -6.84375 L 3.390625 -6.84375 L 3.359375 -2.375 L 3.390625 0 L 2.4375 0 L 2.5 -2.28125 L 2.4375 -6.84375 L 1.671875 -6.84375 L 0.3125 -6.765625 L 0.265625 -6.859375 L 0.328125 -7.609375 L 5.484375 -7.609375 Z M 5.5625 -7.5 "/></g></g><g style="fill:#1e1e24;fill-opacity:1;"><g transform="translate(171.042418, 317.898777)"><path style="stroke:none" d="M 2.015625 -2.375 L 2.0625 0 L 1.109375 0 L 1.15625 -2.28125 L 1.109375 -7.609375 L 2.078125 -7.609375 Z M 2.015625 -2.375 "/></g></g><g style="fill:#1e1e24;fill-opacity:1;"><g transform="translate(180.19732, 317.898777)"><path style="stroke:none" d="M 6.59375 0 L 5.625 0 L 5.4375 -0.765625 L 5.015625 -2.0625 L 3.3125 -2.09375 L 1.765625 -2.0625 L 1.296875 -0.8125 L 1.109375 0 L 0.171875 0 L 2.953125 -7.609375 L 4.0625 -7.609375 Z M 4.75 -2.875 L 3.515625 -6.625 L 3.4375 -6.625 L 2.0625 -2.875 L 3.390625 -2.84375 Z M 4.75 -10.21875 L 4.984375 -9.671875 L 4.96875 -9.578125 C 4.21875 -9.222656 3.441406 -8.878906 2.640625 -8.546875 L 2.53125 -8.59375 L 2.375 -9.03125 C 3.195312 -9.4375 3.945312 -9.84375 4.625 -10.25 Z M 4.75 -10.21875 "/></g></g><g style="fill:#1e1e24;fill-opacity:1;"><g transform="translate(193.027985, 317.898777)"><path style="stroke:none" d="M 6.9375 -2.234375 L 6.96875 0 L 5.96875 0 L 2.03125 -6.078125 L 1.96875 -6.078125 L 1.953125 -2.5 L 1.96875 0 L 1.109375 0 L 1.15625 -2.25 L 1.125 -7.609375 L 2.109375 -7.609375 L 6.03125 -1.515625 L 6.125 -1.515625 L 6.109375 -7.546875 L 7 -7.625 Z M 6.9375 -2.234375 "/></g></g><g style="fill:#1e1e24;fill-opacity:1;"><g transform="translate(207.103667, 317.898777)"><path style="stroke:none" d=""/></g></g><g style="fill:#1e1e24;fill-opacity:1;"><g transform="translate(215.037272, 317.898777)"><path style="stroke:none" d="M 3.859375 -7.65625 C 4.941406 -7.65625 5.769531 -7.34375 6.34375 -6.71875 C 6.914062 -6.101562 7.203125 -5.21875 7.203125 -4.0625 C 7.203125 -2.726562 6.890625 -1.703125 6.265625 -0.984375 C 5.648438 -0.273438 4.753906 0.078125 3.578125 0.078125 C 3.253906 0.078125 2.859375 0.0664062 2.390625 0.046875 C 1.929688 0.0351562 1.503906 0.0195312 1.109375 0 L 1.15625 -2.28125 L 1.109375 -7.609375 Z M 3.734375 -0.71875 C 4.546875 -0.71875 5.164062 -0.976562 5.59375 -1.5 C 6.019531 -2.03125 6.234375 -2.816406 6.234375 -3.859375 C 6.234375 -5.859375 5.414062 -6.859375 3.78125 -6.859375 C 3.28125 -6.859375 2.707031 -6.84375 2.0625 -6.8125 L 2.015625 -2.375 L 2.046875 -0.796875 C 2.296875 -0.773438 2.59375 -0.753906 2.9375 -0.734375 C 3.28125 -0.722656 3.546875 -0.71875 3.734375 -0.71875 Z M 3.734375 -0.71875 "/></g></g><g style="fill:#1e1e24;fill-opacity:1;"><g transform="translate(228.674226, 317.898777)"><path style="stroke:none" d="M 6.53125 -3.734375 L 6.515625 -2.875 C 6.535156 -1.945312 6.289062 -1.222656 5.78125 -0.703125 C 5.28125 -0.179688 4.5625 0.078125 3.625 0.078125 C 2.726562 0.078125 2.039062 -0.164062 1.5625 -0.65625 C 1.09375 -1.15625 0.863281 -1.863281 0.875 -2.78125 L 0.890625 -3.8125 L 0.875 -7.609375 L 1.8125 -7.609375 L 1.78125 -2.890625 C 1.769531 -2.179688 1.925781 -1.644531 2.25 -1.28125 C 2.570312 -0.925781 3.054688 -0.75 3.703125 -0.75 C 4.335938 -0.75 4.820312 -0.914062 5.15625 -1.25 C 5.488281 -1.59375 5.648438 -2.101562 5.640625 -2.78125 L 5.59375 -7.609375 L 6.546875 -7.609375 Z M 6.53125 -3.734375 "/></g></g><g style="fill:#1e1e24;fill-opacity:1;"><g transform="translate(242.07404, 317.898777)"><path style="stroke:none" d="M 4.203125 -3.078125 C 4.722656 -2.210938 5.378906 -1.257812 6.171875 -0.21875 L 6.15625 -0.109375 C 5.875 0.00390625 5.582031 0.078125 5.28125 0.109375 L 5.140625 0.03125 C 4.492188 -0.945312 3.914062 -1.898438 3.40625 -2.828125 L 2.015625 -2.828125 L 2.015625 -2.375 L 2.0625 0 L 1.109375 0 L 1.15625 -2.28125 L 1.109375 -7.609375 L 3.421875 -7.609375 C 4.171875 -7.609375 4.75 -7.421875 5.15625 -7.046875 C 5.5625 -6.671875 5.765625 -6.132812 5.765625 -5.4375 C 5.765625 -4.914062 5.628906 -4.445312 5.359375 -4.03125 C 5.085938 -3.625 4.703125 -3.304688 4.203125 -3.078125 Z M 2.03125 -3.625 L 3.453125 -3.59375 C 4.335938 -3.84375 4.78125 -4.429688 4.78125 -5.359375 C 4.78125 -5.835938 4.648438 -6.195312 4.390625 -6.4375 C 4.128906 -6.6875 3.738281 -6.816406 3.21875 -6.828125 L 2.0625 -6.796875 Z M 2.03125 -3.625 "/></g></g><g style="fill:#1e1e24;fill-opacity:1;"><g transform="translate(254.631993, 317.898777)"><path style="stroke:none" d="M 6.59375 0 L 5.625 0 L 5.4375 -0.765625 L 5.015625 -2.0625 L 3.3125 -2.09375 L 1.765625 -2.0625 L 1.296875 -0.8125 L 1.109375 0 L 0.171875 0 L 2.953125 -7.609375 L 4.0625 -7.609375 Z M 4.75 -2.875 L 3.515625 -6.625 L 3.4375 -6.625 L 2.0625 -2.875 L 3.390625 -2.84375 Z M 4.75 -10.21875 L 4.984375 -9.671875 L 4.96875 -9.578125 C 4.21875 -9.222656 3.441406 -8.878906 2.640625 -8.546875 L 2.53125 -8.59375 L 2.375 -9.03125 C 3.195312 -9.4375 3.945312 -9.84375 4.625 -10.25 Z M 4.75 -10.21875 "/></g></g><g style="fill:#1e1e24;fill-opacity:1;"><g transform="translate(267.462645, 317.898777)"><path style="stroke:none" d="M 6.9375 -2.234375 L 6.96875 0 L 5.96875 0 L 2.03125 -6.078125 L 1.96875 -6.078125 L 1.953125 -2.5 L 1.96875 0 L 1.109375 0 L 1.15625 -2.25 L 1.125 -7.609375 L 2.109375 -7.609375 L 6.03125 -1.515625 L 6.125 -1.515625 L 6.109375 -7.546875 L 7 -7.625 Z M 6.9375 -2.234375 "/></g></g></g></svg>