<svg xmlns="http://www.w3.org/2000/svg" xmlns:xlink="http://www.w3.org/1999/xlink" width="500" zoomAndPan="magnify" viewBox="0 0 375 374.999991" height="500" preserveAspectRatio="xMidYMid meet" version="1.2"><defs><clipPath id="95f6e37564"><path d="M 67.449219 137 L 307.449219 137 L 307.449219 254 L 67.449219 254 Z M 67.449219 137 "/></clipPath><clipPath id="9be7f4b744"><path d="M 136 93.601562 L 239 93.601562 L 239 139 L 136 139 Z M 136 93.601562 "/></clipPath></defs><g id="abce9da8bd"><g clip-rule="nonzero" clip-path="url(#95f6e37564)"><path style=" stroke:none;fill-rule:nonzero;fill:#1e1e24;fill-opacity:1;" d="M 304.78125 166.695312 C 304.617188 166.792969 290.59375 175.410156 271.402344 180.074219 C 272.019531 177.96875 272.613281 175.855469 273.207031 173.757812 C 273.808594 171.609375 274.4375 169.382812 275.070312 167.207031 C 281.855469 144.089844 292.027344 140.160156 292.113281 140.128906 L 299.980469 137.441406 L 291.671875 137.09375 C 291.003906 137.066406 275.164062 136.480469 256.644531 141.757812 C 231.972656 148.789062 214.597656 163.007812 206.398438 182.882812 C 198.152344 202.875 199.636719 226.453125 199.941406 230.207031 C 200.070312 232.535156 200.496094 234.894531 201.199219 237.273438 C 192.082031 238.628906 182.796875 238.628906 173.683594 237.273438 C 174.382812 234.902344 174.808594 232.550781 174.9375 230.222656 C 175.238281 226.527344 176.742188 202.90625 168.480469 182.882812 C 160.28125 163.007812 142.90625 148.785156 118.234375 141.757812 C 99.714844 136.480469 83.871094 137.070312 83.207031 137.09375 L 75.328125 137.425781 L 82.753906 140.121094 C 82.855469 140.15625 93.027344 144.085938 99.8125 167.203125 C 100.449219 169.382812 101.074219 171.601562 101.675781 173.75 C 102.269531 175.851562 102.863281 177.960938 103.480469 180.066406 C 84.289062 175.402344 70.265625 166.785156 70.101562 166.6875 L 67.441406 165.03125 L 67.730469 168.152344 C 69.035156 182.425781 71.589844 194.515625 75.535156 205.105469 C 80.722656 219.023438 89.859375 230.976562 101.957031 239.671875 C 114.070312 248.378906 128.3125 253.203125 143.136719 253.632812 C 143.804688 253.652344 144.460938 253.660156 145.105469 253.660156 C 159.199219 253.660156 168.613281 249.09375 172.558594 240.378906 C 177.453125 241.152344 182.429688 241.546875 187.441406 241.546875 C 192.453125 241.546875 197.425781 241.152344 202.324219 240.378906 C 206.269531 249.097656 215.679688 253.660156 229.773438 253.660156 C 230.417969 253.660156 231.078125 253.652344 231.742188 253.632812 C 246.566406 253.207031 260.808594 248.378906 272.921875 239.671875 C 285.019531 230.976562 294.15625 219.023438 299.34375 205.105469 C 303.289062 194.515625 305.84375 182.429688 307.148438 168.152344 L 307.4375 165.03125 Z M 127.074219 215.871094 L 126.441406 215.316406 C 116.519531 206.5625 111.703125 195.835938 108.011719 184.257812 C 109.457031 184.535156 110.925781 184.792969 112.417969 185.019531 C 132.769531 188.097656 157.742188 198.390625 167.644531 214.445312 C 172 221.503906 172.984375 229.007812 170.589844 236.761719 C 154.875 233.871094 139.78125 226.910156 127.074219 215.871094 Z M 104.683594 172.914062 C 104.078125 170.757812 103.449219 168.523438 102.804688 166.328125 C 98.386719 151.273438 92.523438 143.824219 88.476562 140.253906 C 94.625 140.476562 105.582031 141.382812 117.46875 144.78125 C 141.484375 151.644531 157.675781 164.863281 165.601562 184.074219 C 170 194.730469 171.515625 206.695312 171.945312 215.792969 C 171.453125 214.789062 170.90625 213.796875 170.296875 212.804688 C 159.867188 195.90625 133.945312 185.121094 112.882812 181.9375 C 110.871094 181.632812 108.898438 181.269531 106.964844 180.863281 C 106.183594 178.246094 105.433594 175.59375 104.683594 172.914062 Z M 143.230469 250.527344 C 114.097656 249.683594 88.671875 231.433594 78.457031 204.023438 C 74.886719 194.445312 72.484375 183.582031 71.132812 170.886719 C 76.367188 173.773438 88.777344 179.980469 104.523438 183.527344 C 108.355469 195.902344 113.46875 208.019531 124.378906 217.652344 C 124.59375 217.839844 124.8125 218.03125 125.03125 218.222656 C 137.738281 229.265625 153.0625 236.660156 169.382812 239.820312 C 165.578125 247.320312 156.796875 250.921875 143.230469 250.527344 Z M 209.285156 184.074219 C 217.207031 164.863281 233.402344 151.644531 257.421875 144.78125 C 269.304688 141.382812 280.265625 140.476562 286.414062 140.253906 C 282.363281 143.824219 276.503906 151.273438 272.085938 166.332031 C 271.441406 168.523438 270.816406 170.757812 270.207031 172.914062 C 269.453125 175.59375 268.707031 178.242188 267.921875 180.863281 C 265.992188 181.269531 264.019531 181.632812 262.007812 181.9375 C 240.945312 185.121094 215.019531 195.90625 204.59375 212.804688 C 203.984375 213.792969 203.433594 214.789062 202.945312 215.792969 C 203.375 206.695312 204.890625 194.734375 209.285156 184.074219 Z M 207.246094 214.441406 C 217.152344 198.390625 242.121094 188.097656 262.472656 185.015625 C 263.964844 184.789062 265.429688 184.53125 266.878906 184.253906 C 263.1875 195.835938 258.363281 206.554688 248.449219 215.3125 C 248.238281 215.496094 248.027344 215.679688 247.816406 215.867188 C 235.105469 226.910156 220.015625 233.867188 204.296875 236.757812 C 201.910156 229.003906 202.890625 221.5 207.246094 214.441406 Z M 296.429688 204.023438 C 286.21875 231.429688 260.792969 249.683594 231.660156 250.527344 C 218.101562 250.914062 209.316406 247.316406 205.511719 239.820312 C 221.828125 236.660156 237.152344 229.265625 249.863281 218.21875 C 250.082031 218.027344 250.296875 217.839844 250.511719 217.648438 C 261.425781 208.019531 266.539062 195.898438 270.371094 183.523438 C 286.117188 179.976562 298.527344 173.773438 303.757812 170.882812 C 302.40625 183.582031 300 194.449219 296.429688 204.023438 Z M 296.429688 204.023438 "/></g><path style=" stroke:none;fill-rule:nonzero;fill:#1e1e24;fill-opacity:1;" d="M 195.972656 130.652344 C 191.347656 126.238281 189.003906 119.640625 189.003906 111.039062 L 185.886719 111.039062 C 185.886719 119.640625 183.542969 126.238281 178.921875 130.652344 C 173.414062 135.90625 166.101562 136.625 163.5625 136.710938 C 162.953125 136.695312 162.574219 136.710938 162.496094 136.714844 L 162.496094 139.828125 C 162.574219 139.832031 162.953125 139.847656 163.5625 139.835938 C 166.101562 139.917969 173.414062 140.636719 178.921875 145.890625 C 183.542969 150.304688 185.886719 156.902344 185.886719 165.503906 L 189.003906 165.503906 C 189.003906 156.902344 191.347656 150.304688 195.972656 145.890625 C 201.476562 140.636719 208.792969 139.917969 211.328125 139.835938 C 211.941406 139.847656 212.324219 139.835938 212.398438 139.828125 L 212.398438 136.714844 C 212.320312 136.710938 211.945312 136.695312 211.328125 136.710938 C 208.792969 136.621094 201.472656 135.902344 195.972656 130.652344 Z M 193.847656 143.601562 C 190.898438 146.410156 188.757812 149.953125 187.441406 154.183594 C 186.132812 149.949219 183.992188 146.410156 181.039062 143.601562 C 178.214844 140.917969 175.042969 139.277344 172.121094 138.269531 C 175.039062 137.261719 178.214844 135.617188 181.039062 132.933594 C 183.988281 130.125 186.128906 126.585938 187.441406 122.351562 C 188.753906 126.589844 190.898438 130.125 193.847656 132.933594 C 196.667969 135.617188 199.84375 137.261719 202.765625 138.269531 C 199.847656 139.277344 196.667969 140.917969 193.847656 143.601562 Z M 193.847656 143.601562 "/><g clip-rule="nonzero" clip-path="url(#9be7f4b744)"><path style=" stroke:none;fill-rule:nonzero;fill:#1e1e24;fill-opacity:1;" d="M 148.890625 117.660156 C 158.480469 103.835938 171.453125 96.828125 187.445312 96.828125 C 203.402344 96.828125 216.355469 103.8125 225.945312 117.578125 C 233.171875 127.960938 235.675781 138.515625 235.699219 138.621094 L 238.734375 137.921875 C 238.632812 137.46875 236.105469 126.753906 228.558594 115.882812 C 218.496094 101.378906 204.277344 93.714844 187.441406 93.714844 C 170.609375 93.714844 156.390625 101.378906 146.324219 115.882812 C 138.78125 126.753906 136.253906 137.46875 136.152344 137.921875 L 139.1875 138.621094 C 139.21875 138.511719 141.683594 128.042969 148.890625 117.660156 Z M 148.890625 117.660156 "/></g><g style="fill:#1e1e24;fill-opacity:1;"><g transform="translate(64.865869, 321.0867)"><path style="stroke:none" d="M 31.671875 -10.8125 L 31.78125 0 L 27.515625 0 L 27.71875 -10.4375 L 27.671875 -15.625 L 18.046875 -15.671875 L 9.234375 -15.625 L 9.1875 -10.8125 L 9.34375 0 L 5.078125 0 L 5.25 -10.4375 L 5.078125 -34.640625 L 9.40625 -34.640625 L 9.234375 -19.296875 L 18.4375 -19.234375 L 27.671875 -19.296875 L 27.515625 -34.640625 L 31.890625 -34.640625 Z M 31.671875 -10.8125 "/></g></g><g style="fill:#1e1e24;fill-opacity:1;"><g transform="translate(103.226725, 321.0867)"><path style="stroke:none" d="M 17.5625 -34.96875 C 22.320312 -34.96875 25.96875 -33.507812 28.5 -30.59375 C 31.039062 -27.675781 32.3125 -23.476562 32.3125 -18 C 32.3125 -12.09375 30.960938 -7.539062 28.265625 -4.34375 C 25.566406 -1.15625 21.710938 0.4375 16.703125 0.4375 C 12.015625 0.4375 8.398438 -1.070312 5.859375 -4.09375 C 3.316406 -7.125 2.046875 -11.4375 2.046875 -17.03125 C 2.046875 -22.789062 3.390625 -27.21875 6.078125 -30.3125 C 8.765625 -33.414062 12.59375 -34.96875 17.5625 -34.96875 Z M 17.296875 -31.453125 C 10.085938 -31.453125 6.484375 -26.804688 6.484375 -17.515625 C 6.484375 -12.578125 7.359375 -8.914062 9.109375 -6.53125 C 10.859375 -4.15625 13.5 -2.96875 17.03125 -2.96875 C 24.226562 -2.96875 27.828125 -7.707031 27.828125 -17.1875 C 27.828125 -22.007812 26.953125 -25.59375 25.203125 -27.9375 C 23.460938 -30.28125 20.828125 -31.453125 17.296875 -31.453125 Z M 17.296875 -31.453125 "/></g></g><g style="fill:#1e1e24;fill-opacity:1;"><g transform="translate(138.940199, 321.0867)"><path style="stroke:none" d="M 22.328125 -3.25 L 21.9375 0 L 4.859375 0 L 5.140625 -10.4375 L 4.859375 -34.640625 L 9.296875 -34.640625 L 9.03125 -10.8125 L 9.1875 -3.625 L 22 -3.625 Z M 22.328125 -3.25 "/></g></g><g style="fill:#1e1e24;fill-opacity:1;"><g transform="translate(162.821486, 321.0867)"><path style="stroke:none" d="M 9.1875 -10.8125 L 9.40625 0 L 5.03125 0 L 5.296875 -10.4375 L 5.03125 -34.640625 L 9.453125 -34.640625 Z M 13.234375 -46.59375 L 14.3125 -44.046875 L 14.21875 -43.609375 C 10.789062 -42.023438 7.257812 -40.476562 3.625 -38.96875 L 3.125 -39.1875 L 2.375 -41.125 C 6.15625 -43 9.597656 -44.859375 12.703125 -46.703125 Z M 13.234375 -46.59375 "/></g></g><g style="fill:#1e1e24;fill-opacity:1;"><g transform="translate(178.706545, 321.0867)"><path style="stroke:none" d="M 14.4375 -34.921875 C 16.914062 -34.921875 19.488281 -34.378906 22.15625 -33.296875 L 21.453125 -29.125 L 20.703125 -28.921875 C 19.648438 -29.710938 18.539062 -30.320312 17.375 -30.75 C 16.207031 -31.1875 15.046875 -31.40625 13.890625 -31.40625 C 12.554688 -31.40625 11.394531 -31.132812 10.40625 -30.59375 C 9.414062 -30.050781 8.65625 -29.347656 8.125 -28.484375 C 7.601562 -27.617188 7.34375 -26.71875 7.34375 -25.78125 C 7.34375 -24.8125 7.640625 -23.957031 8.234375 -23.21875 C 8.835938 -22.476562 9.585938 -21.835938 10.484375 -21.296875 C 11.390625 -20.753906 12.613281 -20.101562 14.15625 -19.34375 C 16.101562 -18.445312 17.671875 -17.609375 18.859375 -16.828125 C 20.046875 -16.054688 21.0625 -15.078125 21.90625 -13.890625 C 22.757812 -12.703125 23.1875 -11.257812 23.1875 -9.5625 C 23.1875 -7.757812 22.695312 -6.101562 21.71875 -4.59375 C 20.75 -3.082031 19.378906 -1.875 17.609375 -0.96875 C 15.847656 -0.0703125 13.832031 0.375 11.5625 0.375 C 10.050781 0.375 8.472656 0.171875 6.828125 -0.234375 C 5.191406 -0.648438 3.671875 -1.253906 2.265625 -2.046875 L 2.8125 -6.484375 L 3.40625 -6.75 C 4.664062 -5.53125 6.0625 -4.625 7.59375 -4.03125 C 9.125 -3.4375 10.59375 -3.140625 12 -3.140625 C 13.363281 -3.140625 14.578125 -3.40625 15.640625 -3.9375 C 16.703125 -4.476562 17.515625 -5.195312 18.078125 -6.09375 C 18.640625 -7 18.921875 -7.957031 18.921875 -8.96875 C 18.921875 -10.476562 18.34375 -11.691406 17.1875 -12.609375 C 16.03125 -13.535156 14.28125 -14.539062 11.9375 -15.625 C 10.03125 -16.5625 8.5 -17.394531 7.34375 -18.125 C 6.195312 -18.863281 5.207031 -19.816406 4.375 -20.984375 C 3.550781 -22.160156 3.140625 -23.597656 3.140625 -25.296875 C 3.140625 -27.054688 3.613281 -28.675781 4.5625 -30.15625 C 5.519531 -31.632812 6.851562 -32.796875 8.5625 -33.640625 C 10.28125 -34.492188 12.238281 -34.921875 14.4375 -34.921875 Z M 14.4375 -34.921875 "/></g></g><g style="fill:#1e1e24;fill-opacity:1;"><g transform="translate(205.613394, 321.0867)"><path style="stroke:none" d="M 25.34375 -34.21875 L 25.03125 -30.859375 L 18.96875 -31.1875 L 15.453125 -31.1875 L 15.296875 -10.8125 L 15.453125 0 L 11.078125 0 L 11.40625 -10.4375 L 11.140625 -31.1875 L 7.625 -31.1875 L 1.453125 -30.859375 L 1.1875 -31.296875 L 1.515625 -34.640625 L 25.03125 -34.640625 Z M 25.34375 -34.21875 "/></g></g><g style="fill:#1e1e24;fill-opacity:1;"><g transform="translate(233.492753, 321.0867)"><path style="stroke:none" d="M 9.1875 -10.8125 L 9.40625 0 L 5.03125 0 L 5.296875 -10.4375 L 5.03125 -34.640625 L 9.453125 -34.640625 Z M 9.1875 -10.8125 "/></g></g><g style="fill:#1e1e24;fill-opacity:1;"><g transform="translate(249.377809, 321.0867)"><path style="stroke:none" d="M 17.40625 -34.921875 C 21.039062 -34.921875 24.191406 -34.050781 26.859375 -32.3125 L 26 -28.375 L 25.515625 -28.265625 C 23.097656 -30.285156 20.320312 -31.296875 17.1875 -31.296875 C 13.757812 -31.296875 11.128906 -30.113281 9.296875 -27.75 C 7.460938 -25.394531 6.546875 -21.945312 6.546875 -17.40625 C 6.546875 -12.832031 7.460938 -9.335938 9.296875 -6.921875 C 11.128906 -4.503906 13.722656 -3.296875 17.078125 -3.296875 C 18.660156 -3.296875 20.234375 -3.582031 21.796875 -4.15625 C 23.367188 -4.738281 24.804688 -5.550781 26.109375 -6.59375 L 26.640625 -6.328125 L 26.265625 -2.21875 C 23.128906 -0.488281 19.941406 0.375 16.703125 0.375 C 12.054688 0.375 8.453125 -1.125 5.890625 -4.125 C 3.328125 -7.132812 2.046875 -11.4375 2.046875 -17.03125 C 2.046875 -22.757812 3.378906 -27.171875 6.046875 -30.265625 C 8.710938 -33.367188 12.5 -34.921875 17.40625 -34.921875 Z M 17.40625 -34.921875 "/></g></g><g style="fill:#1e1e24;fill-opacity:1;"><g transform="translate(278.878031, 321.0867)"><path style="stroke:none" d="M 30.046875 0 L 25.625 0 L 24.8125 -3.453125 L 22.859375 -9.40625 L 15.078125 -9.5625 L 8.046875 -9.40625 L 5.9375 -3.671875 L 5.078125 0 L 0.75 0 L 13.453125 -34.640625 L 18.484375 -34.640625 Z M 21.671875 -13.078125 L 16.046875 -30.15625 L 15.671875 -30.15625 L 9.40625 -13.078125 L 15.453125 -12.96875 Z M 21.671875 -13.078125 "/></g></g><g style="fill:#1e1e24;fill-opacity:1;"><g transform="translate(90.781121, 57.144262)"><path style="stroke:none" d="M 24.640625 -33.265625 L 24.328125 -30 L 18.4375 -30.3125 L 15.03125 -30.3125 L 14.875 -10.515625 L 15.03125 0 L 10.765625 0 L 11.09375 -10.140625 L 10.828125 -30.3125 L 7.40625 -30.3125 L 1.421875 -30 L 1.15625 -30.421875 L 1.46875 -33.6875 L 24.328125 -33.6875 Z M 24.640625 -33.265625 "/></g></g><g style="fill:#1e1e24;fill-opacity:1;"><g transform="translate(118.365433, 57.144262)"><path style="stroke:none" d="M 24.125 -3.265625 L 23.796875 0 L 4.890625 0 L 5.15625 -10.140625 L 4.890625 -33.6875 L 23.859375 -33.6875 L 24.0625 -33.265625 L 23.75 -30 L 15.8125 -30.15625 L 9.140625 -30.0625 L 9.03125 -19.015625 L 15.34375 -18.921875 L 20.90625 -19.078125 L 21.234375 -18.703125 L 20.859375 -15.453125 L 14.96875 -15.546875 L 8.984375 -15.5 L 8.9375 -10.515625 L 9.09375 -3.515625 L 15.765625 -3.46875 L 23.859375 -3.671875 Z M 24.125 -3.265625 "/></g></g><g style="fill:#1e1e24;fill-opacity:1;"><g transform="translate(145.529413, 57.144262)"><path style="stroke:none" d="M 18.609375 -13.609375 C 20.910156 -9.785156 23.816406 -5.582031 27.328125 -1 L 27.265625 -0.46875 C 26.003906 0.0195312 24.710938 0.332031 23.390625 0.46875 L 22.8125 0.109375 C 19.9375 -4.203125 17.359375 -8.40625 15.078125 -12.5 L 8.9375 -12.5 L 8.9375 -10.515625 L 9.140625 0 L 4.890625 0 L 5.15625 -10.140625 L 4.890625 -33.6875 L 15.1875 -33.734375 C 18.476562 -33.734375 21.023438 -32.898438 22.828125 -31.234375 C 24.628906 -29.578125 25.53125 -27.207031 25.53125 -24.125 C 25.53125 -21.8125 24.925781 -19.734375 23.71875 -17.890625 C 22.507812 -16.054688 20.804688 -14.628906 18.609375 -13.609375 Z M 8.984375 -16.078125 L 15.296875 -15.921875 C 19.210938 -17.046875 21.171875 -19.65625 21.171875 -23.75 C 21.171875 -25.882812 20.59375 -27.484375 19.4375 -28.546875 C 18.28125 -29.617188 16.546875 -30.191406 14.234375 -30.265625 L 9.140625 -30.109375 Z M 8.984375 -16.078125 "/></g></g><g style="fill:#1e1e24;fill-opacity:1;"><g transform="translate(176.528928, 57.144262)"><path style="stroke:none" d="M 29.21875 0 L 24.90625 0 L 24.125 -3.359375 L 22.234375 -9.140625 L 14.65625 -9.296875 L 7.828125 -9.140625 L 5.78125 -3.578125 L 4.9375 0 L 0.734375 0 L 13.078125 -33.6875 L 17.96875 -33.6875 Z M 21.078125 -12.71875 L 15.609375 -29.328125 L 15.234375 -29.328125 L 9.140625 -12.71875 L 15.03125 -12.609375 Z M 21.078125 -12.71875 "/></g></g><g style="fill:#1e1e24;fill-opacity:1;"><g transform="translate(208.736897, 57.144262)"><path style="stroke:none" d="M 15.1875 -33.734375 C 18.476562 -33.734375 21.015625 -32.882812 22.796875 -31.1875 C 24.585938 -29.488281 25.484375 -27.046875 25.484375 -23.859375 C 25.484375 -20.109375 24.367188 -17.164062 22.140625 -15.03125 C 19.921875 -12.894531 16.847656 -11.828125 12.921875 -11.828125 L 8.9375 -11.828125 L 8.9375 -10.515625 L 9.140625 0 L 4.890625 0 L 5.15625 -10.140625 L 4.890625 -33.6875 Z M 14.5 -15.234375 C 16.675781 -15.585938 18.332031 -16.460938 19.46875 -17.859375 C 20.601562 -19.265625 21.171875 -21.140625 21.171875 -23.484375 C 21.171875 -27.828125 18.859375 -30.085938 14.234375 -30.265625 L 9.140625 -30.109375 L 8.984375 -15.34375 Z M 14.5 -15.234375 "/></g></g><g style="fill:#1e1e24;fill-opacity:1;"><g transform="translate(237.897452, 57.144262)"><path style="stroke:none" d="M 8.9375 -10.515625 L 9.140625 0 L 4.890625 0 L 5.15625 -10.140625 L 4.890625 -33.6875 L 9.203125 -33.6875 Z M 8.9375 -10.515625 "/></g></g><g style="fill:#1e1e24;fill-opacity:1;"><g transform="translate(253.817542, 57.144262)"><path style="stroke:none" d="M 29.21875 0 L 24.90625 0 L 24.125 -3.359375 L 22.234375 -9.140625 L 14.65625 -9.296875 L 7.828125 -9.140625 L 5.78125 -3.578125 L 4.9375 0 L 0.734375 0 L 13.078125 -33.6875 L 17.96875 -33.6875 Z M 21.078125 -12.71875 L 15.609375 -29.328125 L 15.234375 -29.328125 L 9.140625 -12.71875 L 15.03125 -12.609375 Z M 21.078125 -12.71875 "/></g></g><g style="fill:#1e1e24;fill-opacity:1;"><g transform="translate(68.850243, 362.586624)"><path style="stroke:none" d="M 4.265625 -10.3125 C 4.992188 -10.3125 5.753906 -10.15625 6.546875 -9.84375 L 6.34375 -8.609375 L 6.109375 -8.546875 C 5.804688 -8.773438 5.476562 -8.953125 5.125 -9.078125 C 4.78125 -9.210938 4.441406 -9.28125 4.109375 -9.28125 C 3.710938 -9.28125 3.367188 -9.195312 3.078125 -9.03125 C 2.785156 -8.875 2.5625 -8.664062 2.40625 -8.40625 C 2.25 -8.15625 2.171875 -7.890625 2.171875 -7.609375 C 2.171875 -7.328125 2.257812 -7.078125 2.4375 -6.859375 C 2.613281 -6.640625 2.832031 -6.445312 3.09375 -6.28125 C 3.363281 -6.125 3.726562 -5.9375 4.1875 -5.71875 C 4.757812 -5.445312 5.21875 -5.195312 5.5625 -4.96875 C 5.914062 -4.738281 6.21875 -4.445312 6.46875 -4.09375 C 6.71875 -3.75 6.84375 -3.328125 6.84375 -2.828125 C 6.84375 -2.296875 6.695312 -1.804688 6.40625 -1.359375 C 6.125 -0.910156 5.722656 -0.550781 5.203125 -0.28125 C 4.679688 -0.0195312 4.085938 0.109375 3.421875 0.109375 C 2.972656 0.109375 2.503906 0.0507812 2.015625 -0.0625 C 1.535156 -0.1875 1.085938 -0.367188 0.671875 -0.609375 L 0.828125 -1.921875 L 1 -2 C 1.375 -1.632812 1.785156 -1.363281 2.234375 -1.1875 C 2.691406 -1.007812 3.128906 -0.921875 3.546875 -0.921875 C 3.953125 -0.921875 4.3125 -1 4.625 -1.15625 C 4.9375 -1.320312 5.175781 -1.535156 5.34375 -1.796875 C 5.507812 -2.066406 5.59375 -2.351562 5.59375 -2.65625 C 5.59375 -3.101562 5.421875 -3.460938 5.078125 -3.734375 C 4.734375 -4.003906 4.21875 -4.296875 3.53125 -4.609375 C 2.96875 -4.890625 2.515625 -5.140625 2.171875 -5.359375 C 1.828125 -5.578125 1.53125 -5.859375 1.28125 -6.203125 C 1.039062 -6.546875 0.921875 -6.96875 0.921875 -7.46875 C 0.921875 -7.988281 1.0625 -8.46875 1.34375 -8.90625 C 1.625 -9.34375 2.019531 -9.6875 2.53125 -9.9375 C 3.039062 -10.1875 3.617188 -10.3125 4.265625 -10.3125 Z M 4.265625 -10.3125 "/></g></g><g style="fill:#1e1e24;fill-opacity:1;"><g transform="translate(84.442665, 362.586624)"><path style="stroke:none" d="M 7.328125 -0.984375 L 7.234375 0 L 1.484375 0 L 1.5625 -3.078125 L 1.484375 -10.234375 L 7.25 -10.234375 L 7.3125 -10.109375 L 7.21875 -9.125 L 4.8125 -9.171875 L 2.78125 -9.140625 L 2.75 -5.78125 L 4.65625 -5.75 L 6.359375 -5.796875 L 6.453125 -5.6875 L 6.34375 -4.6875 L 4.546875 -4.734375 L 2.734375 -4.703125 L 2.71875 -3.1875 L 2.765625 -1.0625 L 4.796875 -1.046875 L 7.25 -1.125 Z M 7.328125 -0.984375 "/></g></g><g style="fill:#1e1e24;fill-opacity:1;"><g transform="translate(100.194835, 362.586624)"><path style="stroke:none" d="M 5.78125 -5.328125 C 7.226562 -5.046875 7.953125 -4.222656 7.953125 -2.859375 C 7.953125 -1.890625 7.597656 -1.160156 6.890625 -0.671875 C 6.191406 -0.179688 5.144531 0.0625 3.75 0.0625 C 2.8125 0.0625 2.0625 0.0390625 1.5 0 L 1.484375 0 L 1.5625 -3.078125 L 1.484375 -10.234375 L 4.328125 -10.25 C 5.285156 -10.25 6.019531 -10.035156 6.53125 -9.609375 C 7.050781 -9.179688 7.3125 -8.566406 7.3125 -7.765625 C 7.3125 -7.191406 7.175781 -6.695312 6.90625 -6.28125 C 6.644531 -5.863281 6.269531 -5.546875 5.78125 -5.328125 Z M 6 -7.609375 C 6 -8.171875 5.847656 -8.578125 5.546875 -8.828125 C 5.242188 -9.078125 4.753906 -9.203125 4.078125 -9.203125 L 2.78125 -9.203125 L 2.75 -5.765625 L 4.5 -5.71875 C 5.5 -5.945312 6 -6.578125 6 -7.609375 Z M 3.9375 -1 C 4.8125 -1 5.484375 -1.164062 5.953125 -1.5 C 6.421875 -1.832031 6.65625 -2.304688 6.65625 -2.921875 C 6.65625 -3.960938 6 -4.554688 4.6875 -4.703125 L 2.734375 -4.6875 L 2.71875 -3.1875 L 2.765625 -1.046875 C 3.179688 -1.015625 3.570312 -1 3.9375 -1 Z M 3.9375 -1 "/></g></g><g style="fill:#1e1e24;fill-opacity:1;"><g transform="translate(116.825592, 362.586624)"><path style="stroke:none" d="M 8.875 0 L 7.5625 0 L 7.328125 -1.015625 L 6.75 -2.78125 L 4.453125 -2.828125 L 2.375 -2.78125 L 1.75 -1.078125 L 1.5 0 L 0.21875 0 L 3.96875 -10.234375 L 5.46875 -10.234375 Z M 6.40625 -3.859375 L 4.75 -8.90625 L 4.625 -8.90625 L 2.78125 -3.859375 L 4.5625 -3.828125 Z M 6.40625 -3.859375 "/></g></g><g style="fill:#1e1e24;fill-opacity:1;"><g transform="translate(134.111299, 362.586624)"><path style="stroke:none" d="M 4.265625 -10.3125 C 4.992188 -10.3125 5.753906 -10.15625 6.546875 -9.84375 L 6.34375 -8.609375 L 6.109375 -8.546875 C 5.804688 -8.773438 5.476562 -8.953125 5.125 -9.078125 C 4.78125 -9.210938 4.441406 -9.28125 4.109375 -9.28125 C 3.710938 -9.28125 3.367188 -9.195312 3.078125 -9.03125 C 2.785156 -8.875 2.5625 -8.664062 2.40625 -8.40625 C 2.25 -8.15625 2.171875 -7.890625 2.171875 -7.609375 C 2.171875 -7.328125 2.257812 -7.078125 2.4375 -6.859375 C 2.613281 -6.640625 2.832031 -6.445312 3.09375 -6.28125 C 3.363281 -6.125 3.726562 -5.9375 4.1875 -5.71875 C 4.757812 -5.445312 5.21875 -5.195312 5.5625 -4.96875 C 5.914062 -4.738281 6.21875 -4.445312 6.46875 -4.09375 C 6.71875 -3.75 6.84375 -3.328125 6.84375 -2.828125 C 6.84375 -2.296875 6.695312 -1.804688 6.40625 -1.359375 C 6.125 -0.910156 5.722656 -0.550781 5.203125 -0.28125 C 4.679688 -0.0195312 4.085938 0.109375 3.421875 0.109375 C 2.972656 0.109375 2.503906 0.0507812 2.015625 -0.0625 C 1.535156 -0.1875 1.085938 -0.367188 0.671875 -0.609375 L 0.828125 -1.921875 L 1 -2 C 1.375 -1.632812 1.785156 -1.363281 2.234375 -1.1875 C 2.691406 -1.007812 3.128906 -0.921875 3.546875 -0.921875 C 3.953125 -0.921875 4.3125 -1 4.625 -1.15625 C 4.9375 -1.320312 5.175781 -1.535156 5.34375 -1.796875 C 5.507812 -2.066406 5.59375 -2.351562 5.59375 -2.65625 C 5.59375 -3.101562 5.421875 -3.460938 5.078125 -3.734375 C 4.734375 -4.003906 4.21875 -4.296875 3.53125 -4.609375 C 2.96875 -4.890625 2.515625 -5.140625 2.171875 -5.359375 C 1.828125 -5.578125 1.53125 -5.859375 1.28125 -6.203125 C 1.039062 -6.546875 0.921875 -6.96875 0.921875 -7.46875 C 0.921875 -7.988281 1.0625 -8.46875 1.34375 -8.90625 C 1.625 -9.34375 2.019531 -9.6875 2.53125 -9.9375 C 3.039062 -10.1875 3.617188 -10.3125 4.265625 -10.3125 Z M 4.265625 -10.3125 "/></g></g><g style="fill:#1e1e24;fill-opacity:1;"><g transform="translate(149.448112, 362.586624)"><path style="stroke:none" d="M 7.484375 -10.109375 L 7.390625 -9.125 L 5.609375 -9.21875 L 4.5625 -9.21875 L 4.515625 -3.1875 L 4.5625 0 L 3.28125 0 L 3.375 -3.078125 L 3.296875 -9.21875 L 2.25 -9.21875 L 0.4375 -9.125 L 0.34375 -9.25 L 0.453125 -10.234375 L 7.390625 -10.234375 Z M 7.484375 -10.109375 "/></g></g><g style="fill:#1e1e24;fill-opacity:1;"><g transform="translate(165.328075, 362.586624)"><path style="stroke:none" d="M 2.71875 -3.1875 L 2.78125 0 L 1.484375 0 L 1.5625 -3.078125 L 1.484375 -10.234375 L 2.796875 -10.234375 Z M 2.71875 -3.1875 "/></g></g><g style="fill:#1e1e24;fill-opacity:1;"><g transform="translate(177.661727, 362.586624)"><path style="stroke:none" d="M 8.875 0 L 7.5625 0 L 7.328125 -1.015625 L 6.75 -2.78125 L 4.453125 -2.828125 L 2.375 -2.78125 L 1.75 -1.078125 L 1.5 0 L 0.21875 0 L 3.96875 -10.234375 L 5.46875 -10.234375 Z M 6.40625 -3.859375 L 4.75 -8.90625 L 4.625 -8.90625 L 2.78125 -3.859375 L 4.5625 -3.828125 Z M 6.40625 -13.765625 L 6.71875 -13.015625 L 6.6875 -12.890625 C 5.675781 -12.421875 4.632812 -11.960938 3.5625 -11.515625 L 3.421875 -11.578125 L 3.1875 -12.15625 C 4.3125 -12.707031 5.328125 -13.253906 6.234375 -13.796875 Z M 6.40625 -13.765625 "/></g></g><g style="fill:#1e1e24;fill-opacity:1;"><g transform="translate(194.947434, 362.586624)"><path style="stroke:none" d="M 9.34375 -3 L 9.375 0 L 8.03125 0 L 2.734375 -8.1875 L 2.65625 -8.1875 L 2.640625 -3.375 L 2.65625 0 L 1.5 0 L 1.546875 -3.03125 L 1.515625 -10.234375 L 2.84375 -10.234375 L 8.125 -2.046875 L 8.234375 -2.046875 L 8.21875 -10.171875 L 9.421875 -10.265625 Z M 9.34375 -3 "/></g></g><g style="fill:#1e1e24;fill-opacity:1;"><g transform="translate(213.910453, 362.586624)"><path style="stroke:none" d=""/></g></g><g style="fill:#1e1e24;fill-opacity:1;"><g transform="translate(224.59875, 362.586624)"><path style="stroke:none" d="M 5.1875 -10.296875 C 6.644531 -10.296875 7.757812 -9.878906 8.53125 -9.046875 C 9.3125 -8.222656 9.703125 -7.035156 9.703125 -5.484375 C 9.703125 -3.679688 9.28125 -2.300781 8.4375 -1.34375 C 7.601562 -0.382812 6.398438 0.09375 4.828125 0.09375 C 4.390625 0.09375 3.859375 0.0820312 3.234375 0.0625 C 2.609375 0.0507812 2.03125 0.03125 1.5 0 L 1.484375 0 L 1.5625 -3.078125 L 1.484375 -10.234375 L 1.5 -10.234375 Z M 5.03125 -0.96875 C 6.113281 -0.96875 6.945312 -1.320312 7.53125 -2.03125 C 8.113281 -2.738281 8.40625 -3.796875 8.40625 -5.203125 C 8.40625 -7.890625 7.300781 -9.234375 5.09375 -9.234375 C 4.425781 -9.234375 3.65625 -9.210938 2.78125 -9.171875 L 2.71875 -3.1875 L 2.765625 -1.0625 C 3.085938 -1.03125 3.476562 -1.003906 3.9375 -0.984375 C 4.40625 -0.972656 4.769531 -0.96875 5.03125 -0.96875 Z M 5.03125 -0.96875 "/></g></g><g style="fill:#1e1e24;fill-opacity:1;"><g transform="translate(242.970706, 362.586624)"><path style="stroke:none" d="M 8.796875 -5.03125 L 8.78125 -3.875 C 8.800781 -2.625 8.46875 -1.644531 7.78125 -0.9375 C 7.101562 -0.238281 6.140625 0.109375 4.890625 0.109375 C 3.679688 0.109375 2.753906 -0.222656 2.109375 -0.890625 C 1.472656 -1.566406 1.164062 -2.515625 1.1875 -3.734375 L 1.203125 -5.125 L 1.1875 -10.234375 L 2.4375 -10.234375 L 2.390625 -3.890625 C 2.378906 -2.929688 2.59375 -2.207031 3.03125 -1.71875 C 3.46875 -1.238281 4.117188 -1 4.984375 -1 C 5.847656 -1 6.5 -1.226562 6.9375 -1.6875 C 7.382812 -2.144531 7.601562 -2.828125 7.59375 -3.734375 L 7.53125 -10.234375 L 8.8125 -10.234375 Z M 8.796875 -5.03125 "/></g></g><g style="fill:#1e1e24;fill-opacity:1;"><g transform="translate(261.023181, 362.586624)"><path style="stroke:none" d="M 5.65625 -4.140625 C 6.351562 -2.972656 7.234375 -1.691406 8.296875 -0.296875 L 8.28125 -0.140625 C 7.90625 0.00390625 7.515625 0.0976562 7.109375 0.140625 L 6.9375 0.03125 C 6.0625 -1.28125 5.273438 -2.554688 4.578125 -3.796875 L 2.71875 -3.796875 L 2.71875 -3.1875 L 2.78125 0 L 1.484375 0 L 1.5625 -3.078125 L 1.484375 -10.234375 L 4.609375 -10.25 C 5.609375 -10.25 6.382812 -9.992188 6.9375 -9.484375 C 7.488281 -8.984375 7.765625 -8.265625 7.765625 -7.328125 C 7.765625 -6.628906 7.578125 -6 7.203125 -5.4375 C 6.835938 -4.875 6.320312 -4.441406 5.65625 -4.140625 Z M 2.734375 -4.890625 L 4.640625 -4.84375 C 5.835938 -5.175781 6.4375 -5.96875 6.4375 -7.21875 C 6.4375 -7.863281 6.257812 -8.347656 5.90625 -8.671875 C 5.550781 -9.003906 5.023438 -9.179688 4.328125 -9.203125 L 2.78125 -9.15625 Z M 2.734375 -4.890625 "/></g></g><g style="fill:#1e1e24;fill-opacity:1;"><g transform="translate(277.941487, 362.586624)"><path style="stroke:none" d="M 8.875 0 L 7.5625 0 L 7.328125 -1.015625 L 6.75 -2.78125 L 4.453125 -2.828125 L 2.375 -2.78125 L 1.75 -1.078125 L 1.5 0 L 0.21875 0 L 3.96875 -10.234375 L 5.46875 -10.234375 Z M 6.40625 -3.859375 L 4.75 -8.90625 L 4.625 -8.90625 L 2.78125 -3.859375 L 4.5625 -3.828125 Z M 6.40625 -13.765625 L 6.71875 -13.015625 L 6.6875 -12.890625 C 5.675781 -12.421875 4.632812 -11.960938 3.5625 -11.515625 L 3.421875 -11.578125 L 3.1875 -12.15625 C 4.3125 -12.707031 5.328125 -13.253906 6.234375 -13.796875 Z M 6.40625 -13.765625 "/></g></g><g style="fill:#1e1e24;fill-opacity:1;"><g transform="translate(295.227177, 362.586624)"><path style="stroke:none" d="M 9.34375 -3 L 9.375 0 L 8.03125 0 L 2.734375 -8.1875 L 2.65625 -8.1875 L 2.640625 -3.375 L 2.65625 0 L 1.5 0 L 1.546875 -3.03125 L 1.515625 -10.234375 L 2.84375 -10.234375 L 8.125 -2.046875 L 8.234375 -2.046875 L 8.21875 -10.171875 L 9.421875 -10.265625 Z M 9.34375 -3 "/></g></g></g></svg>