<svg xmlns="http://www.w3.org/2000/svg" xmlns:xlink="http://www.w3.org/1999/xlink" width="500" zoomAndPan="magnify" 
viewBox="0 0 375 374.999991" height="500" preserveAspectRatio="xMidYMid meet" version="1.2"><defs><clipPath id="d4a5ed73f8">
<path d="M 8.027344 132 L 367.277344 132 L 367.277344 306.949219 L 8.027344 306.949219 Z M 8.027344 132 "/>
</clipPath><clipPath id="d8c32daab7"><path d="M 110 67.699219 L 265 67.699219 L 265 135 L 110 135 Z M 110 67.699219 "/>
</clipPath></defs><g id="ac031b6e2e"><g clip-rule="nonzero" clip-path="url(#d4a5ed73f8)">
<path style=" stroke:none;fill-rule:nonzero;fill:#83a962;fill-opacity:1;" d="M 363.28125 176.855469 C 363.035156 177.003906 342.046875 189.871094 313.316406 196.839844 C 314.242188 193.695312 315.132812 190.542969 316.015625 187.40625 C 316.921875 184.195312 317.855469 180.875 318.808594 177.621094 C 328.964844 143.097656 344.1875 137.226562 344.320312 137.179688 L 356.09375 133.167969 L 343.660156 132.648438 C 342.660156 132.609375 318.945312 131.730469 291.222656 139.613281 C 254.292969 150.113281 228.285156 171.351562 216.015625 201.03125 C 203.667969 230.894531 205.890625 266.105469 206.347656 271.710938 C 206.542969 275.191406 207.175781 278.710938 208.230469 282.265625 C 194.582031 284.292969 180.6875 284.292969 167.046875 282.265625 C 168.09375 278.722656 168.726562 275.210938 168.921875 271.738281 C 169.367188 266.214844 171.621094 230.941406 159.253906 201.03125 C 146.984375 171.351562 120.976562 150.109375 84.046875 139.613281 C 56.324219 131.730469 32.605469 132.613281 31.609375 132.648438 L 19.820312 133.144531 L 30.933594 137.167969 C 31.085938 137.222656 46.3125 143.09375 56.464844 177.617188 C 57.421875 180.867188 58.355469 184.183594 59.257812 187.394531 C 60.144531 190.53125 61.03125 193.683594 61.957031 196.828125 C 33.230469 189.859375 12.238281 176.992188 11.996094 176.847656 L 8.015625 174.375 L 8.445312 179.03125 C 10.394531 200.351562 14.222656 218.40625 20.128906 234.226562 C 27.890625 255.011719 41.570312 272.863281 59.675781 285.84375 C 77.8125 298.847656 99.125 306.054688 121.320312 306.699219 C 122.320312 306.726562 123.300781 306.742188 124.265625 306.742188 C 145.367188 306.742188 159.453125 299.921875 165.355469 286.902344 C 172.6875 288.058594 180.136719 288.648438 187.636719 288.648438 C 195.136719 288.648438 202.582031 288.058594 209.914062 286.902344 C 215.816406 299.925781 229.90625 306.742188 251.003906 306.742188 C 251.972656 306.742188 252.953125 306.726562 253.949219 306.699219 C 276.144531 306.058594 297.457031 298.847656 315.59375 285.84375 C 333.699219 272.863281 347.375 255.011719 355.140625 234.226562 C 361.046875 218.40625 364.875 200.355469 366.824219 179.03125 L 367.253906 174.375 Z M 97.273438 250.300781 L 96.328125 249.472656 C 81.480469 236.398438 74.265625 220.382812 68.742188 203.085938 C 70.90625 203.503906 73.101562 203.886719 75.335938 204.226562 C 105.800781 208.824219 143.179688 224.195312 158.007812 248.175781 C 164.519531 258.710938 165.996094 269.921875 162.414062 281.5 C 138.886719 277.1875 116.296875 266.789062 97.273438 250.300781 Z M 63.757812 186.144531 C 62.851562 182.921875 61.910156 179.585938 60.949219 176.3125 C 54.332031 153.828125 45.558594 142.703125 39.5 137.371094 C 48.703125 137.703125 65.105469 139.054688 82.898438 144.128906 C 118.84375 154.378906 143.085938 174.121094 154.949219 202.8125 C 161.53125 218.730469 163.796875 236.59375 164.441406 250.183594 C 163.707031 248.6875 162.886719 247.203125 161.976562 245.722656 C 146.363281 220.480469 107.5625 204.378906 76.035156 199.621094 C 73.023438 199.167969 70.070312 198.625 67.175781 198.015625 C 66.007812 194.109375 64.882812 190.144531 63.757812 186.144531 Z M 121.457031 302.058594 C 77.847656 300.800781 39.792969 273.542969 24.503906 232.609375 C 19.160156 218.300781 15.5625 202.078125 13.539062 183.117188 C 21.371094 187.429688 39.949219 196.699219 63.519531 202 C 69.253906 220.476562 76.90625 238.574219 93.242188 252.960938 C 93.566406 253.242188 93.886719 253.527344 94.214844 253.8125 C 113.238281 270.304688 136.179688 281.351562 160.605469 286.066406 C 154.910156 297.269531 141.765625 302.648438 121.457031 302.058594 Z M 220.335938 202.8125 C 232.195312 174.121094 256.4375 154.382812 292.386719 144.128906 C 310.179688 139.054688 326.582031 137.703125 335.785156 137.371094 C 329.726562 142.703125 320.953125 153.828125 314.335938 176.3125 C 313.375 179.585938 312.4375 182.921875 311.527344 186.144531 C 310.402344 190.144531 309.285156 194.105469 308.109375 198.015625 C 305.21875 198.625 302.269531 199.167969 299.25 199.621094 C 267.722656 204.378906 228.921875 220.480469 213.308594 245.722656 C 212.398438 247.199219 211.574219 248.6875 210.84375 250.1875 C 211.488281 236.597656 213.753906 218.734375 220.335938 202.8125 Z M 217.285156 248.167969 C 232.109375 224.195312 269.484375 208.820312 299.949219 204.222656 C 302.183594 203.882812 304.378906 203.496094 306.542969 203.082031 C 301.019531 220.375 293.800781 236.390625 278.957031 249.46875 C 278.644531 249.742188 278.328125 250.015625 278.011719 250.296875 C 258.988281 266.789062 236.398438 277.179688 212.871094 281.492188 C 209.292969 269.914062 210.765625 258.707031 217.285156 248.167969 Z M 350.78125 232.609375 C 335.492188 273.539062 297.4375 300.800781 253.828125 302.058594 C 233.527344 302.640625 220.378906 297.265625 214.6875 286.066406 C 239.113281 281.351562 262.050781 270.304688 281.074219 253.808594 C 281.402344 253.523438 281.726562 253.242188 282.046875 252.957031 C 298.382812 238.574219 306.035156 220.472656 311.773438 201.992188 C 335.339844 196.691406 353.917969 187.429688 361.75 183.113281 C 359.722656 202.078125 356.121094 218.308594 350.78125 232.609375 Z M 350.78125 232.609375 "/></g><path style=" stroke:none;fill-rule:nonzero;fill:#83a962;fill-opacity:1;" d="M 200.410156 123.03125 C 193.488281 116.4375 189.980469 106.585938 189.980469 93.738281 L 185.3125 93.738281 C 185.3125 106.585938 181.804688 116.4375 174.882812 123.03125 C 166.644531 130.875 155.695312 131.949219 151.894531 132.074219 C 150.980469 132.054688 150.414062 132.074219 150.296875 132.085938 L 150.296875 136.730469 C 150.414062 136.734375 150.980469 136.761719 151.894531 136.742188 C 155.695312 136.867188 166.644531 137.941406 174.882812 145.785156 C 181.804688 152.378906 185.3125 162.230469 185.3125 175.078125 L 189.980469 175.078125 C 189.980469 162.230469 193.488281 152.378906 200.410156 145.785156 C 208.648438 137.941406 219.597656 136.867188 223.394531 136.742188 C 224.3125 136.761719 224.882812 136.742188 224.992188 136.730469 L 224.992188 132.085938 C 224.878906 132.078125 224.316406 132.054688 223.394531 132.074219 C 219.597656 131.941406 208.644531 130.871094 200.410156 123.03125 Z M 197.226562 142.371094 C 192.808594 146.5625 189.609375 151.851562 187.640625 158.171875 C 185.675781 151.847656 182.476562 146.5625 178.050781 142.371094 C 173.828125 138.363281 169.078125 135.90625 164.707031 134.402344 C 169.070312 132.898438 173.828125 130.441406 178.050781 126.4375 C 182.46875 122.242188 185.671875 116.953125 187.640625 110.632812 C 189.601562 116.957031 192.808594 122.242188 197.226562 126.4375 C 201.453125 130.441406 206.203125 132.898438 210.574219 134.402344 C 206.207031 135.90625 201.453125 138.363281 197.226562 142.371094 Z M 197.226562 142.371094 "/><g clip-rule="nonzero" clip-path="url(#d8c32daab7)"><path style=" stroke:none;fill-rule:nonzero;fill:#83a962;fill-opacity:1;" d="M 129.929688 103.621094 C 144.285156 82.980469 163.707031 72.515625 187.644531 72.515625 C 211.53125 72.515625 230.921875 82.941406 245.269531 103.5 C 256.09375 119.007812 259.839844 134.773438 259.871094 134.929688 L 264.417969 133.886719 C 264.261719 133.210938 260.480469 117.207031 249.1875 100.972656 C 234.121094 79.308594 212.839844 67.863281 187.640625 67.863281 C 162.441406 67.863281 141.160156 79.308594 126.09375 100.972656 C 114.800781 117.207031 111.015625 133.210938 110.863281 133.886719 L 115.410156 134.929688 C 115.453125 134.765625 119.144531 119.128906 129.929688 103.621094 Z M 129.929688 103.621094 "/></g></g></svg>