<svg xmlns="http://www.w3.org/2000/svg" xmlns:xlink="http://www.w3.org/1999/xlink" width="500" zoomAndPan="magnify" viewBox="0 0 375 374.999991" height="500" preserveAspectRatio="xMidYMid meet" version="1.2"><defs/><g id="3580b7285c"><g style="fill:#1e1e24;fill-opacity:1;"><g transform="translate(40.153175, 221.203651)"><path style="stroke:none" d="M 39.875 -13.609375 L 40.015625 0 L 34.640625 0 L 34.90625 -13.140625 L 34.84375 -19.671875 L 22.734375 -19.734375 L 11.640625 -19.671875 L 11.5625 -13.609375 L 11.765625 0 L 6.390625 0 L 6.59375 -13.140625 L 6.390625 -43.625 L 11.84375 -43.625 L 11.640625 -24.296875 L 23.203125 -24.21875 L 34.84375 -24.296875 L 34.640625 -43.625 L 40.140625 -43.625 Z M 39.875 -13.609375 "/></g></g><g style="fill:#1e1e24;fill-opacity:1;"><g transform="translate(86.690362, 221.203651)"><path style="stroke:none" d="M 22.109375 -44.03125 C 28.097656 -44.03125 32.691406 -42.191406 35.890625 -38.515625 C 39.085938 -34.835938 40.6875 -29.550781 40.6875 -22.65625 C 40.6875 -15.21875 38.984375 -9.488281 35.578125 -5.46875 C 32.179688 -1.457031 27.332031 0.546875 21.03125 0.546875 C 15.132812 0.546875 10.582031 -1.359375 7.375 -5.171875 C 4.175781 -8.984375 2.578125 -14.40625 2.578125 -21.4375 C 2.578125 -28.695312 4.265625 -34.273438 7.640625 -38.171875 C 11.023438 -42.078125 15.847656 -44.03125 22.109375 -44.03125 Z M 21.78125 -39.609375 C 12.707031 -39.609375 8.171875 -33.753906 8.171875 -22.046875 C 8.171875 -15.828125 9.269531 -11.222656 11.46875 -8.234375 C 13.664062 -5.242188 16.988281 -3.75 21.4375 -3.75 C 30.507812 -3.75 35.046875 -9.710938 35.046875 -21.640625 C 35.046875 -27.710938 33.941406 -32.222656 31.734375 -35.171875 C 29.535156 -38.128906 26.21875 -39.609375 21.78125 -39.609375 Z M 21.78125 -39.609375 "/></g></g><g style="fill:#1e1e24;fill-opacity:1;"><g transform="translate(129.893758, 221.203651)"><path style="stroke:none" d="M 28.109375 -4.078125 L 27.625 0 L 6.125 0 L 6.46875 -13.140625 L 6.125 -43.625 L 11.703125 -43.625 L 11.359375 -13.609375 L 11.5625 -4.5625 L 27.6875 -4.5625 Z M 28.109375 -4.078125 "/></g></g><g style="fill:#1e1e24;fill-opacity:1;"><g transform="translate(158.197057, 221.203651)"><path style="stroke:none" d="M 11.5625 -13.609375 L 11.84375 0 L 6.328125 0 L 6.671875 -13.140625 L 6.328125 -43.625 L 11.90625 -43.625 Z M 16.671875 -58.65625 L 18.03125 -55.453125 L 17.890625 -54.921875 C 13.585938 -52.921875 9.144531 -50.96875 4.5625 -49.0625 L 3.953125 -49.328125 L 3 -51.78125 C 7.757812 -54.144531 12.09375 -56.484375 16 -58.796875 Z M 16.671875 -58.65625 "/></g></g><g style="fill:#1e1e24;fill-opacity:1;"><g transform="translate(176.430945, 221.203651)"><path style="stroke:none" d="M 18.171875 -43.953125 C 21.296875 -43.953125 24.539062 -43.273438 27.90625 -41.921875 L 27.015625 -36.671875 L 26.0625 -36.40625 C 24.75 -37.40625 23.351562 -38.175781 21.875 -38.71875 C 20.40625 -39.257812 18.941406 -39.53125 17.484375 -39.53125 C 15.804688 -39.53125 14.34375 -39.191406 13.09375 -38.515625 C 11.851562 -37.835938 10.898438 -36.953125 10.234375 -35.859375 C 9.578125 -34.773438 9.25 -33.640625 9.25 -32.453125 C 9.25 -31.234375 9.625 -30.15625 10.375 -29.21875 C 11.125 -28.289062 12.066406 -27.488281 13.203125 -26.8125 C 14.335938 -26.132812 15.878906 -25.316406 17.828125 -24.359375 C 20.273438 -23.222656 22.25 -22.164062 23.75 -21.1875 C 25.25 -20.21875 26.53125 -18.984375 27.59375 -17.484375 C 28.65625 -15.992188 29.1875 -14.179688 29.1875 -12.046875 C 29.1875 -9.773438 28.570312 -7.6875 27.34375 -5.78125 C 26.125 -3.875 24.398438 -2.351562 22.171875 -1.21875 C 19.953125 -0.09375 17.414062 0.46875 14.5625 0.46875 C 12.65625 0.46875 10.671875 0.207031 8.609375 -0.3125 C 6.546875 -0.832031 4.628906 -1.585938 2.859375 -2.578125 L 3.53125 -8.171875 L 4.28125 -8.5 C 5.875 -6.957031 7.632812 -5.8125 9.5625 -5.0625 C 11.488281 -4.320312 13.335938 -3.953125 15.109375 -3.953125 C 16.828125 -3.953125 18.351562 -4.289062 19.6875 -4.96875 C 21.03125 -5.644531 22.050781 -6.550781 22.75 -7.6875 C 23.457031 -8.820312 23.8125 -10.023438 23.8125 -11.296875 C 23.8125 -13.203125 23.085938 -14.734375 21.640625 -15.890625 C 20.191406 -17.046875 17.988281 -18.304688 15.03125 -19.671875 C 12.632812 -20.847656 10.707031 -21.898438 9.25 -22.828125 C 7.800781 -23.753906 6.554688 -24.953125 5.515625 -26.421875 C 4.472656 -27.898438 3.953125 -29.707031 3.953125 -31.84375 C 3.953125 -34.070312 4.550781 -36.113281 5.75 -37.96875 C 6.945312 -39.832031 8.625 -41.296875 10.78125 -42.359375 C 12.9375 -43.421875 15.398438 -43.953125 18.171875 -43.953125 Z M 18.171875 -43.953125 "/></g></g><g style="fill:#1e1e24;fill-opacity:1;"><g transform="translate(208.544318, 221.203651)"><path style="stroke:none" d="M 31.90625 -43.078125 L 31.5 -38.859375 L 23.890625 -39.265625 L 19.46875 -39.265625 L 19.25 -13.609375 L 19.46875 0 L 13.953125 0 L 14.359375 -13.140625 L 14.015625 -39.265625 L 9.59375 -39.265625 L 1.84375 -38.859375 L 1.5 -39.40625 L 1.90625 -43.625 L 31.5 -43.625 Z M 31.90625 -43.078125 "/></g></g><g style="fill:#1e1e24;fill-opacity:1;"><g transform="translate(241.882358, 221.203651)"><path style="stroke:none" d="M 11.5625 -13.609375 L 11.84375 0 L 6.328125 0 L 6.671875 -13.140625 L 6.328125 -43.625 L 11.90625 -43.625 Z M 11.5625 -13.609375 "/></g></g><g style="fill:#1e1e24;fill-opacity:1;"><g transform="translate(260.116218, 221.203651)"><path style="stroke:none" d="M 21.90625 -43.953125 C 26.488281 -43.953125 30.457031 -42.863281 33.8125 -40.6875 L 32.734375 -35.71875 L 32.125 -35.59375 C 29.082031 -38.132812 25.585938 -39.40625 21.640625 -39.40625 C 17.328125 -39.40625 14.015625 -37.914062 11.703125 -34.9375 C 9.390625 -31.96875 8.234375 -27.625 8.234375 -21.90625 C 8.234375 -16.144531 9.390625 -11.742188 11.703125 -8.703125 C 14.015625 -5.671875 17.28125 -4.15625 21.5 -4.15625 C 23.5 -4.15625 25.484375 -4.515625 27.453125 -5.234375 C 29.429688 -5.960938 31.234375 -6.984375 32.859375 -8.296875 L 33.546875 -7.96875 L 33.078125 -2.796875 C 29.128906 -0.617188 25.113281 0.46875 21.03125 0.46875 C 15.175781 0.46875 10.632812 -1.421875 7.40625 -5.203125 C 4.1875 -8.992188 2.578125 -14.40625 2.578125 -21.4375 C 2.578125 -28.644531 4.253906 -34.195312 7.609375 -38.09375 C 10.972656 -42 15.738281 -43.953125 21.90625 -43.953125 Z M 21.90625 -43.953125 "/></g></g><g style="fill:#1e1e24;fill-opacity:1;"><g transform="translate(295.495415, 221.203651)"><path style="stroke:none" d="M 37.828125 0 L 32.25 0 L 31.234375 -4.359375 L 28.78125 -11.84375 L 18.984375 -12.046875 L 10.140625 -11.84375 L 7.484375 -4.625 L 6.390625 0 L 0.953125 0 L 16.9375 -43.625 L 23.265625 -43.625 Z M 27.28125 -16.46875 L 20.203125 -37.96875 L 19.734375 -37.96875 L 11.84375 -16.46875 L 19.46875 -16.328125 Z M 27.28125 -16.46875 "/></g></g><g style="fill:#1e1e24;fill-opacity:1;"><g transform="translate(41.119548, 159.019131)"><path style="stroke:none" d="M 32.671875 -44.09375 L 32.25 -39.78125 L 24.453125 -40.1875 L 19.921875 -40.1875 L 19.71875 -13.9375 L 19.921875 0 L 14.28125 0 L 14.703125 -13.4375 L 14.34375 -40.1875 L 9.828125 -40.1875 L 1.875 -39.78125 L 1.53125 -40.328125 L 1.953125 -44.65625 L 32.25 -44.65625 Z M 32.671875 -44.09375 "/></g></g><g style="fill:#1e1e24;fill-opacity:1;"><g transform="translate(83.738634, 159.019131)"><path style="stroke:none" d="M 31.96875 -4.3125 L 31.546875 0 L 6.484375 0 L 6.828125 -13.4375 L 6.484375 -44.65625 L 31.625 -44.65625 L 31.90625 -44.09375 L 31.484375 -39.78125 L 20.96875 -39.984375 L 12.125 -39.84375 L 11.984375 -25.21875 L 20.34375 -25.078125 L 27.71875 -25.28125 L 28.140625 -24.796875 L 27.65625 -20.484375 L 19.859375 -20.625 L 11.90625 -20.546875 L 11.84375 -13.9375 L 12.046875 -4.671875 L 20.890625 -4.59375 L 31.625 -4.875 Z M 31.96875 -4.3125 "/></g></g><g style="fill:#1e1e24;fill-opacity:1;"><g transform="translate(125.800684, 159.019131)"><path style="stroke:none" d="M 24.65625 -18.046875 C 27.71875 -12.984375 31.570312 -7.410156 36.21875 -1.328125 L 36.15625 -0.625 C 34.476562 0.0195312 32.757812 0.4375 31 0.625 L 30.234375 0.140625 C 26.421875 -5.566406 23.003906 -11.140625 19.984375 -16.578125 L 11.84375 -16.578125 L 11.84375 -13.9375 L 12.125 0 L 6.484375 0 L 6.828125 -13.4375 L 6.484375 -44.65625 L 20.125 -44.71875 C 24.488281 -44.71875 27.867188 -43.613281 30.265625 -41.40625 C 32.660156 -39.207031 33.859375 -36.0625 33.859375 -31.96875 C 33.859375 -28.90625 33.054688 -26.15625 31.453125 -23.71875 C 29.847656 -21.28125 27.582031 -19.390625 24.65625 -18.046875 Z M 11.90625 -21.3125 L 20.265625 -21.109375 C 25.472656 -22.585938 28.078125 -26.046875 28.078125 -31.484375 C 28.078125 -34.316406 27.304688 -36.441406 25.765625 -37.859375 C 24.234375 -39.273438 21.9375 -40.03125 18.875 -40.125 L 12.125 -39.90625 Z M 11.90625 -21.3125 "/></g></g><g style="fill:#1e1e24;fill-opacity:1;"><g transform="translate(172.94581, 159.019131)"><path style="stroke:none" d="M 38.734375 0 L 33.015625 0 L 31.96875 -4.453125 L 29.46875 -12.125 L 19.4375 -12.328125 L 10.375 -12.125 L 7.65625 -4.734375 L 6.546875 0 L 0.96875 0 L 17.34375 -44.65625 L 23.828125 -44.65625 Z M 27.9375 -16.859375 L 20.6875 -38.875 L 20.203125 -38.875 L 12.125 -16.859375 L 19.921875 -16.71875 Z M 27.9375 -16.859375 "/></g></g><g style="fill:#1e1e24;fill-opacity:1;"><g transform="translate(221.692469, 159.019131)"><path style="stroke:none" d="M 20.125 -44.71875 C 24.488281 -44.71875 27.851562 -43.59375 30.21875 -41.34375 C 32.59375 -39.09375 33.78125 -35.851562 33.78125 -31.625 C 33.78125 -26.65625 32.304688 -22.753906 29.359375 -19.921875 C 26.410156 -17.085938 22.335938 -15.671875 17.140625 -15.671875 L 11.84375 -15.671875 L 11.84375 -13.9375 L 12.125 0 L 6.484375 0 L 6.828125 -13.4375 L 6.484375 -44.65625 Z M 19.21875 -20.203125 C 22.101562 -20.660156 24.300781 -21.816406 25.8125 -23.671875 C 27.320312 -25.535156 28.078125 -28.023438 28.078125 -31.140625 C 28.078125 -36.898438 25.007812 -39.894531 18.875 -40.125 L 12.125 -39.90625 L 11.90625 -20.34375 Z M 19.21875 -20.203125 "/></g></g><g style="fill:#1e1e24;fill-opacity:1;"><g transform="translate(266.400518, 159.019131)"><path style="stroke:none" d="M 11.84375 -13.9375 L 12.125 0 L 6.484375 0 L 6.828125 -13.4375 L 6.484375 -44.65625 L 12.1875 -44.65625 Z M 11.84375 -13.9375 "/></g></g><g style="fill:#1e1e24;fill-opacity:1;"><g transform="translate(293.561449, 159.019131)"><path style="stroke:none" d="M 38.734375 0 L 33.015625 0 L 31.96875 -4.453125 L 29.46875 -12.125 L 19.4375 -12.328125 L 10.375 -12.125 L 7.65625 -4.734375 L 6.546875 0 L 0.96875 0 L 17.34375 -44.65625 L 23.828125 -44.65625 Z M 27.9375 -16.859375 L 20.6875 -38.875 L 20.203125 -38.875 L 12.125 -16.859375 L 19.921875 -16.71875 Z M 27.9375 -16.859375 "/></g></g><g style="fill:#1e1e24;fill-opacity:1;"><g transform="translate(49.956369, 267.433147)"><path style="stroke:none" d="M 7.8125 -18.90625 C 9.15625 -18.90625 10.550781 -18.613281 12 -18.03125 L 11.625 -15.78125 L 11.203125 -15.65625 C 10.640625 -16.082031 10.039062 -16.410156 9.40625 -16.640625 C 8.769531 -16.878906 8.140625 -17 7.515625 -17 C 6.796875 -17 6.164062 -16.851562 5.625 -16.5625 C 5.09375 -16.269531 4.6875 -15.890625 4.40625 -15.421875 C 4.125 -14.953125 3.984375 -14.460938 3.984375 -13.953125 C 3.984375 -13.429688 4.144531 -12.96875 4.46875 -12.5625 C 4.789062 -12.164062 5.191406 -11.820312 5.671875 -11.53125 C 6.160156 -11.238281 6.828125 -10.890625 7.671875 -10.484375 C 8.722656 -9.992188 9.566406 -9.535156 10.203125 -9.109375 C 10.847656 -8.691406 11.398438 -8.160156 11.859375 -7.515625 C 12.328125 -6.878906 12.5625 -6.101562 12.5625 -5.1875 C 12.5625 -4.207031 12.296875 -3.304688 11.765625 -2.484375 C 11.234375 -1.671875 10.488281 -1.019531 9.53125 -0.53125 C 8.582031 -0.0390625 7.492188 0.203125 6.265625 0.203125 C 5.441406 0.203125 4.585938 0.09375 3.703125 -0.125 C 2.816406 -0.351562 1.992188 -0.679688 1.234375 -1.109375 L 1.515625 -3.515625 L 1.84375 -3.65625 C 2.53125 -2.988281 3.285156 -2.492188 4.109375 -2.171875 C 4.941406 -1.859375 5.738281 -1.703125 6.5 -1.703125 C 7.238281 -1.703125 7.894531 -1.847656 8.46875 -2.140625 C 9.039062 -2.429688 9.476562 -2.816406 9.78125 -3.296875 C 10.09375 -3.785156 10.25 -4.304688 10.25 -4.859375 C 10.25 -5.679688 9.9375 -6.335938 9.3125 -6.828125 C 8.6875 -7.328125 7.738281 -7.867188 6.46875 -8.453125 C 5.4375 -8.960938 4.609375 -9.414062 3.984375 -9.8125 C 3.359375 -10.21875 2.820312 -10.738281 2.375 -11.375 C 1.925781 -12.007812 1.703125 -12.785156 1.703125 -13.703125 C 1.703125 -14.648438 1.957031 -15.523438 2.46875 -16.328125 C 2.988281 -17.128906 3.710938 -17.757812 4.640625 -18.21875 C 5.566406 -18.675781 6.625 -18.90625 7.8125 -18.90625 Z M 7.8125 -18.90625 "/></g></g><g style="fill:#1e1e24;fill-opacity:1;"><g transform="translate(67.119223, 267.433147)"><path style="stroke:none" d="M 13.4375 -1.8125 L 13.25 0 L 2.71875 0 L 2.875 -5.640625 L 2.71875 -18.765625 L 13.28125 -18.765625 L 13.40625 -18.53125 L 13.234375 -16.703125 L 8.8125 -16.796875 L 5.09375 -16.734375 L 5.03125 -10.59375 L 8.546875 -10.53125 L 11.640625 -10.625 L 11.828125 -10.421875 L 11.625 -8.609375 L 8.34375 -8.65625 L 5 -8.640625 L 4.96875 -5.859375 L 5.0625 -1.953125 L 8.78125 -1.9375 L 13.28125 -2.046875 Z M 13.4375 -1.8125 "/></g></g><g style="fill:#1e1e24;fill-opacity:1;"><g transform="translate(84.574359, 267.433147)"><path style="stroke:none" d="M 10.59375 -9.78125 C 13.25 -9.25 14.578125 -7.734375 14.578125 -5.234375 C 14.578125 -3.460938 13.929688 -2.128906 12.640625 -1.234375 C 11.359375 -0.335938 9.4375 0.109375 6.875 0.109375 C 5.15625 0.109375 3.78125 0.0703125 2.75 0 L 2.71875 0 L 2.875 -5.640625 L 2.71875 -18.765625 L 7.9375 -18.78125 C 9.6875 -18.78125 11.035156 -18.390625 11.984375 -17.609375 C 12.929688 -16.835938 13.40625 -15.707031 13.40625 -14.21875 C 13.40625 -13.164062 13.160156 -12.257812 12.671875 -11.5 C 12.179688 -10.738281 11.488281 -10.164062 10.59375 -9.78125 Z M 11 -13.953125 C 11 -14.972656 10.71875 -15.710938 10.15625 -16.171875 C 9.601562 -16.628906 8.707031 -16.859375 7.46875 -16.859375 L 5.09375 -16.859375 L 5.03125 -10.5625 L 8.25 -10.484375 C 10.082031 -10.910156 11 -12.066406 11 -13.953125 Z M 7.234375 -1.84375 C 8.828125 -1.84375 10.050781 -2.144531 10.90625 -2.75 C 11.769531 -3.351562 12.203125 -4.222656 12.203125 -5.359375 C 12.203125 -7.265625 11.003906 -8.359375 8.609375 -8.640625 L 5 -8.609375 L 4.96875 -5.859375 L 5.0625 -1.9375 C 5.820312 -1.875 6.546875 -1.84375 7.234375 -1.84375 Z M 7.234375 -1.84375 "/></g></g><g style="fill:#1e1e24;fill-opacity:1;"><g transform="translate(103.637148, 267.433147)"><path style="stroke:none" d="M 16.265625 0 L 13.875 0 L 13.4375 -1.875 L 12.375 -5.09375 L 8.171875 -5.1875 L 4.359375 -5.09375 L 3.21875 -1.984375 L 2.75 0 L 0.40625 0 L 7.28125 -18.765625 L 10.015625 -18.765625 Z M 11.734375 -7.078125 L 8.6875 -16.328125 L 8.484375 -16.328125 L 5.09375 -7.078125 L 8.375 -7.03125 Z M 11.734375 -7.078125 "/></g></g><g style="fill:#1e1e24;fill-opacity:1;"><g transform="translate(123.898377, 267.433147)"><path style="stroke:none" d="M 7.8125 -18.90625 C 9.15625 -18.90625 10.550781 -18.613281 12 -18.03125 L 11.625 -15.78125 L 11.203125 -15.65625 C 10.640625 -16.082031 10.039062 -16.410156 9.40625 -16.640625 C 8.769531 -16.878906 8.140625 -17 7.515625 -17 C 6.796875 -17 6.164062 -16.851562 5.625 -16.5625 C 5.09375 -16.269531 4.6875 -15.890625 4.40625 -15.421875 C 4.125 -14.953125 3.984375 -14.460938 3.984375 -13.953125 C 3.984375 -13.429688 4.144531 -12.96875 4.46875 -12.5625 C 4.789062 -12.164062 5.191406 -11.820312 5.671875 -11.53125 C 6.160156 -11.238281 6.828125 -10.890625 7.671875 -10.484375 C 8.722656 -9.992188 9.566406 -9.535156 10.203125 -9.109375 C 10.847656 -8.691406 11.398438 -8.160156 11.859375 -7.515625 C 12.328125 -6.878906 12.5625 -6.101562 12.5625 -5.1875 C 12.5625 -4.207031 12.296875 -3.304688 11.765625 -2.484375 C 11.234375 -1.671875 10.488281 -1.019531 9.53125 -0.53125 C 8.582031 -0.0390625 7.492188 0.203125 6.265625 0.203125 C 5.441406 0.203125 4.585938 0.09375 3.703125 -0.125 C 2.816406 -0.351562 1.992188 -0.679688 1.234375 -1.109375 L 1.515625 -3.515625 L 1.84375 -3.65625 C 2.53125 -2.988281 3.285156 -2.492188 4.109375 -2.171875 C 4.941406 -1.859375 5.738281 -1.703125 6.5 -1.703125 C 7.238281 -1.703125 7.894531 -1.847656 8.46875 -2.140625 C 9.039062 -2.429688 9.476562 -2.816406 9.78125 -3.296875 C 10.09375 -3.785156 10.25 -4.304688 10.25 -4.859375 C 10.25 -5.679688 9.9375 -6.335938 9.3125 -6.828125 C 8.6875 -7.328125 7.738281 -7.867188 6.46875 -8.453125 C 5.4375 -8.960938 4.609375 -9.414062 3.984375 -9.8125 C 3.359375 -10.21875 2.820312 -10.738281 2.375 -11.375 C 1.925781 -12.007812 1.703125 -12.785156 1.703125 -13.703125 C 1.703125 -14.648438 1.957031 -15.523438 2.46875 -16.328125 C 2.988281 -17.128906 3.710938 -17.757812 4.640625 -18.21875 C 5.566406 -18.675781 6.625 -18.90625 7.8125 -18.90625 Z M 7.8125 -18.90625 "/></g></g><g style="fill:#1e1e24;fill-opacity:1;"><g transform="translate(140.593078, 267.433147)"><path style="stroke:none" d="M 13.71875 -18.53125 L 13.546875 -16.703125 L 10.265625 -16.890625 L 8.375 -16.890625 L 8.28125 -5.859375 L 8.375 0 L 6 0 L 6.171875 -5.640625 L 6.03125 -16.890625 L 4.125 -16.890625 L 0.796875 -16.703125 L 0.640625 -16.9375 L 0.8125 -18.765625 L 13.546875 -18.765625 Z M 13.71875 -18.53125 "/></g></g><g style="fill:#1e1e24;fill-opacity:1;"><g transform="translate(158.282081, 267.433147)"><path style="stroke:none" d="M 4.96875 -5.859375 L 5.09375 0 L 2.71875 0 L 2.875 -5.640625 L 2.71875 -18.765625 L 5.125 -18.765625 Z M 4.96875 -5.859375 "/></g></g><g style="fill:#1e1e24;fill-opacity:1;"><g transform="translate(169.481984, 267.433147)"><path style="stroke:none" d="M 16.265625 0 L 13.875 0 L 13.4375 -1.875 L 12.375 -5.09375 L 8.171875 -5.1875 L 4.359375 -5.09375 L 3.21875 -1.984375 L 2.75 0 L 0.40625 0 L 7.28125 -18.765625 L 10.015625 -18.765625 Z M 11.734375 -7.078125 L 8.6875 -16.328125 L 8.484375 -16.328125 L 5.09375 -7.078125 L 8.375 -7.03125 Z M 11.734375 -25.234375 L 12.328125 -23.859375 L 12.265625 -23.625 C 10.410156 -22.757812 8.5 -21.921875 6.53125 -21.109375 L 6.265625 -21.21875 L 5.859375 -22.28125 C 7.898438 -23.289062 9.757812 -24.296875 11.4375 -25.296875 Z M 11.734375 -25.234375 "/></g></g><g style="fill:#1e1e24;fill-opacity:1;"><g transform="translate(189.743212, 267.433147)"><path style="stroke:none" d="M 17.125 -5.5 L 17.171875 0 L 14.71875 0 L 5 -15.015625 L 4.859375 -15.015625 L 4.828125 -6.171875 L 4.859375 0 L 2.75 0 L 2.84375 -5.5625 L 2.78125 -18.765625 L 5.203125 -18.765625 L 14.890625 -3.75 L 15.09375 -3.75 L 15.078125 -18.640625 L 17.265625 -18.8125 Z M 17.125 -5.5 "/></g></g><g style="fill:#1e1e24;fill-opacity:1;"><g transform="translate(213.073607, 267.433147)"><path style="stroke:none" d=""/></g></g><g style="fill:#1e1e24;fill-opacity:1;"><g transform="translate(221.262793, 267.433147)"><path style="stroke:none" d="M 9.515625 -18.875 C 12.179688 -18.875 14.226562 -18.113281 15.65625 -16.59375 C 17.082031 -15.070312 17.796875 -12.882812 17.796875 -10.03125 C 17.796875 -6.738281 17.023438 -4.210938 15.484375 -2.453125 C 13.941406 -0.703125 11.726562 0.171875 8.84375 0.171875 C 8.039062 0.171875 7.066406 0.15625 5.921875 0.125 C 4.785156 0.101562 3.726562 0.0625 2.75 0 L 2.71875 0 L 2.875 -5.640625 L 2.71875 -18.765625 L 2.75 -18.765625 Z M 9.21875 -1.78125 C 11.207031 -1.78125 12.734375 -2.425781 13.796875 -3.71875 C 14.859375 -5.019531 15.390625 -6.960938 15.390625 -9.546875 C 15.390625 -14.460938 13.367188 -16.921875 9.328125 -16.921875 C 8.097656 -16.921875 6.6875 -16.878906 5.09375 -16.796875 L 4.96875 -5.859375 L 5.0625 -1.953125 C 5.664062 -1.898438 6.390625 -1.859375 7.234375 -1.828125 C 8.085938 -1.796875 8.75 -1.78125 9.21875 -1.78125 Z M 9.21875 -1.78125 "/></g></g><g style="fill:#1e1e24;fill-opacity:1;"><g transform="translate(243.511683, 267.433147)"><path style="stroke:none" d="M 16.125 -9.21875 L 16.09375 -7.109375 C 16.132812 -4.804688 15.53125 -3.007812 14.28125 -1.71875 C 13.03125 -0.4375 11.253906 0.203125 8.953125 0.203125 C 6.742188 0.203125 5.050781 -0.410156 3.875 -1.640625 C 2.695312 -2.867188 2.128906 -4.601562 2.171875 -6.84375 L 2.1875 -9.390625 L 2.171875 -18.765625 L 4.484375 -18.765625 L 4.390625 -7.140625 C 4.367188 -5.378906 4.757812 -4.054688 5.5625 -3.171875 C 6.363281 -2.285156 7.550781 -1.84375 9.125 -1.84375 C 10.707031 -1.84375 11.90625 -2.257812 12.71875 -3.09375 C 13.539062 -3.9375 13.945312 -5.1875 13.9375 -6.84375 L 13.8125 -18.765625 L 16.15625 -18.765625 Z M 16.125 -9.21875 "/></g></g><g style="fill:#1e1e24;fill-opacity:1;"><g transform="translate(265.175975, 267.433147)"><path style="stroke:none" d="M 10.359375 -7.578125 C 11.648438 -5.453125 13.269531 -3.113281 15.21875 -0.5625 L 15.1875 -0.265625 C 14.488281 0.00390625 13.765625 0.179688 13.015625 0.265625 L 12.703125 0.0625 C 11.097656 -2.34375 9.664062 -4.6875 8.40625 -6.96875 L 4.96875 -6.96875 L 4.96875 -5.859375 L 5.09375 0 L 2.71875 0 L 2.875 -5.640625 L 2.71875 -18.765625 L 8.453125 -18.78125 C 10.285156 -18.78125 11.703125 -18.316406 12.703125 -17.390625 C 13.710938 -16.472656 14.21875 -15.15625 14.21875 -13.4375 C 14.21875 -12.144531 13.878906 -10.984375 13.203125 -9.953125 C 12.535156 -8.929688 11.585938 -8.140625 10.359375 -7.578125 Z M 5 -8.953125 L 8.515625 -8.875 C 10.703125 -9.488281 11.796875 -10.941406 11.796875 -13.234375 C 11.796875 -14.421875 11.472656 -15.3125 10.828125 -15.90625 C 10.179688 -16.5 9.21875 -16.816406 7.9375 -16.859375 L 5.09375 -16.765625 Z M 5 -8.953125 "/></g></g><g style="fill:#1e1e24;fill-opacity:1;"><g transform="translate(284.764913, 267.433147)"><path style="stroke:none" d="M 16.265625 0 L 13.875 0 L 13.4375 -1.875 L 12.375 -5.09375 L 8.171875 -5.1875 L 4.359375 -5.09375 L 3.21875 -1.984375 L 2.75 0 L 0.40625 0 L 7.28125 -18.765625 L 10.015625 -18.765625 Z M 11.734375 -7.078125 L 8.6875 -16.328125 L 8.484375 -16.328125 L 5.09375 -7.078125 L 8.375 -7.03125 Z M 11.734375 -25.234375 L 12.328125 -23.859375 L 12.265625 -23.625 C 10.410156 -22.757812 8.5 -21.921875 6.53125 -21.109375 L 6.265625 -21.21875 L 5.859375 -22.28125 C 7.898438 -23.289062 9.757812 -24.296875 11.4375 -25.296875 Z M 11.734375 -25.234375 "/></g></g><g style="fill:#1e1e24;fill-opacity:1;"><g transform="translate(305.026141, 267.433147)"><path style="stroke:none" d="M 17.125 -5.5 L 17.171875 0 L 14.71875 0 L 5 -15.015625 L 4.859375 -15.015625 L 4.828125 -6.171875 L 4.859375 0 L 2.75 0 L 2.84375 -5.5625 L 2.78125 -18.765625 L 5.203125 -18.765625 L 14.890625 -3.75 L 15.09375 -3.75 L 15.078125 -18.640625 L 17.265625 -18.8125 Z M 17.125 -5.5 "/></g></g></g></svg>