<svg xmlns="http://www.w3.org/2000/svg" xmlns:xlink="http://www.w3.org/1999/xlink" width="400" zoomAndPan="magnify" viewBox="0 0 300 225" height="300" preserveAspectRatio="xMidYMid meet" version="1.2"><defs/><g id="43421bf3b7"><g style="fill:#ffffff;fill-opacity:1;"><g transform="translate(10.716836, 128.080655)"><path style="stroke:none" d="M 38.3125 -13.078125 L 38.4375 0 L 33.28125 0 L 33.53125 -12.625 L 33.46875 -18.890625 L 21.828125 -18.953125 L 11.171875 -18.890625 L 11.109375 -13.078125 L 11.3125 0 L 6.140625 0 L 6.34375 -12.625 L 6.140625 -41.90625 L 11.375 -41.90625 L 11.171875 -23.34375 L 22.296875 -23.28125 L 33.46875 -23.34375 L 33.28125 -41.90625 L 38.578125 -41.90625 Z M 38.3125 -13.078125 "/></g></g><g style="fill:#ffffff;fill-opacity:1;"><g transform="translate(55.425936, 128.080655)"><path style="stroke:none" d="M 21.25 -42.296875 C 27 -42.296875 31.410156 -40.53125 34.484375 -37 C 37.554688 -33.46875 39.09375 -28.390625 39.09375 -21.765625 C 39.09375 -14.617188 37.457031 -9.117188 34.1875 -5.265625 C 30.914062 -1.410156 26.253906 0.515625 20.203125 0.515625 C 14.535156 0.515625 10.164062 -1.3125 7.09375 -4.96875 C 4.019531 -8.625 2.484375 -13.832031 2.484375 -20.59375 C 2.484375 -27.5625 4.101562 -32.921875 7.34375 -36.671875 C 10.59375 -40.421875 15.226562 -42.296875 21.25 -42.296875 Z M 20.921875 -38.046875 C 12.203125 -38.046875 7.84375 -32.425781 7.84375 -21.1875 C 7.84375 -15.207031 8.898438 -10.78125 11.015625 -7.90625 C 13.128906 -5.03125 16.320312 -3.59375 20.59375 -3.59375 C 29.3125 -3.59375 33.671875 -9.328125 33.671875 -20.796875 C 33.671875 -26.628906 32.613281 -30.960938 30.5 -33.796875 C 28.382812 -36.628906 25.191406 -38.046875 20.921875 -38.046875 Z M 20.921875 -38.046875 "/></g></g><g style="fill:#ffffff;fill-opacity:1;"><g transform="translate(96.932194, 128.080655)"><path style="stroke:none" d="M 27 -3.921875 L 26.546875 0 L 5.890625 0 L 6.203125 -12.625 L 5.890625 -41.90625 L 11.25 -41.90625 L 10.921875 -13.078125 L 11.109375 -4.375 L 26.609375 -4.375 Z M 27 -3.921875 "/></g></g><g style="fill:#ffffff;fill-opacity:1;"><g transform="translate(124.123684, 128.080655)"><path style="stroke:none" d="M 11.109375 -13.078125 L 11.375 0 L 6.078125 0 L 6.40625 -12.625 L 6.078125 -41.90625 L 11.4375 -41.90625 Z M 16.015625 -56.359375 L 17.328125 -53.28125 L 17.1875 -52.765625 C 13.050781 -50.847656 8.78125 -48.972656 4.375 -47.140625 L 3.78125 -47.40625 L 2.875 -49.75 C 7.445312 -52.019531 11.609375 -54.265625 15.359375 -56.484375 Z M 16.015625 -56.359375 "/></g></g><g style="fill:#ffffff;fill-opacity:1;"><g transform="translate(141.641295, 128.080655)"><path style="stroke:none" d="M 17.453125 -42.234375 C 20.460938 -42.234375 23.578125 -41.578125 26.796875 -40.265625 L 25.953125 -35.234375 L 25.03125 -34.96875 C 23.769531 -35.925781 22.429688 -36.664062 21.015625 -37.1875 C 19.597656 -37.71875 18.191406 -37.984375 16.796875 -37.984375 C 15.179688 -37.984375 13.773438 -37.65625 12.578125 -37 C 11.378906 -36.34375 10.460938 -35.492188 9.828125 -34.453125 C 9.203125 -33.410156 8.890625 -32.320312 8.890625 -31.1875 C 8.890625 -30.007812 9.25 -28.972656 9.96875 -28.078125 C 10.6875 -27.179688 11.585938 -26.40625 12.671875 -25.75 C 13.765625 -25.101562 15.25 -24.320312 17.125 -23.40625 C 19.476562 -22.3125 21.375 -21.296875 22.8125 -20.359375 C 24.25 -19.421875 25.476562 -18.234375 26.5 -16.796875 C 27.53125 -15.359375 28.046875 -13.617188 28.046875 -11.578125 C 28.046875 -9.390625 27.457031 -7.378906 26.28125 -5.546875 C 25.101562 -3.722656 23.445312 -2.265625 21.3125 -1.171875 C 19.175781 -0.0859375 16.734375 0.453125 13.984375 0.453125 C 12.160156 0.453125 10.253906 0.203125 8.265625 -0.296875 C 6.285156 -0.796875 4.445312 -1.523438 2.75 -2.484375 L 3.40625 -7.84375 L 4.125 -8.171875 C 5.644531 -6.691406 7.332031 -5.59375 9.1875 -4.875 C 11.039062 -4.15625 12.816406 -3.796875 14.515625 -3.796875 C 16.171875 -3.796875 17.640625 -4.117188 18.921875 -4.765625 C 20.210938 -5.421875 21.191406 -6.289062 21.859375 -7.375 C 22.535156 -8.46875 22.875 -9.628906 22.875 -10.859375 C 22.875 -12.679688 22.175781 -14.148438 20.78125 -15.265625 C 19.394531 -16.378906 17.285156 -17.585938 14.453125 -18.890625 C 12.140625 -20.023438 10.285156 -21.039062 8.890625 -21.9375 C 7.492188 -22.832031 6.296875 -23.984375 5.296875 -25.390625 C 4.296875 -26.804688 3.796875 -28.539062 3.796875 -30.59375 C 3.796875 -32.726562 4.367188 -34.6875 5.515625 -36.46875 C 6.671875 -38.257812 8.285156 -39.664062 10.359375 -40.6875 C 12.429688 -41.71875 14.796875 -42.234375 17.453125 -42.234375 Z M 17.453125 -42.234375 "/></g></g><g style="fill:#ffffff;fill-opacity:1;"><g transform="translate(172.493174, 128.080655)"><path style="stroke:none" d="M 30.65625 -41.375 L 30.265625 -37.328125 L 22.953125 -37.71875 L 18.703125 -37.71875 L 18.5 -13.078125 L 18.703125 0 L 13.40625 0 L 13.796875 -12.625 L 13.46875 -37.71875 L 9.21875 -37.71875 L 1.765625 -37.328125 L 1.4375 -37.859375 L 1.828125 -41.90625 L 30.265625 -41.90625 Z M 30.65625 -41.375 "/></g></g><g style="fill:#ffffff;fill-opacity:1;"><g transform="translate(204.521631, 128.080655)"><path style="stroke:none" d="M 11.109375 -13.078125 L 11.375 0 L 6.078125 0 L 6.40625 -12.625 L 6.078125 -41.90625 L 11.4375 -41.90625 Z M 11.109375 -13.078125 "/></g></g><g style="fill:#ffffff;fill-opacity:1;"><g transform="translate(222.039242, 128.080655)"><path style="stroke:none" d="M 21.046875 -42.234375 C 25.453125 -42.234375 29.265625 -41.1875 32.484375 -39.09375 L 31.453125 -34.328125 L 30.859375 -34.1875 C 27.941406 -36.632812 24.585938 -37.859375 20.796875 -37.859375 C 16.648438 -37.859375 13.460938 -36.425781 11.234375 -33.5625 C 9.015625 -30.707031 7.90625 -26.535156 7.90625 -21.046875 C 7.90625 -15.515625 9.015625 -11.285156 11.234375 -8.359375 C 13.460938 -5.441406 16.601562 -3.984375 20.65625 -3.984375 C 22.570312 -3.984375 24.476562 -4.332031 26.375 -5.03125 C 28.269531 -5.726562 30.003906 -6.707031 31.578125 -7.96875 L 32.234375 -7.65625 L 31.765625 -2.6875 C 27.972656 -0.59375 24.117188 0.453125 20.203125 0.453125 C 14.578125 0.453125 10.21875 -1.363281 7.125 -5 C 4.03125 -8.632812 2.484375 -13.832031 2.484375 -20.59375 C 2.484375 -27.519531 4.09375 -32.859375 7.3125 -36.609375 C 10.539062 -40.359375 15.117188 -42.234375 21.046875 -42.234375 Z M 21.046875 -42.234375 "/></g></g><g style="fill:#ffffff;fill-opacity:1;"><g transform="translate(256.028595, 128.080655)"><path style="stroke:none" d="M 36.34375 0 L 30.984375 0 L 30 -4.1875 L 27.65625 -11.375 L 18.234375 -11.578125 L 9.734375 -11.375 L 7.1875 -4.453125 L 6.140625 0 L 0.921875 0 L 16.28125 -41.90625 L 22.359375 -41.90625 Z M 26.21875 -15.828125 L 19.421875 -36.484375 L 18.953125 -36.484375 L 11.375 -15.828125 L 18.703125 -15.6875 Z M 26.21875 -15.828125 "/></g></g><g style="fill:#ffffff;fill-opacity:1;"><g transform="translate(11.645248, 68.338888)"><path style="stroke:none" d="M 31.390625 -42.359375 L 30.984375 -38.21875 L 23.484375 -38.609375 L 19.140625 -38.609375 L 18.9375 -13.390625 L 19.140625 0 L 13.71875 0 L 14.125 -12.921875 L 13.78125 -38.609375 L 9.4375 -38.609375 L 1.8125 -38.21875 L 1.46875 -38.75 L 1.875 -42.890625 L 30.984375 -42.890625 Z M 31.390625 -42.359375 "/></g></g><g style="fill:#ffffff;fill-opacity:1;"><g transform="translate(52.590158, 68.338888)"><path style="stroke:none" d="M 30.71875 -4.15625 L 30.3125 0 L 6.21875 0 L 6.5625 -12.921875 L 6.21875 -42.890625 L 30.375 -42.890625 L 30.65625 -42.359375 L 30.25 -38.21875 L 20.140625 -38.40625 L 11.640625 -38.28125 L 11.515625 -24.21875 L 19.546875 -24.09375 L 26.640625 -24.296875 L 27.03125 -23.828125 L 26.5625 -19.671875 L 19.078125 -19.8125 L 11.4375 -19.734375 L 11.375 -13.390625 L 11.578125 -4.484375 L 20.078125 -4.421875 L 30.375 -4.6875 Z M 30.71875 -4.15625 "/></g></g><g style="fill:#ffffff;fill-opacity:1;"><g transform="translate(92.999914, 68.338888)"><path style="stroke:none" d="M 23.6875 -17.328125 C 26.632812 -12.460938 30.335938 -7.109375 34.796875 -1.265625 L 34.734375 -0.609375 C 33.128906 0.015625 31.476562 0.421875 29.78125 0.609375 L 29.046875 0.140625 C 25.390625 -5.347656 22.109375 -10.703125 19.203125 -15.921875 L 11.375 -15.921875 L 11.375 -13.390625 L 11.640625 0 L 6.21875 0 L 6.5625 -12.921875 L 6.21875 -42.890625 L 19.34375 -42.96875 C 23.53125 -42.96875 26.773438 -41.90625 29.078125 -39.78125 C 31.378906 -37.664062 32.53125 -34.644531 32.53125 -30.71875 C 32.53125 -27.769531 31.757812 -25.125 30.21875 -22.78125 C 28.675781 -20.445312 26.5 -18.628906 23.6875 -17.328125 Z M 11.4375 -20.484375 L 19.46875 -20.28125 C 24.46875 -21.707031 26.96875 -25.03125 26.96875 -30.25 C 26.96875 -32.96875 26.226562 -35.003906 24.75 -36.359375 C 23.28125 -37.722656 21.078125 -38.453125 18.140625 -38.546875 L 11.640625 -38.34375 Z M 11.4375 -20.484375 "/></g></g><g style="fill:#ffffff;fill-opacity:1;"><g transform="translate(138.293071, 68.338888)"><path style="stroke:none" d="M 37.203125 0 L 31.71875 0 L 30.71875 -4.28125 L 28.3125 -11.640625 L 18.671875 -11.84375 L 9.96875 -11.640625 L 7.359375 -4.546875 L 6.296875 0 L 0.9375 0 L 16.65625 -42.890625 L 22.890625 -42.890625 Z M 26.828125 -16.1875 L 19.875 -37.34375 L 19.40625 -37.34375 L 11.640625 -16.1875 L 19.140625 -16.0625 Z M 26.828125 -16.1875 "/></g></g><g style="fill:#ffffff;fill-opacity:1;"><g transform="translate(185.124848, 68.338888)"><path style="stroke:none" d="M 19.34375 -42.96875 C 23.53125 -42.96875 26.757812 -41.882812 29.03125 -39.71875 C 31.3125 -37.550781 32.453125 -34.4375 32.453125 -30.375 C 32.453125 -25.601562 31.035156 -21.859375 28.203125 -19.140625 C 25.367188 -16.421875 21.457031 -15.0625 16.46875 -15.0625 L 11.375 -15.0625 L 11.375 -13.390625 L 11.640625 0 L 6.21875 0 L 6.5625 -12.921875 L 6.21875 -42.890625 Z M 18.46875 -19.40625 C 21.238281 -19.851562 23.347656 -20.96875 24.796875 -22.75 C 26.242188 -24.539062 26.96875 -26.929688 26.96875 -29.921875 C 26.96875 -35.453125 24.023438 -38.328125 18.140625 -38.546875 L 11.640625 -38.34375 L 11.4375 -19.546875 Z M 18.46875 -19.40625 "/></g></g><g style="fill:#ffffff;fill-opacity:1;"><g transform="translate(228.076662, 68.338888)"><path style="stroke:none" d="M 11.375 -13.390625 L 11.640625 0 L 6.21875 0 L 6.5625 -12.921875 L 6.21875 -42.890625 L 11.71875 -42.890625 Z M 11.375 -13.390625 "/></g></g><g style="fill:#ffffff;fill-opacity:1;"><g transform="translate(254.17065, 68.338888)"><path style="stroke:none" d="M 37.203125 0 L 31.71875 0 L 30.71875 -4.28125 L 28.3125 -11.640625 L 18.671875 -11.84375 L 9.96875 -11.640625 L 7.359375 -4.546875 L 6.296875 0 L 0.9375 0 L 16.65625 -42.890625 L 22.890625 -42.890625 Z M 26.828125 -16.1875 L 19.875 -37.34375 L 19.40625 -37.34375 L 11.640625 -16.1875 L 19.140625 -16.0625 Z M 26.828125 -16.1875 "/></g></g><g style="fill:#1e1e24;fill-opacity:1;"><g transform="translate(20.134936, 172.494145)"><path style="stroke:none" d="M 7.5 -18.15625 C 8.789062 -18.15625 10.132812 -17.875 11.53125 -17.3125 L 11.15625 -15.15625 L 10.765625 -15.03125 C 10.222656 -15.445312 9.644531 -15.765625 9.03125 -15.984375 C 8.425781 -16.210938 7.820312 -16.328125 7.21875 -16.328125 C 6.53125 -16.328125 5.925781 -16.1875 5.40625 -15.90625 C 4.894531 -15.625 4.503906 -15.257812 4.234375 -14.8125 C 3.960938 -14.363281 3.828125 -13.894531 3.828125 -13.40625 C 3.828125 -12.90625 3.976562 -12.460938 4.28125 -12.078125 C 4.59375 -11.691406 4.984375 -11.359375 5.453125 -11.078125 C 5.921875 -10.796875 6.554688 -10.457031 7.359375 -10.0625 C 8.367188 -9.59375 9.179688 -9.15625 9.796875 -8.75 C 10.421875 -8.351562 10.953125 -7.84375 11.390625 -7.21875 C 11.835938 -6.601562 12.0625 -5.851562 12.0625 -4.96875 C 12.0625 -4.03125 11.804688 -3.164062 11.296875 -2.375 C 10.796875 -1.59375 10.082031 -0.96875 9.15625 -0.5 C 8.238281 -0.03125 7.191406 0.203125 6.015625 0.203125 C 5.222656 0.203125 4.398438 0.09375 3.546875 -0.125 C 2.703125 -0.34375 1.914062 -0.65625 1.1875 -1.0625 L 1.46875 -3.375 L 1.765625 -3.515625 C 2.421875 -2.878906 3.144531 -2.40625 3.9375 -2.09375 C 4.738281 -1.78125 5.503906 -1.625 6.234375 -1.625 C 6.953125 -1.625 7.585938 -1.765625 8.140625 -2.046875 C 8.691406 -2.328125 9.113281 -2.703125 9.40625 -3.171875 C 9.695312 -3.640625 9.84375 -4.140625 9.84375 -4.671875 C 9.84375 -5.453125 9.539062 -6.082031 8.9375 -6.5625 C 8.34375 -7.039062 7.4375 -7.5625 6.21875 -8.125 C 5.21875 -8.613281 4.414062 -9.046875 3.8125 -9.421875 C 3.21875 -9.804688 2.703125 -10.300781 2.265625 -10.90625 C 1.835938 -11.519531 1.625 -12.269531 1.625 -13.15625 C 1.625 -14.070312 1.875 -14.914062 2.375 -15.6875 C 2.875 -16.457031 3.566406 -17.0625 4.453125 -17.5 C 5.347656 -17.9375 6.363281 -18.15625 7.5 -18.15625 Z M 7.5 -18.15625 "/></g></g><g style="fill:#1e1e24;fill-opacity:1;"><g transform="translate(36.623592, 172.494145)"><path style="stroke:none" d="M 12.90625 -1.75 L 12.734375 0 L 2.609375 0 L 2.75 -5.421875 L 2.609375 -18.015625 L 12.765625 -18.015625 L 12.875 -17.796875 L 12.703125 -16.046875 L 8.453125 -16.140625 L 4.890625 -16.078125 L 4.828125 -10.171875 L 8.203125 -10.125 L 11.1875 -10.203125 L 11.359375 -10 L 11.15625 -8.265625 L 8.015625 -8.328125 L 4.8125 -8.296875 L 4.78125 -5.625 L 4.859375 -1.890625 L 8.4375 -1.859375 L 12.765625 -1.96875 Z M 12.90625 -1.75 "/></g></g><g style="fill:#1e1e24;fill-opacity:1;"><g transform="translate(53.393048, 172.494145)"><path style="stroke:none" d="M 10.171875 -9.390625 C 12.722656 -8.878906 14 -7.425781 14 -5.03125 C 14 -3.320312 13.378906 -2.035156 12.140625 -1.171875 C 10.898438 -0.316406 9.054688 0.109375 6.609375 0.109375 C 4.953125 0.109375 3.628906 0.0703125 2.640625 0 L 2.609375 0 L 2.75 -5.421875 L 2.609375 -18.015625 L 7.625 -18.046875 C 9.300781 -18.046875 10.59375 -17.671875 11.5 -16.921875 C 12.414062 -16.171875 12.875 -15.082031 12.875 -13.65625 C 12.875 -12.644531 12.640625 -11.773438 12.171875 -11.046875 C 11.703125 -10.316406 11.035156 -9.765625 10.171875 -9.390625 Z M 10.5625 -13.40625 C 10.5625 -14.382812 10.296875 -15.09375 9.765625 -15.53125 C 9.234375 -15.96875 8.367188 -16.1875 7.171875 -16.1875 L 4.890625 -16.1875 L 4.828125 -10.140625 L 7.921875 -10.0625 C 9.679688 -10.476562 10.5625 -11.59375 10.5625 -13.40625 Z M 6.9375 -1.765625 C 8.476562 -1.765625 9.660156 -2.054688 10.484375 -2.640625 C 11.304688 -3.222656 11.71875 -4.054688 11.71875 -5.140625 C 11.71875 -6.984375 10.566406 -8.035156 8.265625 -8.296875 L 4.8125 -8.265625 L 4.78125 -5.625 L 4.859375 -1.859375 C 5.585938 -1.796875 6.28125 -1.765625 6.9375 -1.765625 Z M 6.9375 -1.765625 "/></g></g><g style="fill:#1e1e24;fill-opacity:1;"><g transform="translate(71.707005, 172.494145)"><path style="stroke:none" d="M 15.625 0 L 13.328125 0 L 12.90625 -1.796875 L 11.890625 -4.890625 L 7.84375 -4.96875 L 4.1875 -4.890625 L 3.09375 -1.90625 L 2.640625 0 L 0.390625 0 L 7 -18.015625 L 9.609375 -18.015625 Z M 11.265625 -6.796875 L 8.34375 -15.6875 L 8.15625 -15.6875 L 4.890625 -6.796875 L 8.046875 -6.75 Z M 11.265625 -6.796875 "/></g></g><g style="fill:#1e1e24;fill-opacity:1;"><g transform="translate(91.172323, 172.494145)"><path style="stroke:none" d="M 7.5 -18.15625 C 8.789062 -18.15625 10.132812 -17.875 11.53125 -17.3125 L 11.15625 -15.15625 L 10.765625 -15.03125 C 10.222656 -15.445312 9.644531 -15.765625 9.03125 -15.984375 C 8.425781 -16.210938 7.820312 -16.328125 7.21875 -16.328125 C 6.53125 -16.328125 5.925781 -16.1875 5.40625 -15.90625 C 4.894531 -15.625 4.503906 -15.257812 4.234375 -14.8125 C 3.960938 -14.363281 3.828125 -13.894531 3.828125 -13.40625 C 3.828125 -12.90625 3.976562 -12.460938 4.28125 -12.078125 C 4.59375 -11.691406 4.984375 -11.359375 5.453125 -11.078125 C 5.921875 -10.796875 6.554688 -10.457031 7.359375 -10.0625 C 8.367188 -9.59375 9.179688 -9.15625 9.796875 -8.75 C 10.421875 -8.351562 10.953125 -7.84375 11.390625 -7.21875 C 11.835938 -6.601562 12.0625 -5.851562 12.0625 -4.96875 C 12.0625 -4.03125 11.804688 -3.164062 11.296875 -2.375 C 10.796875 -1.59375 10.082031 -0.96875 9.15625 -0.5 C 8.238281 -0.03125 7.191406 0.203125 6.015625 0.203125 C 5.222656 0.203125 4.398438 0.09375 3.546875 -0.125 C 2.703125 -0.34375 1.914062 -0.65625 1.1875 -1.0625 L 1.46875 -3.375 L 1.765625 -3.515625 C 2.421875 -2.878906 3.144531 -2.40625 3.9375 -2.09375 C 4.738281 -1.78125 5.503906 -1.625 6.234375 -1.625 C 6.953125 -1.625 7.585938 -1.765625 8.140625 -2.046875 C 8.691406 -2.328125 9.113281 -2.703125 9.40625 -3.171875 C 9.695312 -3.640625 9.84375 -4.140625 9.84375 -4.671875 C 9.84375 -5.453125 9.539062 -6.082031 8.9375 -6.5625 C 8.34375 -7.039062 7.4375 -7.5625 6.21875 -8.125 C 5.21875 -8.613281 4.414062 -9.046875 3.8125 -9.421875 C 3.21875 -9.804688 2.703125 -10.300781 2.265625 -10.90625 C 1.835938 -11.519531 1.625 -12.269531 1.625 -13.15625 C 1.625 -14.070312 1.875 -14.914062 2.375 -15.6875 C 2.875 -16.457031 3.566406 -17.0625 4.453125 -17.5 C 5.347656 -17.9375 6.363281 -18.15625 7.5 -18.15625 Z M 7.5 -18.15625 "/></g></g><g style="fill:#1e1e24;fill-opacity:1;"><g transform="translate(107.211216, 172.494145)"><path style="stroke:none" d="M 13.1875 -17.796875 L 13.015625 -16.046875 L 9.859375 -16.21875 L 8.046875 -16.21875 L 7.953125 -5.625 L 8.046875 0 L 5.765625 0 L 5.9375 -5.421875 L 5.796875 -16.21875 L 3.96875 -16.21875 L 0.765625 -16.046875 L 0.625 -16.28125 L 0.78125 -18.015625 L 13.015625 -18.015625 Z M 13.1875 -17.796875 "/></g></g><g style="fill:#1e1e24;fill-opacity:1;"><g transform="translate(124.205353, 172.494145)"><path style="stroke:none" d="M 4.78125 -5.625 L 4.890625 0 L 2.609375 0 L 2.75 -5.421875 L 2.609375 -18.015625 L 4.921875 -18.015625 Z M 4.78125 -5.625 "/></g></g><g style="fill:#1e1e24;fill-opacity:1;"><g transform="translate(134.965296, 172.494145)"><path style="stroke:none" d="M 15.625 0 L 13.328125 0 L 12.90625 -1.796875 L 11.890625 -4.890625 L 7.84375 -4.96875 L 4.1875 -4.890625 L 3.09375 -1.90625 L 2.640625 0 L 0.390625 0 L 7 -18.015625 L 9.609375 -18.015625 Z M 11.265625 -6.796875 L 8.34375 -15.6875 L 8.15625 -15.6875 L 4.890625 -6.796875 L 8.046875 -6.75 Z M 11.265625 -24.234375 L 11.828125 -22.90625 L 11.765625 -22.6875 C 9.984375 -21.851562 8.148438 -21.046875 6.265625 -20.265625 L 6 -20.375 L 5.609375 -21.390625 C 7.578125 -22.359375 9.367188 -23.320312 10.984375 -24.28125 Z M 11.265625 -24.234375 "/></g></g><g style="fill:#1e1e24;fill-opacity:1;"><g transform="translate(154.430615, 172.494145)"><path style="stroke:none" d="M 16.4375 -5.28125 L 16.5 0 L 14.140625 0 L 4.8125 -14.421875 L 4.671875 -14.421875 L 4.640625 -5.9375 L 4.671875 0 L 2.640625 0 L 2.734375 -5.34375 L 2.671875 -18.015625 L 5 -18.015625 L 14.3125 -3.59375 L 14.5 -3.59375 L 14.46875 -17.90625 L 16.578125 -18.078125 Z M 16.4375 -5.28125 "/></g></g><g style="fill:#1e1e24;fill-opacity:1;"><g transform="translate(176.844536, 172.494145)"><path style="stroke:none" d=""/></g></g><g style="fill:#1e1e24;fill-opacity:1;"><g transform="translate(184.71203, 172.494145)"><path style="stroke:none" d="M 9.140625 -18.125 C 11.703125 -18.125 13.664062 -17.394531 15.03125 -15.9375 C 16.40625 -14.476562 17.09375 -12.378906 17.09375 -9.640625 C 17.09375 -6.472656 16.351562 -4.046875 14.875 -2.359375 C 13.394531 -0.671875 11.265625 0.171875 8.484375 0.171875 C 7.722656 0.171875 6.789062 0.15625 5.6875 0.125 C 4.59375 0.09375 3.578125 0.0507812 2.640625 0 L 2.609375 0 L 2.75 -5.421875 L 2.609375 -18.015625 L 2.640625 -18.015625 Z M 8.859375 -1.71875 C 10.765625 -1.71875 12.226562 -2.335938 13.25 -3.578125 C 14.269531 -4.828125 14.78125 -6.6875 14.78125 -9.15625 C 14.78125 -13.882812 12.84375 -16.25 8.96875 -16.25 C 7.789062 -16.25 6.429688 -16.210938 4.890625 -16.140625 L 4.78125 -5.625 L 4.859375 -1.890625 C 5.441406 -1.828125 6.140625 -1.78125 6.953125 -1.75 C 7.773438 -1.726562 8.410156 -1.71875 8.859375 -1.71875 Z M 8.859375 -1.71875 "/></g></g><g style="fill:#1e1e24;fill-opacity:1;"><g transform="translate(206.08693, 172.494145)"><path style="stroke:none" d="M 15.484375 -8.859375 L 15.453125 -6.828125 C 15.492188 -4.617188 14.914062 -2.894531 13.71875 -1.65625 C 12.519531 -0.414062 10.8125 0.203125 8.59375 0.203125 C 6.476562 0.203125 4.851562 -0.382812 3.71875 -1.5625 C 2.59375 -2.75 2.046875 -4.421875 2.078125 -6.578125 L 2.109375 -9.015625 L 2.078125 -18.015625 L 4.296875 -18.015625 L 4.21875 -6.859375 C 4.195312 -5.171875 4.570312 -3.898438 5.34375 -3.046875 C 6.113281 -2.191406 7.253906 -1.765625 8.765625 -1.765625 C 10.285156 -1.765625 11.4375 -2.164062 12.21875 -2.96875 C 13.007812 -3.78125 13.394531 -4.984375 13.375 -6.578125 L 13.265625 -18.015625 L 15.515625 -18.015625 Z M 15.484375 -8.859375 "/></g></g><g style="fill:#1e1e24;fill-opacity:1;"><g transform="translate(226.900196, 172.494145)"><path style="stroke:none" d="M 9.953125 -7.28125 C 11.191406 -5.238281 12.742188 -2.988281 14.609375 -0.53125 L 14.59375 -0.25 C 13.914062 0.0078125 13.222656 0.175781 12.515625 0.25 L 12.203125 0.0625 C 10.660156 -2.25 9.28125 -4.5 8.0625 -6.6875 L 4.78125 -6.6875 L 4.78125 -5.625 L 4.890625 0 L 2.609375 0 L 2.75 -5.421875 L 2.609375 -18.015625 L 8.125 -18.046875 C 9.882812 -18.046875 11.242188 -17.597656 12.203125 -16.703125 C 13.171875 -15.816406 13.65625 -14.550781 13.65625 -12.90625 C 13.65625 -11.664062 13.332031 -10.550781 12.6875 -9.5625 C 12.039062 -8.582031 11.128906 -7.820312 9.953125 -7.28125 Z M 4.8125 -8.59375 L 8.1875 -8.515625 C 10.28125 -9.117188 11.328125 -10.515625 11.328125 -12.703125 C 11.328125 -13.847656 11.015625 -14.707031 10.390625 -15.28125 C 9.773438 -15.851562 8.851562 -16.15625 7.625 -16.1875 L 4.890625 -16.109375 Z M 4.8125 -8.59375 "/></g></g><g style="fill:#1e1e24;fill-opacity:1;"><g transform="translate(245.719634, 172.494145)"><path style="stroke:none" d="M 15.625 0 L 13.328125 0 L 12.90625 -1.796875 L 11.890625 -4.890625 L 7.84375 -4.96875 L 4.1875 -4.890625 L 3.09375 -1.90625 L 2.640625 0 L 0.390625 0 L 7 -18.015625 L 9.609375 -18.015625 Z M 11.265625 -6.796875 L 8.34375 -15.6875 L 8.15625 -15.6875 L 4.890625 -6.796875 L 8.046875 -6.75 Z M 11.265625 -24.234375 L 11.828125 -22.90625 L 11.765625 -22.6875 C 9.984375 -21.851562 8.148438 -21.046875 6.265625 -20.265625 L 6 -20.375 L 5.609375 -21.390625 C 7.578125 -22.359375 9.367188 -23.320312 10.984375 -24.28125 Z M 11.265625 -24.234375 "/></g></g><g style="fill:#1e1e24;fill-opacity:1;"><g transform="translate(265.184953, 172.494145)"><path style="stroke:none" d="M 16.4375 -5.28125 L 16.5 0 L 14.140625 0 L 4.8125 -14.421875 L 4.671875 -14.421875 L 4.640625 -5.9375 L 4.671875 0 L 2.640625 0 L 2.734375 -5.34375 L 2.671875 -18.015625 L 5 -18.015625 L 14.3125 -3.59375 L 14.5 -3.59375 L 14.46875 -17.90625 L 16.578125 -18.078125 Z M 16.4375 -5.28125 "/></g></g><g style="fill:#ffffff;fill-opacity:1;"><g transform="translate(22.007934, 200.191965)"><path style="stroke:none" d="M 10.375 -14 L 10.25 -12.640625 L 7.765625 -12.765625 L 6.328125 -12.765625 L 6.265625 -4.421875 L 6.328125 0 L 4.53125 0 L 4.671875 -4.265625 L 4.5625 -12.765625 L 3.125 -12.765625 L 0.59375 -12.640625 L 0.484375 -12.8125 L 0.625 -14.1875 L 10.25 -14.1875 Z M 10.375 -14 "/></g></g><g style="fill:#ffffff;fill-opacity:1;"><g transform="translate(38.550815, 200.191965)"><path style="stroke:none" d="M 10.15625 -1.375 L 10.015625 0 L 2.0625 0 L 2.171875 -4.265625 L 2.0625 -14.1875 L 10.046875 -14.1875 L 10.140625 -14 L 10 -12.640625 L 6.65625 -12.703125 L 3.84375 -12.65625 L 3.8125 -8.015625 L 6.453125 -7.96875 L 8.8125 -8.03125 L 8.9375 -7.875 L 8.78125 -6.5 L 6.3125 -6.546875 L 3.78125 -6.53125 L 3.765625 -4.421875 L 3.828125 -1.484375 L 6.640625 -1.453125 L 10.046875 -1.546875 Z M 10.15625 -1.375 "/></g></g><g style="fill:#ffffff;fill-opacity:1;"><g transform="translate(54.916792, 200.191965)"><path style="stroke:none" d="M 7.828125 -5.734375 C 8.804688 -4.117188 10.03125 -2.347656 11.5 -0.421875 L 11.484375 -0.203125 C 10.953125 0.00390625 10.40625 0.140625 9.84375 0.203125 L 9.609375 0.046875 C 8.390625 -1.765625 7.300781 -3.535156 6.34375 -5.265625 L 3.765625 -5.265625 L 3.765625 -4.421875 L 3.84375 0 L 2.0625 0 L 2.171875 -4.265625 L 2.0625 -14.1875 L 6.390625 -14.203125 C 7.773438 -14.203125 8.847656 -13.851562 9.609375 -13.15625 C 10.367188 -12.457031 10.75 -11.457031 10.75 -10.15625 C 10.75 -9.175781 10.492188 -8.300781 9.984375 -7.53125 C 9.472656 -6.757812 8.753906 -6.160156 7.828125 -5.734375 Z M 3.78125 -6.765625 L 6.4375 -6.703125 C 8.09375 -7.171875 8.921875 -8.269531 8.921875 -10 C 8.921875 -10.894531 8.675781 -11.566406 8.1875 -12.015625 C 7.695312 -12.472656 6.96875 -12.71875 6 -12.75 L 3.84375 -12.671875 Z M 3.78125 -6.765625 "/></g></g><g style="fill:#ffffff;fill-opacity:1;"><g transform="translate(72.897027, 200.191965)"><path style="stroke:none" d="M 12.296875 0 L 10.484375 0 L 10.15625 -1.421875 L 9.359375 -3.84375 L 6.171875 -3.921875 L 3.296875 -3.84375 L 2.4375 -1.5 L 2.078125 0 L 0.3125 0 L 5.515625 -14.1875 L 7.5625 -14.1875 Z M 8.875 -5.359375 L 6.578125 -12.34375 L 6.421875 -12.34375 L 3.84375 -5.359375 L 6.328125 -5.3125 Z M 8.875 -5.359375 "/></g></g><g style="fill:#ffffff;fill-opacity:1;"><g transform="translate(91.385872, 200.191965)"><path style="stroke:none" d="M 6.390625 -14.203125 C 7.773438 -14.203125 8.84375 -13.84375 9.59375 -13.125 C 10.351562 -12.414062 10.734375 -11.390625 10.734375 -10.046875 C 10.734375 -8.460938 10.265625 -7.222656 9.328125 -6.328125 C 8.390625 -5.429688 7.09375 -4.984375 5.4375 -4.984375 L 3.765625 -4.984375 L 3.765625 -4.421875 L 3.84375 0 L 2.0625 0 L 2.171875 -4.265625 L 2.0625 -14.1875 Z M 6.109375 -6.421875 C 7.023438 -6.566406 7.722656 -6.929688 8.203125 -7.515625 C 8.679688 -8.109375 8.921875 -8.898438 8.921875 -9.890625 C 8.921875 -11.722656 7.945312 -12.675781 6 -12.75 L 3.84375 -12.671875 L 3.78125 -6.453125 Z M 6.109375 -6.421875 "/></g></g><g style="fill:#ffffff;fill-opacity:1;"><g transform="translate(108.592143, 200.191965)"><path style="stroke:none" d="M 10.15625 -1.375 L 10.015625 0 L 2.0625 0 L 2.171875 -4.265625 L 2.0625 -14.1875 L 10.046875 -14.1875 L 10.140625 -14 L 10 -12.640625 L 6.65625 -12.703125 L 3.84375 -12.65625 L 3.8125 -8.015625 L 6.453125 -7.96875 L 8.8125 -8.03125 L 8.9375 -7.875 L 8.78125 -6.5 L 6.3125 -6.546875 L 3.78125 -6.53125 L 3.765625 -4.421875 L 3.828125 -1.484375 L 6.640625 -1.453125 L 10.046875 -1.546875 Z M 10.15625 -1.375 "/></g></g><g style="fill:#ffffff;fill-opacity:1;"><g transform="translate(124.958121, 200.191965)"><path style="stroke:none" d="M 12.1875 -6.96875 L 12.171875 -5.375 C 12.203125 -3.632812 11.742188 -2.273438 10.796875 -1.296875 C 9.847656 -0.328125 8.503906 0.15625 6.765625 0.15625 C 5.097656 0.15625 3.816406 -0.304688 2.921875 -1.234375 C 2.035156 -2.171875 1.609375 -3.484375 1.640625 -5.171875 L 1.65625 -7.109375 L 1.640625 -14.1875 L 3.390625 -14.1875 L 3.3125 -5.40625 C 3.300781 -4.070312 3.597656 -3.066406 4.203125 -2.390625 C 4.804688 -1.722656 5.707031 -1.390625 6.90625 -1.390625 C 8.09375 -1.390625 8.992188 -1.707031 9.609375 -2.34375 C 10.234375 -2.976562 10.539062 -3.921875 10.53125 -5.171875 L 10.4375 -14.1875 L 12.21875 -14.1875 Z M 12.1875 -6.96875 "/></g></g><g style="fill:#ffffff;fill-opacity:1;"><g transform="translate(144.508394, 200.191965)"><path style="stroke:none" d="M 10.375 -14 L 10.25 -12.640625 L 7.765625 -12.765625 L 6.328125 -12.765625 L 6.265625 -4.421875 L 6.328125 0 L 4.53125 0 L 4.671875 -4.265625 L 4.5625 -12.765625 L 3.125 -12.765625 L 0.59375 -12.640625 L 0.484375 -12.8125 L 0.625 -14.1875 L 10.25 -14.1875 Z M 10.375 -14 "/></g></g><g style="fill:#ffffff;fill-opacity:1;"><g transform="translate(159.834813, 200.191965)"><path style="stroke:none" d="M 12.296875 0 L 10.484375 0 L 10.15625 -1.421875 L 9.359375 -3.84375 L 6.171875 -3.921875 L 3.296875 -3.84375 L 2.4375 -1.5 L 2.078125 0 L 0.3125 0 L 5.515625 -14.1875 L 7.5625 -14.1875 Z M 8.875 -5.359375 L 6.578125 -12.34375 L 6.421875 -12.34375 L 3.84375 -5.359375 L 6.328125 -5.3125 Z M 8.875 -5.359375 "/></g></g><g style="fill:#ffffff;fill-opacity:1;"><g transform="translate(178.323658, 200.191965)"><path style="stroke:none" d=""/></g></g><g style="fill:#ffffff;fill-opacity:1;"><g transform="translate(187.67974, 200.191965)"><path style="stroke:none" d="M 3.84375 -12.65625 L 3.8125 -7.71875 L 6.1875 -7.671875 L 8.5 -7.75 L 8.625 -7.5625 L 8.46875 -6.21875 L 6.015625 -6.28125 L 3.78125 -6.265625 L 3.765625 -4.421875 L 3.84375 0 L 2.0625 0 L 2.171875 -4.265625 L 2.0625 -14.1875 L 9.609375 -14.1875 L 9.734375 -14 L 9.578125 -12.59375 L 6.328125 -12.703125 Z M 3.84375 -12.65625 "/></g></g><g style="fill:#ffffff;fill-opacity:1;"><g transform="translate(202.984278, 200.191965)"><path style="stroke:none" d="M 9.140625 -1.328125 L 8.984375 0 L 1.984375 0 L 2.109375 -4.265625 L 1.984375 -14.1875 L 3.8125 -14.1875 L 3.6875 -4.421875 L 3.765625 -1.484375 L 9 -1.484375 Z M 9.140625 -1.328125 "/></g></g><g style="fill:#ffffff;fill-opacity:1;"><g transform="translate(217.116667, 200.191965)"><path style="stroke:none" d="M 7.1875 -14.3125 C 9.132812 -14.3125 10.628906 -13.710938 11.671875 -12.515625 C 12.710938 -11.328125 13.234375 -9.613281 13.234375 -7.375 C 13.234375 -4.945312 12.675781 -3.082031 11.5625 -1.78125 C 10.457031 -0.476562 8.882812 0.171875 6.84375 0.171875 C 4.914062 0.171875 3.429688 -0.445312 2.390625 -1.6875 C 1.359375 -2.925781 0.84375 -4.6875 0.84375 -6.96875 C 0.84375 -9.332031 1.390625 -11.144531 2.484375 -12.40625 C 3.585938 -13.675781 5.15625 -14.3125 7.1875 -14.3125 Z M 7.078125 -12.875 C 4.128906 -12.875 2.65625 -10.972656 2.65625 -7.171875 C 2.65625 -5.148438 3.007812 -3.648438 3.71875 -2.671875 C 4.4375 -1.703125 5.519531 -1.21875 6.96875 -1.21875 C 9.914062 -1.21875 11.390625 -3.15625 11.390625 -7.03125 C 11.390625 -9.007812 11.03125 -10.476562 10.3125 -11.4375 C 9.601562 -12.394531 8.523438 -12.875 7.078125 -12.875 Z M 7.078125 -12.875 "/></g></g><g style="fill:#ffffff;fill-opacity:1;"><g transform="translate(236.865964, 200.191965)"><path style="stroke:none" d="M 7.828125 -5.734375 C 8.804688 -4.117188 10.03125 -2.347656 11.5 -0.421875 L 11.484375 -0.203125 C 10.953125 0.00390625 10.40625 0.140625 9.84375 0.203125 L 9.609375 0.046875 C 8.390625 -1.765625 7.300781 -3.535156 6.34375 -5.265625 L 3.765625 -5.265625 L 3.765625 -4.421875 L 3.84375 0 L 2.0625 0 L 2.171875 -4.265625 L 2.0625 -14.1875 L 6.390625 -14.203125 C 7.773438 -14.203125 8.847656 -13.851562 9.609375 -13.15625 C 10.367188 -12.457031 10.75 -11.457031 10.75 -10.15625 C 10.75 -9.175781 10.492188 -8.300781 9.984375 -7.53125 C 9.472656 -6.757812 8.753906 -6.160156 7.828125 -5.734375 Z M 3.78125 -6.765625 L 6.4375 -6.703125 C 8.09375 -7.171875 8.921875 -8.269531 8.921875 -10 C 8.921875 -10.894531 8.675781 -11.566406 8.1875 -12.015625 C 7.695312 -12.472656 6.96875 -12.71875 6 -12.75 L 3.84375 -12.671875 Z M 3.78125 -6.765625 "/></g></g><g style="fill:#ffffff;fill-opacity:1;"><g transform="translate(254.84621, 200.191965)"><path style="stroke:none" d="M 12.296875 0 L 10.484375 0 L 10.15625 -1.421875 L 9.359375 -3.84375 L 6.171875 -3.921875 L 3.296875 -3.84375 L 2.4375 -1.5 L 2.078125 0 L 0.3125 0 L 5.515625 -14.1875 L 7.5625 -14.1875 Z M 8.875 -5.359375 L 6.578125 -12.34375 L 6.421875 -12.34375 L 3.84375 -5.359375 L 6.328125 -5.3125 Z M 8.875 -5.359375 "/></g></g><g style="fill:#ffffff;fill-opacity:1;"><g transform="translate(273.335055, 200.191965)"><path style="stroke:none" d="M 9.140625 -1.328125 L 8.984375 0 L 1.984375 0 L 2.109375 -4.265625 L 1.984375 -14.1875 L 3.8125 -14.1875 L 3.6875 -4.421875 L 3.765625 -1.484375 L 9 -1.484375 Z M 9.140625 -1.328125 "/></g></g></g></svg>