<svg xmlns="http://www.w3.org/2000/svg" xmlns:xlink="http://www.w3.org/1999/xlink" width="400" zoomAndPan="magnify" viewBox="0 0 300 225" height="300" preserveAspectRatio="xMidYMid meet" version="1.0"><defs><g/><clipPath id="9867ab0f78"><rect x="0" width="285" y="0" height="73"/></clipPath><clipPath id="baebe380ec"><rect x="0" width="290" y="0" height="68"/></clipPath></defs><g transform="matrix(1, 0, 0, 1, 10, 70)"><g clip-path="url(#9867ab0f78)"><g fill="#ffffff" fill-opacity="1"><g transform="translate(0.716589, 58.080655)"><g><path d="M 38.3125 -13.078125 L 38.4375 0 L 33.28125 0 L 33.53125 -12.625 L 33.46875 -18.890625 L 21.828125 -18.953125 L 11.171875 -18.890625 L 11.109375 -13.078125 L 11.3125 0 L 6.140625 0 L 6.34375 -12.625 L 6.140625 -41.90625 L 11.375 -41.90625 L 11.171875 -23.34375 L 22.296875 -23.28125 L 33.46875 -23.34375 L 33.28125 -41.90625 L 38.578125 -41.90625 Z M 38.3125 -13.078125 "/></g></g></g><g fill="#ffffff" fill-opacity="1"><g transform="translate(45.42644, 58.080655)"><g><path d="M 21.25 -42.296875 C 27 -42.296875 31.410156 -40.53125 34.484375 -37 C 37.554688 -33.46875 39.09375 -28.390625 39.09375 -21.765625 C 39.09375 -14.617188 37.457031 -9.117188 34.1875 -5.265625 C 30.914062 -1.410156 26.253906 0.515625 20.203125 0.515625 C 14.535156 0.515625 10.164062 -1.3125 7.09375 -4.96875 C 4.019531 -8.625 2.484375 -13.832031 2.484375 -20.59375 C 2.484375 -27.5625 4.101562 -32.921875 7.34375 -36.671875 C 10.59375 -40.421875 15.226562 -42.296875 21.25 -42.296875 Z M 20.921875 -38.046875 C 12.203125 -38.046875 7.84375 -32.425781 7.84375 -21.1875 C 7.84375 -15.207031 8.898438 -10.78125 11.015625 -7.90625 C 13.128906 -5.03125 16.320312 -3.59375 20.59375 -3.59375 C 29.3125 -3.59375 33.671875 -9.328125 33.671875 -20.796875 C 33.671875 -26.628906 32.613281 -30.960938 30.5 -33.796875 C 28.382812 -36.628906 25.191406 -38.046875 20.921875 -38.046875 Z M 20.921875 -38.046875 "/></g></g></g><g fill="#ffffff" fill-opacity="1"><g transform="translate(86.931702, 58.080655)"><g><path d="M 27 -3.921875 L 26.546875 0 L 5.890625 0 L 6.203125 -12.625 L 5.890625 -41.90625 L 11.25 -41.90625 L 10.921875 -13.078125 L 11.109375 -4.375 L 26.609375 -4.375 Z M 27 -3.921875 "/></g></g></g><g fill="#ffffff" fill-opacity="1"><g transform="translate(114.124037, 58.080655)"><g><path d="M 11.109375 -13.078125 L 11.375 0 L 6.078125 0 L 6.40625 -12.625 L 6.078125 -41.90625 L 11.4375 -41.90625 Z M 16.015625 -56.359375 L 17.328125 -53.28125 L 17.1875 -52.765625 C 13.050781 -50.847656 8.78125 -48.972656 4.375 -47.140625 L 3.78125 -47.40625 L 2.875 -49.75 C 7.445312 -52.019531 11.609375 -54.265625 15.359375 -56.484375 Z M 16.015625 -56.359375 "/></g></g></g><g fill="#ffffff" fill-opacity="1"><g transform="translate(131.641559, 58.080655)"><g><path d="M 17.453125 -42.234375 C 20.460938 -42.234375 23.578125 -41.578125 26.796875 -40.265625 L 25.953125 -35.234375 L 25.03125 -34.96875 C 23.769531 -35.925781 22.429688 -36.664062 21.015625 -37.1875 C 19.597656 -37.71875 18.191406 -37.984375 16.796875 -37.984375 C 15.179688 -37.984375 13.773438 -37.65625 12.578125 -37 C 11.378906 -36.34375 10.460938 -35.492188 9.828125 -34.453125 C 9.203125 -33.410156 8.890625 -32.320312 8.890625 -31.1875 C 8.890625 -30.007812 9.25 -28.972656 9.96875 -28.078125 C 10.6875 -27.179688 11.585938 -26.40625 12.671875 -25.75 C 13.765625 -25.101562 15.25 -24.320312 17.125 -23.40625 C 19.476562 -22.3125 21.375 -21.296875 22.8125 -20.359375 C 24.25 -19.421875 25.476562 -18.234375 26.5 -16.796875 C 27.53125 -15.359375 28.046875 -13.617188 28.046875 -11.578125 C 28.046875 -9.390625 27.457031 -7.378906 26.28125 -5.546875 C 25.101562 -3.722656 23.445312 -2.265625 21.3125 -1.171875 C 19.175781 -0.0859375 16.734375 0.453125 13.984375 0.453125 C 12.160156 0.453125 10.253906 0.203125 8.265625 -0.296875 C 6.285156 -0.796875 4.445312 -1.523438 2.75 -2.484375 L 3.40625 -7.84375 L 4.125 -8.171875 C 5.644531 -6.691406 7.332031 -5.59375 9.1875 -4.875 C 11.039062 -4.15625 12.816406 -3.796875 14.515625 -3.796875 C 16.171875 -3.796875 17.640625 -4.117188 18.921875 -4.765625 C 20.210938 -5.421875 21.191406 -6.289062 21.859375 -7.375 C 22.535156 -8.46875 22.875 -9.628906 22.875 -10.859375 C 22.875 -12.679688 22.175781 -14.148438 20.78125 -15.265625 C 19.394531 -16.378906 17.285156 -17.585938 14.453125 -18.890625 C 12.140625 -20.023438 10.285156 -21.039062 8.890625 -21.9375 C 7.492188 -22.832031 6.296875 -23.984375 5.296875 -25.390625 C 4.296875 -26.804688 3.796875 -28.539062 3.796875 -30.59375 C 3.796875 -32.726562 4.367188 -34.6875 5.515625 -36.46875 C 6.671875 -38.257812 8.285156 -39.664062 10.359375 -40.6875 C 12.429688 -41.71875 14.796875 -42.234375 17.453125 -42.234375 Z M 17.453125 -42.234375 "/></g></g></g><g fill="#ffffff" fill-opacity="1"><g transform="translate(162.493292, 58.080655)"><g><path d="M 30.65625 -41.375 L 30.265625 -37.328125 L 22.953125 -37.71875 L 18.703125 -37.71875 L 18.5 -13.078125 L 18.703125 0 L 13.40625 0 L 13.796875 -12.625 L 13.46875 -37.71875 L 9.21875 -37.71875 L 1.765625 -37.328125 L 1.4375 -37.859375 L 1.828125 -41.90625 L 30.265625 -41.90625 Z M 30.65625 -41.375 "/></g></g></g><g fill="#ffffff" fill-opacity="1"><g transform="translate(194.521425, 58.080655)"><g><path d="M 11.109375 -13.078125 L 11.375 0 L 6.078125 0 L 6.40625 -12.625 L 6.078125 -41.90625 L 11.4375 -41.90625 Z M 11.109375 -13.078125 "/></g></g></g><g fill="#ffffff" fill-opacity="1"><g transform="translate(212.038949, 58.080655)"><g><path d="M 21.046875 -42.234375 C 25.453125 -42.234375 29.265625 -41.1875 32.484375 -39.09375 L 31.453125 -34.328125 L 30.859375 -34.1875 C 27.941406 -36.632812 24.585938 -37.859375 20.796875 -37.859375 C 16.648438 -37.859375 13.460938 -36.425781 11.234375 -33.5625 C 9.015625 -30.707031 7.90625 -26.535156 7.90625 -21.046875 C 7.90625 -15.515625 9.015625 -11.285156 11.234375 -8.359375 C 13.460938 -5.441406 16.601562 -3.984375 20.65625 -3.984375 C 22.570312 -3.984375 24.476562 -4.332031 26.375 -5.03125 C 28.269531 -5.726562 30.003906 -6.707031 31.578125 -7.96875 L 32.234375 -7.65625 L 31.765625 -2.6875 C 27.972656 -0.59375 24.117188 0.453125 20.203125 0.453125 C 14.578125 0.453125 10.21875 -1.363281 7.125 -5 C 4.03125 -8.632812 2.484375 -13.832031 2.484375 -20.59375 C 2.484375 -27.519531 4.09375 -32.859375 7.3125 -36.609375 C 10.539062 -40.359375 15.117188 -42.234375 21.046875 -42.234375 Z M 21.046875 -42.234375 "/></g></g></g><g fill="#ffffff" fill-opacity="1"><g transform="translate(246.029356, 58.080655)"><g><path d="M 36.34375 0 L 30.984375 0 L 30 -4.1875 L 27.65625 -11.375 L 18.234375 -11.578125 L 9.734375 -11.375 L 7.1875 -4.453125 L 6.140625 0 L 0.921875 0 L 16.28125 -41.90625 L 22.359375 -41.90625 Z M 26.21875 -15.828125 L 19.421875 -36.484375 L 18.953125 -36.484375 L 11.375 -15.828125 L 18.703125 -15.6875 Z M 26.21875 -15.828125 "/></g></g></g></g></g><g transform="matrix(1, 0, 0, 1, 10, 16)"><g clip-path="url(#baebe380ec)"><g fill="#ffffff" fill-opacity="1"><g transform="translate(1.645252, 52.338889)"><g><path d="M 31.390625 -42.359375 L 30.984375 -38.21875 L 23.484375 -38.609375 L 19.140625 -38.609375 L 18.9375 -13.390625 L 19.140625 0 L 13.71875 0 L 14.125 -12.921875 L 13.78125 -38.609375 L 9.4375 -38.609375 L 1.8125 -38.21875 L 1.46875 -38.75 L 1.875 -42.890625 L 30.984375 -42.890625 Z M 31.390625 -42.359375 "/></g></g></g><g fill="#ffffff" fill-opacity="1"><g transform="translate(42.590162, 52.338889)"><g><path d="M 30.71875 -4.15625 L 30.3125 0 L 6.21875 0 L 6.5625 -12.921875 L 6.21875 -42.890625 L 30.375 -42.890625 L 30.65625 -42.359375 L 30.25 -38.21875 L 20.140625 -38.40625 L 11.640625 -38.28125 L 11.515625 -24.21875 L 19.546875 -24.09375 L 26.640625 -24.296875 L 27.03125 -23.828125 L 26.5625 -19.671875 L 19.078125 -19.8125 L 11.4375 -19.734375 L 11.375 -13.390625 L 11.578125 -4.484375 L 20.078125 -4.421875 L 30.375 -4.6875 Z M 30.71875 -4.15625 "/></g></g></g><g fill="#ffffff" fill-opacity="1"><g transform="translate(82.999917, 52.338889)"><g><path d="M 23.6875 -17.328125 C 26.632812 -12.460938 30.335938 -7.109375 34.796875 -1.265625 L 34.734375 -0.609375 C 33.128906 0.015625 31.476562 0.421875 29.78125 0.609375 L 29.046875 0.140625 C 25.390625 -5.347656 22.109375 -10.703125 19.203125 -15.921875 L 11.375 -15.921875 L 11.375 -13.390625 L 11.640625 0 L 6.21875 0 L 6.5625 -12.921875 L 6.21875 -42.890625 L 19.34375 -42.96875 C 23.53125 -42.96875 26.773438 -41.90625 29.078125 -39.78125 C 31.378906 -37.664062 32.53125 -34.644531 32.53125 -30.71875 C 32.53125 -27.769531 31.757812 -25.125 30.21875 -22.78125 C 28.675781 -20.445312 26.5 -18.628906 23.6875 -17.328125 Z M 11.4375 -20.484375 L 19.46875 -20.28125 C 24.46875 -21.707031 26.96875 -25.03125 26.96875 -30.25 C 26.96875 -32.96875 26.226562 -35.003906 24.75 -36.359375 C 23.28125 -37.722656 21.078125 -38.453125 18.140625 -38.546875 L 11.640625 -38.34375 Z M 11.4375 -20.484375 "/></g></g></g><g fill="#ffffff" fill-opacity="1"><g transform="translate(128.293075, 52.338889)"><g><path d="M 37.203125 0 L 31.71875 0 L 30.71875 -4.28125 L 28.3125 -11.640625 L 18.671875 -11.84375 L 9.96875 -11.640625 L 7.359375 -4.546875 L 6.296875 0 L 0.9375 0 L 16.65625 -42.890625 L 22.890625 -42.890625 Z M 26.828125 -16.1875 L 19.875 -37.34375 L 19.40625 -37.34375 L 11.640625 -16.1875 L 19.140625 -16.0625 Z M 26.828125 -16.1875 "/></g></g></g><g fill="#ffffff" fill-opacity="1"><g transform="translate(175.124852, 52.338889)"><g><path d="M 19.34375 -42.96875 C 23.53125 -42.96875 26.757812 -41.882812 29.03125 -39.71875 C 31.3125 -37.550781 32.453125 -34.4375 32.453125 -30.375 C 32.453125 -25.601562 31.035156 -21.859375 28.203125 -19.140625 C 25.367188 -16.421875 21.457031 -15.0625 16.46875 -15.0625 L 11.375 -15.0625 L 11.375 -13.390625 L 11.640625 0 L 6.21875 0 L 6.5625 -12.921875 L 6.21875 -42.890625 Z M 18.46875 -19.40625 C 21.238281 -19.851562 23.347656 -20.96875 24.796875 -22.75 C 26.242188 -24.539062 26.96875 -26.929688 26.96875 -29.921875 C 26.96875 -35.453125 24.023438 -38.328125 18.140625 -38.546875 L 11.640625 -38.34375 L 11.4375 -19.546875 Z M 18.46875 -19.40625 "/></g></g></g><g fill="#ffffff" fill-opacity="1"><g transform="translate(218.076666, 52.338889)"><g><path d="M 11.375 -13.390625 L 11.640625 0 L 6.21875 0 L 6.5625 -12.921875 L 6.21875 -42.890625 L 11.71875 -42.890625 Z M 11.375 -13.390625 "/></g></g></g><g fill="#ffffff" fill-opacity="1"><g transform="translate(244.170654, 52.338889)"><g><path d="M 37.203125 0 L 31.71875 0 L 30.71875 -4.28125 L 28.3125 -11.640625 L 18.671875 -11.84375 L 9.96875 -11.640625 L 7.359375 -4.546875 L 6.296875 0 L 0.9375 0 L 16.65625 -42.890625 L 22.890625 -42.890625 Z M 26.828125 -16.1875 L 19.875 -37.34375 L 19.40625 -37.34375 L 11.640625 -16.1875 L 19.140625 -16.0625 Z M 26.828125 -16.1875 "/></g></g></g></g></g><g fill="#1e1e24" fill-opacity="1"><g transform="translate(20.765838, 171.016306)"><g><path d="M 8.875 -20.296875 C 10.570312 -20.296875 12.257812 -19.953125 13.9375 -19.265625 L 13.265625 -15.625 L 12.640625 -15.375 C 11.929688 -15.875 11.195312 -16.269531 10.4375 -16.5625 C 9.6875 -16.851562 9 -17 8.375 -17 C 7.539062 -17 6.875 -16.773438 6.375 -16.328125 C 5.882812 -15.878906 5.640625 -15.363281 5.640625 -14.78125 C 5.640625 -14.175781 5.910156 -13.664062 6.453125 -13.25 C 7.003906 -12.84375 7.875 -12.359375 9.0625 -11.796875 C 10.195312 -11.273438 11.125 -10.789062 11.84375 -10.34375 C 12.5625 -9.90625 13.171875 -9.320312 13.671875 -8.59375 C 14.179688 -7.863281 14.4375 -6.96875 14.4375 -5.90625 C 14.4375 -4.769531 14.125 -3.726562 13.5 -2.78125 C 12.882812 -1.84375 12.003906 -1.097656 10.859375 -0.546875 C 9.722656 0.00390625 8.40625 0.28125 6.90625 0.28125 C 4.9375 0.28125 2.957031 -0.144531 0.96875 -1 L 1.5625 -4.921875 L 2.015625 -5.171875 C 2.847656 -4.441406 3.753906 -3.882812 4.734375 -3.5 C 5.722656 -3.113281 6.601562 -2.921875 7.375 -2.921875 C 8.289062 -2.921875 9 -3.144531 9.5 -3.59375 C 10.007812 -4.039062 10.265625 -4.578125 10.265625 -5.203125 C 10.265625 -5.859375 9.988281 -6.394531 9.4375 -6.8125 C 8.894531 -7.226562 8.007812 -7.726562 6.78125 -8.3125 C 5.664062 -8.8125 4.753906 -9.273438 4.046875 -9.703125 C 3.335938 -10.140625 2.734375 -10.722656 2.234375 -11.453125 C 1.742188 -12.179688 1.5 -13.0625 1.5 -14.09375 C 1.5 -15.257812 1.804688 -16.3125 2.421875 -17.25 C 3.046875 -18.195312 3.914062 -18.941406 5.03125 -19.484375 C 6.15625 -20.023438 7.4375 -20.296875 8.875 -20.296875 Z M 8.875 -20.296875 "/></g></g></g><g fill="#1e1e24" fill-opacity="1"><g transform="translate(37.0694, 171.016306)"><g><path d="M 15.03125 -3.484375 L 15.28125 -3.140625 L 15 0 L 2.421875 0 L 2.640625 -5.96875 L 2.421875 -20.046875 L 15.125 -20.046875 L 15.375 -19.703125 L 15.0625 -16.5625 L 10.265625 -16.71875 L 6.65625 -16.6875 L 6.5625 -11.859375 L 10.015625 -11.796875 L 13.296875 -11.890625 L 13.546875 -11.578125 L 13.265625 -8.4375 L 9.71875 -8.53125 L 6.5 -8.5 L 6.46875 -6.34375 L 6.5625 -3.328125 L 10.078125 -3.296875 Z M 15.03125 -3.484375 "/></g></g></g><g fill="#1e1e24" fill-opacity="1"><g transform="translate(53.715208, 171.016306)"><g><path d="M 13.015625 -10.390625 C 14.378906 -10.054688 15.390625 -9.5 16.046875 -8.71875 C 16.703125 -7.945312 17.03125 -6.929688 17.03125 -5.671875 C 17.03125 -1.785156 13.988281 0.15625 7.90625 0.15625 C 6.125 0.15625 4.296875 0.101562 2.421875 0 L 2.640625 -5.96875 L 2.421875 -20.046875 L 9.5625 -20.078125 C 11.613281 -20.078125 13.207031 -19.644531 14.34375 -18.78125 C 15.488281 -17.925781 16.0625 -16.6875 16.0625 -15.0625 C 16.0625 -13.988281 15.796875 -13.046875 15.265625 -12.234375 C 14.734375 -11.421875 13.984375 -10.804688 13.015625 -10.390625 Z M 11.734375 -14.5 C 11.734375 -15.414062 11.460938 -16.066406 10.921875 -16.453125 C 10.378906 -16.835938 9.4375 -17.03125 8.09375 -17.03125 L 6.5625 -17.03125 L 6.46875 -11.578125 L 9.40625 -11.484375 C 10.1875 -11.691406 10.769531 -12.035156 11.15625 -12.515625 C 11.539062 -12.992188 11.734375 -13.65625 11.734375 -14.5 Z M 8.625 -2.859375 C 9.925781 -2.859375 10.9375 -3.117188 11.65625 -3.640625 C 12.375 -4.160156 12.734375 -4.90625 12.734375 -5.875 C 12.734375 -7.351562 11.773438 -8.269531 9.859375 -8.625 L 6.40625 -8.5625 L 6.375 -6.34375 L 6.46875 -2.984375 C 7.195312 -2.898438 7.914062 -2.859375 8.625 -2.859375 Z M 8.625 -2.859375 "/></g></g></g><g fill="#1e1e24" fill-opacity="1"><g transform="translate(72.538941, 171.016306)"><g><path d="M 18.171875 0 L 13.875 0 L 13.390625 -2.609375 L 12.859375 -4.484375 L 8.9375 -4.578125 L 5.484375 -4.484375 L 4.953125 -2.828125 L 4.421875 0 L 0.25 0 L 7.03125 -20.046875 L 12.046875 -20.046875 Z M 11.953125 -7.75 L 9.59375 -16.09375 L 9.3125 -16.09375 L 6.5625 -7.75 L 9.25 -7.6875 Z M 11.953125 -7.75 "/></g></g></g><g fill="#1e1e24" fill-opacity="1"><g transform="translate(92.016052, 171.016306)"><g><path d="M 8.875 -20.296875 C 10.570312 -20.296875 12.257812 -19.953125 13.9375 -19.265625 L 13.265625 -15.625 L 12.640625 -15.375 C 11.929688 -15.875 11.195312 -16.269531 10.4375 -16.5625 C 9.6875 -16.851562 9 -17 8.375 -17 C 7.539062 -17 6.875 -16.773438 6.375 -16.328125 C 5.882812 -15.878906 5.640625 -15.363281 5.640625 -14.78125 C 5.640625 -14.175781 5.910156 -13.664062 6.453125 -13.25 C 7.003906 -12.84375 7.875 -12.359375 9.0625 -11.796875 C 10.195312 -11.273438 11.125 -10.789062 11.84375 -10.34375 C 12.5625 -9.90625 13.171875 -9.320312 13.671875 -8.59375 C 14.179688 -7.863281 14.4375 -6.96875 14.4375 -5.90625 C 14.4375 -4.769531 14.125 -3.726562 13.5 -2.78125 C 12.882812 -1.84375 12.003906 -1.097656 10.859375 -0.546875 C 9.722656 0.00390625 8.40625 0.28125 6.90625 0.28125 C 4.9375 0.28125 2.957031 -0.144531 0.96875 -1 L 1.5625 -4.921875 L 2.015625 -5.171875 C 2.847656 -4.441406 3.753906 -3.882812 4.734375 -3.5 C 5.722656 -3.113281 6.601562 -2.921875 7.375 -2.921875 C 8.289062 -2.921875 9 -3.144531 9.5 -3.59375 C 10.007812 -4.039062 10.265625 -4.578125 10.265625 -5.203125 C 10.265625 -5.859375 9.988281 -6.394531 9.4375 -6.8125 C 8.894531 -7.226562 8.007812 -7.726562 6.78125 -8.3125 C 5.664062 -8.8125 4.753906 -9.273438 4.046875 -9.703125 C 3.335938 -10.140625 2.734375 -10.722656 2.234375 -11.453125 C 1.742188 -12.179688 1.5 -13.0625 1.5 -14.09375 C 1.5 -15.257812 1.804688 -16.3125 2.421875 -17.25 C 3.046875 -18.195312 3.914062 -18.941406 5.03125 -19.484375 C 6.15625 -20.023438 7.4375 -20.296875 8.875 -20.296875 Z M 8.875 -20.296875 "/></g></g></g><g fill="#1e1e24" fill-opacity="1"><g transform="translate(107.915088, 171.016306)"><g><path d="M 15.21875 -19.703125 L 14.96875 -16.5625 L 11.203125 -16.75 L 9.953125 -16.75 L 9.796875 -6.34375 L 9.984375 0 L 5.765625 0 L 5.96875 -5.96875 L 5.828125 -16.75 L 4.578125 -16.75 L 0.75 -16.5625 L 0.46875 -16.90625 L 0.75 -20.046875 L 14.96875 -20.046875 Z M 15.21875 -19.703125 "/></g></g></g><g fill="#1e1e24" fill-opacity="1"><g transform="translate(124.249754, 171.016306)"><g><path d="M 6.46875 -6.34375 L 6.65625 0 L 2.421875 0 L 2.640625 -5.96875 L 2.421875 -20.046875 L 6.71875 -20.046875 Z M 6.46875 -6.34375 "/></g></g></g><g fill="#1e1e24" fill-opacity="1"><g transform="translate(134.237322, 171.016306)"><g><path d="M 18.171875 0 L 13.875 0 L 13.390625 -2.609375 L 12.859375 -4.484375 L 8.9375 -4.578125 L 5.484375 -4.484375 L 4.953125 -2.828125 L 4.421875 0 L 0.25 0 L 7.03125 -20.046875 L 12.046875 -20.046875 Z M 11.953125 -7.75 L 9.59375 -16.09375 L 9.3125 -16.09375 L 6.5625 -7.75 L 9.25 -7.6875 Z M 12.859375 -27.578125 L 13.921875 -25.125 L 13.796875 -24.75 C 11.773438 -23.957031 9.53125 -23.148438 7.0625 -22.328125 L 6.6875 -22.453125 L 6.015625 -24.15625 C 8.566406 -25.445312 10.710938 -26.617188 12.453125 -27.671875 Z M 12.859375 -27.578125 "/></g></g></g><g fill="#1e1e24" fill-opacity="1"><g transform="translate(153.714432, 171.016306)"><g><path d="M 18.984375 -6.1875 L 19.140625 0 L 14.59375 0 L 6.40625 -13.578125 L 6.15625 -13.578125 L 6.125 -6.90625 L 6.25 0 L 2.421875 0 L 2.640625 -5.90625 L 2.453125 -20.046875 L 6.96875 -20.046875 L 15.15625 -6.46875 L 15.4375 -6.46875 L 15.34375 -19.859375 L 19.234375 -20.109375 Z M 18.984375 -6.1875 "/></g></g></g><g fill="#1e1e24" fill-opacity="1"><g transform="translate(176.147312, 171.016306)"><g/></g></g><g fill="#1e1e24" fill-opacity="1"><g transform="translate(181.654575, 171.016306)"><g><path d="M 10.484375 -20.171875 C 13.390625 -20.171875 15.617188 -19.359375 17.171875 -17.734375 C 18.734375 -16.117188 19.515625 -13.796875 19.515625 -10.765625 C 19.515625 -7.222656 18.640625 -4.503906 16.890625 -2.609375 C 15.148438 -0.722656 12.664062 0.21875 9.4375 0.21875 C 8.457031 0.21875 7.285156 0.195312 5.921875 0.15625 C 4.566406 0.113281 3.398438 0.0625 2.421875 0 L 2.640625 -5.96875 L 2.421875 -20.046875 Z M 10.171875 -3.046875 C 13.472656 -3.046875 15.125 -5.296875 15.125 -9.796875 C 15.125 -12.253906 14.722656 -14.035156 13.921875 -15.140625 C 13.128906 -16.253906 11.878906 -16.8125 10.171875 -16.8125 C 9.078125 -16.8125 7.90625 -16.757812 6.65625 -16.65625 L 6.46875 -6.34375 L 6.5625 -3.265625 C 8.019531 -3.117188 9.222656 -3.046875 10.171875 -3.046875 Z M 10.171875 -3.046875 "/></g></g></g><g fill="#1e1e24" fill-opacity="1"><g transform="translate(202.84292, 171.016306)"><g><path d="M 17.828125 -9.859375 L 17.796875 -7.21875 C 17.816406 -4.832031 17.125 -2.984375 15.71875 -1.671875 C 14.3125 -0.367188 12.289062 0.28125 9.65625 0.28125 C 7.113281 0.28125 5.179688 -0.347656 3.859375 -1.609375 C 2.535156 -2.878906 1.898438 -4.695312 1.953125 -7.0625 L 1.984375 -9.953125 L 1.90625 -20.046875 L 6.125 -20.046875 L 5.90625 -7.625 C 5.882812 -6.113281 6.207031 -4.992188 6.875 -4.265625 C 7.539062 -3.535156 8.546875 -3.171875 9.890625 -3.171875 C 12.585938 -3.171875 13.925781 -4.582031 13.90625 -7.40625 L 13.6875 -20.046875 L 17.984375 -20.046875 Z M 17.828125 -9.859375 "/></g></g></g><g fill="#1e1e24" fill-opacity="1"><g transform="translate(223.502355, 171.016306)"><g><path d="M 12.953125 -7.96875 C 14.566406 -5.394531 16.171875 -3.070312 17.765625 -1 L 17.703125 -0.53125 C 16.359375 -0.0507812 14.984375 0.226562 13.578125 0.3125 L 13.140625 -0.03125 C 11.640625 -2.601562 10.425781 -4.84375 9.5 -6.75 L 6.46875 -6.75 L 6.46875 -6.34375 L 6.65625 0 L 2.421875 0 L 2.640625 -5.96875 L 2.421875 -20.046875 L 10.109375 -20.078125 C 12.210938 -20.078125 13.832031 -19.5625 14.96875 -18.53125 C 16.113281 -17.507812 16.6875 -16.039062 16.6875 -14.125 C 16.6875 -12.84375 16.359375 -11.664062 15.703125 -10.59375 C 15.046875 -9.53125 14.128906 -8.65625 12.953125 -7.96875 Z M 6.53125 -10.015625 L 9.625 -9.890625 C 11.382812 -10.492188 12.265625 -11.769531 12.265625 -13.71875 C 12.265625 -14.78125 11.976562 -15.578125 11.40625 -16.109375 C 10.832031 -16.640625 9.957031 -16.925781 8.78125 -16.96875 L 6.65625 -16.84375 Z M 6.53125 -10.015625 "/></g></g></g><g fill="#1e1e24" fill-opacity="1"><g transform="translate(242.668324, 171.016306)"><g><path d="M 18.171875 0 L 13.875 0 L 13.390625 -2.609375 L 12.859375 -4.484375 L 8.9375 -4.578125 L 5.484375 -4.484375 L 4.953125 -2.828125 L 4.421875 0 L 0.25 0 L 7.03125 -20.046875 L 12.046875 -20.046875 Z M 11.953125 -7.75 L 9.59375 -16.09375 L 9.3125 -16.09375 L 6.5625 -7.75 L 9.25 -7.6875 Z M 12.859375 -27.578125 L 13.921875 -25.125 L 13.796875 -24.75 C 11.773438 -23.957031 9.53125 -23.148438 7.0625 -22.328125 L 6.6875 -22.453125 L 6.015625 -24.15625 C 8.566406 -25.445312 10.710938 -26.617188 12.453125 -27.671875 Z M 12.859375 -27.578125 "/></g></g></g><g fill="#1e1e24" fill-opacity="1"><g transform="translate(262.145434, 171.016306)"><g><path d="M 18.984375 -6.1875 L 19.140625 0 L 14.59375 0 L 6.40625 -13.578125 L 6.15625 -13.578125 L 6.125 -6.90625 L 6.25 0 L 2.421875 0 L 2.640625 -5.90625 L 2.453125 -20.046875 L 6.96875 -20.046875 L 15.15625 -6.46875 L 15.4375 -6.46875 L 15.34375 -19.859375 L 19.234375 -20.109375 Z M 18.984375 -6.1875 "/></g></g></g><g fill="#ffffff" fill-opacity="1"><g transform="translate(22.007934, 200.191965)"><g><path d="M 10.375 -14 L 10.25 -12.640625 L 7.765625 -12.765625 L 6.328125 -12.765625 L 6.265625 -4.421875 L 6.328125 0 L 4.53125 0 L 4.671875 -4.265625 L 4.5625 -12.765625 L 3.125 -12.765625 L 0.59375 -12.640625 L 0.484375 -12.8125 L 0.625 -14.1875 L 10.25 -14.1875 Z M 10.375 -14 "/></g></g></g><g fill="#ffffff" fill-opacity="1"><g transform="translate(38.550815, 200.191965)"><g><path d="M 10.15625 -1.375 L 10.015625 0 L 2.0625 0 L 2.171875 -4.265625 L 2.0625 -14.1875 L 10.046875 -14.1875 L 10.140625 -14 L 10 -12.640625 L 6.65625 -12.703125 L 3.84375 -12.65625 L 3.8125 -8.015625 L 6.453125 -7.96875 L 8.8125 -8.03125 L 8.9375 -7.875 L 8.78125 -6.5 L 6.3125 -6.546875 L 3.78125 -6.53125 L 3.765625 -4.421875 L 3.828125 -1.484375 L 6.640625 -1.453125 L 10.046875 -1.546875 Z M 10.15625 -1.375 "/></g></g></g><g fill="#ffffff" fill-opacity="1"><g transform="translate(54.916792, 200.191965)"><g><path d="M 7.828125 -5.734375 C 8.804688 -4.117188 10.03125 -2.347656 11.5 -0.421875 L 11.484375 -0.203125 C 10.953125 0.00390625 10.40625 0.140625 9.84375 0.203125 L 9.609375 0.046875 C 8.390625 -1.765625 7.300781 -3.535156 6.34375 -5.265625 L 3.765625 -5.265625 L 3.765625 -4.421875 L 3.84375 0 L 2.0625 0 L 2.171875 -4.265625 L 2.0625 -14.1875 L 6.390625 -14.203125 C 7.773438 -14.203125 8.847656 -13.851562 9.609375 -13.15625 C 10.367188 -12.457031 10.75 -11.457031 10.75 -10.15625 C 10.75 -9.175781 10.492188 -8.300781 9.984375 -7.53125 C 9.472656 -6.757812 8.753906 -6.160156 7.828125 -5.734375 Z M 3.78125 -6.765625 L 6.4375 -6.703125 C 8.09375 -7.171875 8.921875 -8.269531 8.921875 -10 C 8.921875 -10.894531 8.675781 -11.566406 8.1875 -12.015625 C 7.695312 -12.472656 6.96875 -12.71875 6 -12.75 L 3.84375 -12.671875 Z M 3.78125 -6.765625 "/></g></g></g><g fill="#ffffff" fill-opacity="1"><g transform="translate(72.897027, 200.191965)"><g><path d="M 12.296875 0 L 10.484375 0 L 10.15625 -1.421875 L 9.359375 -3.84375 L 6.171875 -3.921875 L 3.296875 -3.84375 L 2.4375 -1.5 L 2.078125 0 L 0.3125 0 L 5.515625 -14.1875 L 7.5625 -14.1875 Z M 8.875 -5.359375 L 6.578125 -12.34375 L 6.421875 -12.34375 L 3.84375 -5.359375 L 6.328125 -5.3125 Z M 8.875 -5.359375 "/></g></g></g><g fill="#ffffff" fill-opacity="1"><g transform="translate(91.385872, 200.191965)"><g><path d="M 6.390625 -14.203125 C 7.773438 -14.203125 8.84375 -13.84375 9.59375 -13.125 C 10.351562 -12.414062 10.734375 -11.390625 10.734375 -10.046875 C 10.734375 -8.460938 10.265625 -7.222656 9.328125 -6.328125 C 8.390625 -5.429688 7.09375 -4.984375 5.4375 -4.984375 L 3.765625 -4.984375 L 3.765625 -4.421875 L 3.84375 0 L 2.0625 0 L 2.171875 -4.265625 L 2.0625 -14.1875 Z M 6.109375 -6.421875 C 7.023438 -6.566406 7.722656 -6.929688 8.203125 -7.515625 C 8.679688 -8.109375 8.921875 -8.898438 8.921875 -9.890625 C 8.921875 -11.722656 7.945312 -12.675781 6 -12.75 L 3.84375 -12.671875 L 3.78125 -6.453125 Z M 6.109375 -6.421875 "/></g></g></g><g fill="#ffffff" fill-opacity="1"><g transform="translate(108.592143, 200.191965)"><g><path d="M 10.15625 -1.375 L 10.015625 0 L 2.0625 0 L 2.171875 -4.265625 L 2.0625 -14.1875 L 10.046875 -14.1875 L 10.140625 -14 L 10 -12.640625 L 6.65625 -12.703125 L 3.84375 -12.65625 L 3.8125 -8.015625 L 6.453125 -7.96875 L 8.8125 -8.03125 L 8.9375 -7.875 L 8.78125 -6.5 L 6.3125 -6.546875 L 3.78125 -6.53125 L 3.765625 -4.421875 L 3.828125 -1.484375 L 6.640625 -1.453125 L 10.046875 -1.546875 Z M 10.15625 -1.375 "/></g></g></g><g fill="#ffffff" fill-opacity="1"><g transform="translate(124.958121, 200.191965)"><g><path d="M 12.1875 -6.96875 L 12.171875 -5.375 C 12.203125 -3.632812 11.742188 -2.273438 10.796875 -1.296875 C 9.847656 -0.328125 8.503906 0.15625 6.765625 0.15625 C 5.097656 0.15625 3.816406 -0.304688 2.921875 -1.234375 C 2.035156 -2.171875 1.609375 -3.484375 1.640625 -5.171875 L 1.65625 -7.109375 L 1.640625 -14.1875 L 3.390625 -14.1875 L 3.3125 -5.40625 C 3.300781 -4.070312 3.597656 -3.066406 4.203125 -2.390625 C 4.804688 -1.722656 5.707031 -1.390625 6.90625 -1.390625 C 8.09375 -1.390625 8.992188 -1.707031 9.609375 -2.34375 C 10.234375 -2.976562 10.539062 -3.921875 10.53125 -5.171875 L 10.4375 -14.1875 L 12.21875 -14.1875 Z M 12.1875 -6.96875 "/></g></g></g><g fill="#ffffff" fill-opacity="1"><g transform="translate(144.508394, 200.191965)"><g><path d="M 10.375 -14 L 10.25 -12.640625 L 7.765625 -12.765625 L 6.328125 -12.765625 L 6.265625 -4.421875 L 6.328125 0 L 4.53125 0 L 4.671875 -4.265625 L 4.5625 -12.765625 L 3.125 -12.765625 L 0.59375 -12.640625 L 0.484375 -12.8125 L 0.625 -14.1875 L 10.25 -14.1875 Z M 10.375 -14 "/></g></g></g><g fill="#ffffff" fill-opacity="1"><g transform="translate(159.834813, 200.191965)"><g><path d="M 12.296875 0 L 10.484375 0 L 10.15625 -1.421875 L 9.359375 -3.84375 L 6.171875 -3.921875 L 3.296875 -3.84375 L 2.4375 -1.5 L 2.078125 0 L 0.3125 0 L 5.515625 -14.1875 L 7.5625 -14.1875 Z M 8.875 -5.359375 L 6.578125 -12.34375 L 6.421875 -12.34375 L 3.84375 -5.359375 L 6.328125 -5.3125 Z M 8.875 -5.359375 "/></g></g></g><g fill="#ffffff" fill-opacity="1"><g transform="translate(178.323658, 200.191965)"><g/></g></g><g fill="#ffffff" fill-opacity="1"><g transform="translate(187.67974, 200.191965)"><g><path d="M 3.84375 -12.65625 L 3.8125 -7.71875 L 6.1875 -7.671875 L 8.5 -7.75 L 8.625 -7.5625 L 8.46875 -6.21875 L 6.015625 -6.28125 L 3.78125 -6.265625 L 3.765625 -4.421875 L 3.84375 0 L 2.0625 0 L 2.171875 -4.265625 L 2.0625 -14.1875 L 9.609375 -14.1875 L 9.734375 -14 L 9.578125 -12.59375 L 6.328125 -12.703125 Z M 3.84375 -12.65625 "/></g></g></g><g fill="#ffffff" fill-opacity="1"><g transform="translate(202.984278, 200.191965)"><g><path d="M 9.140625 -1.328125 L 8.984375 0 L 1.984375 0 L 2.109375 -4.265625 L 1.984375 -14.1875 L 3.8125 -14.1875 L 3.6875 -4.421875 L 3.765625 -1.484375 L 9 -1.484375 Z M 9.140625 -1.328125 "/></g></g></g><g fill="#ffffff" fill-opacity="1"><g transform="translate(217.116667, 200.191965)"><g><path d="M 7.1875 -14.3125 C 9.132812 -14.3125 10.628906 -13.710938 11.671875 -12.515625 C 12.710938 -11.328125 13.234375 -9.613281 13.234375 -7.375 C 13.234375 -4.945312 12.675781 -3.082031 11.5625 -1.78125 C 10.457031 -0.476562 8.882812 0.171875 6.84375 0.171875 C 4.914062 0.171875 3.429688 -0.445312 2.390625 -1.6875 C 1.359375 -2.925781 0.84375 -4.6875 0.84375 -6.96875 C 0.84375 -9.332031 1.390625 -11.144531 2.484375 -12.40625 C 3.585938 -13.675781 5.15625 -14.3125 7.1875 -14.3125 Z M 7.078125 -12.875 C 4.128906 -12.875 2.65625 -10.972656 2.65625 -7.171875 C 2.65625 -5.148438 3.007812 -3.648438 3.71875 -2.671875 C 4.4375 -1.703125 5.519531 -1.21875 6.96875 -1.21875 C 9.914062 -1.21875 11.390625 -3.15625 11.390625 -7.03125 C 11.390625 -9.007812 11.03125 -10.476562 10.3125 -11.4375 C 9.601562 -12.394531 8.523438 -12.875 7.078125 -12.875 Z M 7.078125 -12.875 "/></g></g></g><g fill="#ffffff" fill-opacity="1"><g transform="translate(236.865964, 200.191965)"><g><path d="M 7.828125 -5.734375 C 8.804688 -4.117188 10.03125 -2.347656 11.5 -0.421875 L 11.484375 -0.203125 C 10.953125 0.00390625 10.40625 0.140625 9.84375 0.203125 L 9.609375 0.046875 C 8.390625 -1.765625 7.300781 -3.535156 6.34375 -5.265625 L 3.765625 -5.265625 L 3.765625 -4.421875 L 3.84375 0 L 2.0625 0 L 2.171875 -4.265625 L 2.0625 -14.1875 L 6.390625 -14.203125 C 7.773438 -14.203125 8.847656 -13.851562 9.609375 -13.15625 C 10.367188 -12.457031 10.75 -11.457031 10.75 -10.15625 C 10.75 -9.175781 10.492188 -8.300781 9.984375 -7.53125 C 9.472656 -6.757812 8.753906 -6.160156 7.828125 -5.734375 Z M 3.78125 -6.765625 L 6.4375 -6.703125 C 8.09375 -7.171875 8.921875 -8.269531 8.921875 -10 C 8.921875 -10.894531 8.675781 -11.566406 8.1875 -12.015625 C 7.695312 -12.472656 6.96875 -12.71875 6 -12.75 L 3.84375 -12.671875 Z M 3.78125 -6.765625 "/></g></g></g><g fill="#ffffff" fill-opacity="1"><g transform="translate(254.84621, 200.191965)"><g><path d="M 12.296875 0 L 10.484375 0 L 10.15625 -1.421875 L 9.359375 -3.84375 L 6.171875 -3.921875 L 3.296875 -3.84375 L 2.4375 -1.5 L 2.078125 0 L 0.3125 0 L 5.515625 -14.1875 L 7.5625 -14.1875 Z M 8.875 -5.359375 L 6.578125 -12.34375 L 6.421875 -12.34375 L 3.84375 -5.359375 L 6.328125 -5.3125 Z M 8.875 -5.359375 "/></g></g></g><g fill="#ffffff" fill-opacity="1"><g transform="translate(273.335055, 200.191965)"><g><path d="M 9.140625 -1.328125 L 8.984375 0 L 1.984375 0 L 2.109375 -4.265625 L 1.984375 -14.1875 L 3.8125 -14.1875 L 3.6875 -4.421875 L 3.765625 -1.484375 L 9 -1.484375 Z M 9.140625 -1.328125 "/></g></g></g></svg>