<svg xmlns="http://www.w3.org/2000/svg" xmlns:xlink="http://www.w3.org/1999/xlink" width="400" zoomAndPan="magnify" viewBox="0 0 300 225" height="300" preserveAspectRatio="xMidYMid meet" version="1.2"><defs><clipPath id="2ef5d26a7e"><path d="M 80 90 L 276.472656 90 L 276.472656 113 L 80 113 Z M 80 90 "/></clipPath><clipPath id="80b20440d5"><path d="M 122 29.285156 L 147 29.285156 L 147 79 L 122 79 Z M 122 29.285156 "/></clipPath><clipPath id="5cd547af56"><path d="M 74.722656 76 L 124 76 L 124 100 L 74.722656 100 Z M 74.722656 76 "/></clipPath></defs><g id="9b057c45c0"><g clip-rule="nonzero" clip-path="url(#2ef5d26a7e)"><path style=" stroke:none;fill-rule:evenodd;fill:#ff6600;fill-opacity:1;" d="M 80.835938 111.496094 C 152.773438 57.992188 215.351562 129.589844 276.472656 97.203125 C 233.085938 143.011719 148.585938 69.757812 80.835938 111.496094 "/></g><g clip-rule="nonzero" clip-path="url(#80b20440d5)"><path style=" stroke:none;fill-rule:evenodd;fill:#ff6600;fill-opacity:1;" d="M 125.613281 78.175781 C 123.433594 72.78125 122.230469 66.882812 122.230469 60.707031 C 122.230469 48.59375 126.847656 37.5625 134.414062 29.265625 C 141.984375 37.5625 146.601562 48.59375 146.601562 60.707031 C 146.601562 66.886719 145.398438 72.78125 143.222656 78.175781 C 144.429688 74.3125 145.085938 70.203125 145.085938 65.945312 C 145.085938 55.335938 141.042969 45.675781 134.414062 38.414062 C 127.789062 45.675781 123.75 55.335938 123.75 65.945312 C 123.75 70.203125 124.402344 74.3125 125.613281 78.175781 "/></g><path style=" stroke:none;fill-rule:evenodd;fill:#ff6600;fill-opacity:1;" d="M 121.398438 84.023438 C 116.816406 80.4375 112.828125 75.933594 109.738281 70.585938 C 103.683594 60.09375 102.164062 48.230469 104.570312 37.265625 C 115.273438 40.664062 124.785156 47.910156 130.84375 58.402344 C 133.929688 63.75 135.839844 69.457031 136.648438 75.21875 C 135.765625 71.269531 134.277344 67.382812 132.148438 63.691406 C 126.84375 54.507812 118.511719 48.164062 109.144531 45.1875 C 107.035156 54.789062 108.367188 65.175781 113.667969 74.359375 C 115.800781 78.050781 118.421875 81.28125 121.398438 84.023438 "/><path style=" stroke:none;fill-rule:evenodd;fill:#ff6600;fill-opacity:1;" d="M 118.070312 90.75 C 113.195312 89.777344 108.398438 88.007812 103.859375 85.386719 C 93.367188 79.328125 86.121094 69.8125 82.722656 59.113281 C 93.6875 56.707031 105.550781 58.226562 116.042969 64.28125 C 121.390625 67.371094 125.894531 71.359375 129.480469 75.941406 C 126.738281 72.960938 123.507812 70.34375 119.816406 68.210938 C 110.632812 62.910156 100.246094 61.578125 90.644531 63.6875 C 93.621094 73.058594 99.964844 81.386719 109.152344 86.691406 C 112.164062 88.429688 115.308594 89.742188 118.511719 90.648438 C 118.363281 90.679688 118.214844 90.714844 118.070312 90.75 "/><g clip-rule="nonzero" clip-path="url(#5cd547af56)"><path style=" stroke:none;fill-rule:evenodd;fill:#ff6600;fill-opacity:1;" d="M 94.738281 99.734375 C 87.160156 97.824219 80.316406 94.0625 74.722656 88.960938 C 83.019531 81.390625 94.050781 76.773438 106.167969 76.773438 C 112.34375 76.773438 118.238281 77.976562 123.632812 80.15625 C 119.769531 78.945312 115.664062 78.292969 111.402344 78.292969 C 100.796875 78.292969 91.132812 82.332031 83.871094 88.960938 C 88.128906 92.84375 93.207031 95.835938 98.820312 97.652344 C 97.460938 98.308594 96.101562 98.996094 94.738281 99.734375 "/></g><path style=" stroke:none;fill-rule:evenodd;fill:#ff6600;fill-opacity:1;" d="M 132.183594 75.21875 C 132.992188 69.457031 134.902344 63.75 137.988281 58.402344 C 144.046875 47.910156 153.5625 40.664062 164.261719 37.261719 C 166.667969 48.230469 165.152344 60.09375 159.09375 70.585938 C 156.003906 75.933594 152.019531 80.4375 147.433594 84.023438 C 150.414062 81.28125 153.03125 78.050781 155.164062 74.359375 C 160.464844 65.175781 161.796875 54.789062 159.6875 45.1875 C 150.320312 48.164062 141.988281 54.507812 136.6875 63.691406 C 134.554688 67.382812 133.066406 71.265625 132.183594 75.21875 "/><path style=" stroke:none;fill-rule:evenodd;fill:#ff6600;fill-opacity:1;" d="M 139.355469 75.941406 C 142.9375 71.359375 147.441406 67.371094 152.789062 64.28125 C 163.28125 58.226562 175.144531 56.707031 186.113281 59.113281 C 182.710938 69.8125 175.464844 79.328125 164.972656 85.386719 C 162.421875 86.859375 159.792969 88.0625 157.109375 89.007812 C 156.558594 88.941406 156.003906 88.878906 155.453125 88.820312 C 156.886719 88.199219 158.296875 87.488281 159.683594 86.691406 C 168.867188 81.386719 175.210938 73.058594 178.1875 63.6875 C 168.585938 61.578125 158.199219 62.910156 149.015625 68.210938 C 145.324219 70.34375 142.09375 72.960938 139.355469 75.941406 "/><path style=" stroke:none;fill-rule:evenodd;fill:#ff6600;fill-opacity:1;" d="M 145.199219 80.15625 C 150.59375 77.976562 156.492188 76.773438 162.667969 76.773438 C 174.78125 76.773438 185.8125 81.390625 194.109375 88.957031 C 191.839844 91.027344 189.367188 92.875 186.726562 94.46875 C 184.4375 93.945312 182.144531 93.433594 179.84375 92.9375 C 181.652344 91.746094 183.363281 90.414062 184.960938 88.957031 C 177.699219 82.332031 168.039062 78.289062 157.433594 78.289062 C 153.171875 78.289062 149.0625 78.945312 145.199219 80.15625 "/><path style=" stroke:none;fill-rule:evenodd;fill:#ff6600;fill-opacity:1;" d="M 134.417969 77.785156 C 140.304688 77.785156 145.128906 82.34375 145.558594 88.125 C 144.90625 88.101562 144.253906 88.09375 143.605469 88.082031 C 143.160156 83.394531 139.21875 79.730469 134.417969 79.730469 C 129.320312 79.730469 125.1875 83.863281 125.1875 88.960938 C 125.1875 89.085938 125.191406 89.207031 125.195312 89.332031 C 124.554688 89.433594 123.910156 89.535156 123.265625 89.652344 C 123.253906 89.421875 123.246094 89.191406 123.246094 88.960938 C 123.246094 82.789062 128.246094 77.785156 134.417969 77.785156 "/><path style=" stroke:none;fill-rule:evenodd;fill:#ff6600;fill-opacity:1;" d="M 89.140625 110.703125 C 129.546875 90.710938 171.164062 112.375 213.332031 113.371094 C 171.214844 115.832031 129.195312 98.550781 89.140625 110.703125 "/><g style="fill:#3e28c0;fill-opacity:1;"><g transform="translate(8.056483, 154.058745)"><path style="stroke:none" d="M 10.421875 -3.84375 C 10.421875 -3.113281 10.453125 -2.429688 10.515625 -1.796875 C 10.585938 -1.160156 10.722656 -0.5625 10.921875 0 L 6.546875 0 C 6.765625 -0.5625 6.90625 -1.160156 6.96875 -1.796875 C 7.039062 -2.429688 7.078125 -3.113281 7.078125 -3.84375 C 7.078125 -6.613281 7.078125 -9.390625 7.078125 -12.171875 C 7.078125 -14.953125 7.078125 -17.738281 7.078125 -20.53125 L 4.046875 -20.53125 C 3.191406 -20.53125 2.5 -20.390625 1.96875 -20.109375 C 1.445312 -19.828125 1.050781 -19.519531 0.78125 -19.1875 C 0.507812 -18.851562 0.335938 -18.578125 0.265625 -18.359375 L 0 -18.359375 L 0.203125 -21.65625 L 17.296875 -21.65625 L 17.5 -18.359375 L 17.234375 -18.359375 C 17.160156 -18.578125 16.988281 -18.851562 16.71875 -19.1875 C 16.445312 -19.519531 16.046875 -19.828125 15.515625 -20.109375 C 14.984375 -20.390625 14.285156 -20.53125 13.421875 -20.53125 L 10.421875 -20.53125 C 10.421875 -17.738281 10.421875 -14.953125 10.421875 -12.171875 C 10.421875 -9.390625 10.421875 -6.613281 10.421875 -3.84375 Z M 10.421875 -3.84375 "/></g></g><g style="fill:#3e28c0;fill-opacity:1;"><g transform="translate(27.40182, 154.058745)"><path style="stroke:none" d="M 15.046875 0 L 0 0 C 0.207031 -0.5625 0.34375 -1.160156 0.40625 -1.796875 C 0.476562 -2.429688 0.515625 -3.113281 0.515625 -3.84375 C 0.515625 -4.320312 0.515625 -5.023438 0.515625 -5.953125 C 0.515625 -6.890625 0.515625 -7.9375 0.515625 -9.09375 C 0.515625 -10.25 0.515625 -11.40625 0.515625 -12.5625 C 0.515625 -13.71875 0.515625 -14.757812 0.515625 -15.6875 C 0.515625 -16.625 0.515625 -17.332031 0.515625 -17.8125 C 0.515625 -18.539062 0.476562 -19.226562 0.40625 -19.875 C 0.34375 -20.519531 0.207031 -21.113281 0 -21.65625 L 14.203125 -21.65625 L 14.40625 -18.359375 L 14.171875 -18.359375 C 14.097656 -18.578125 13.925781 -18.851562 13.65625 -19.1875 C 13.382812 -19.519531 12.984375 -19.828125 12.453125 -20.109375 C 11.929688 -20.390625 11.234375 -20.53125 10.359375 -20.53125 L 3.84375 -20.53125 L 3.84375 -10.484375 L 7.015625 -10.484375 C 7.878906 -10.484375 8.578125 -10.617188 9.109375 -10.890625 C 9.640625 -11.171875 10.039062 -11.484375 10.3125 -11.828125 C 10.582031 -12.179688 10.753906 -12.453125 10.828125 -12.640625 L 11.09375 -12.640625 C 11.09375 -11.742188 11.09375 -10.835938 11.09375 -9.921875 C 11.09375 -9.003906 11.09375 -8.09375 11.09375 -7.1875 L 10.828125 -7.1875 C 10.753906 -7.394531 10.582031 -7.664062 10.3125 -8 C 10.039062 -8.34375 9.640625 -8.65625 9.109375 -8.9375 C 8.578125 -9.21875 7.878906 -9.359375 7.015625 -9.359375 L 3.84375 -9.359375 L 3.84375 -1.125 L 11.171875 -1.125 C 12.035156 -1.125 12.734375 -1.265625 13.265625 -1.546875 C 13.796875 -1.828125 14.195312 -2.140625 14.46875 -2.484375 C 14.738281 -2.828125 14.910156 -3.097656 14.984375 -3.296875 L 15.25 -3.296875 Z M 15.046875 0 "/></g></g><g style="fill:#3e28c0;fill-opacity:1;"><g transform="translate(44.495013, 154.058745)"><path style="stroke:none" d="M 8.546875 -21.65625 C 10.160156 -21.65625 11.488281 -21.445312 12.53125 -21.03125 C 13.570312 -20.625 14.34375 -20.070312 14.84375 -19.375 C 15.34375 -18.675781 15.59375 -17.90625 15.59375 -17.0625 C 15.59375 -15.925781 15.3125 -14.984375 14.75 -14.234375 C 14.195312 -13.484375 13.484375 -12.84375 12.609375 -12.3125 C 11.734375 -11.78125 10.800781 -11.273438 9.8125 -10.796875 L 13.546875 -3.84375 C 13.890625 -3.207031 14.289062 -2.519531 14.75 -1.78125 C 15.21875 -1.050781 15.632812 -0.457031 16 0 L 11.40625 0 C 11.207031 -0.863281 10.878906 -1.71875 10.421875 -2.5625 L 6.875 -9.234375 C 6.007812 -8.703125 5.285156 -8.054688 4.703125 -7.296875 C 4.128906 -6.546875 3.84375 -5.597656 3.84375 -4.453125 L 3.84375 -3.84375 C 3.84375 -3.113281 3.878906 -2.429688 3.953125 -1.796875 C 4.035156 -1.160156 4.171875 -0.5625 4.359375 0 C 3.722656 0 2.992188 0 2.171875 0 C 1.359375 0 0.632812 0 0 0 C 0.207031 -0.5625 0.34375 -1.160156 0.40625 -1.796875 C 0.476562 -2.429688 0.515625 -3.113281 0.515625 -3.84375 C 0.515625 -4.320312 0.515625 -5.023438 0.515625 -5.953125 C 0.515625 -6.890625 0.515625 -7.9375 0.515625 -9.09375 C 0.515625 -10.25 0.515625 -11.40625 0.515625 -12.5625 C 0.515625 -13.71875 0.515625 -14.757812 0.515625 -15.6875 C 0.515625 -16.625 0.515625 -17.332031 0.515625 -17.8125 C 0.515625 -18.539062 0.476562 -19.226562 0.40625 -19.875 C 0.34375 -20.519531 0.207031 -21.113281 0 -21.65625 Z M 3.84375 -7.90625 C 4.320312 -8.738281 4.921875 -9.453125 5.640625 -10.046875 C 6.367188 -10.640625 7.117188 -11.179688 7.890625 -11.671875 C 8.671875 -12.171875 9.394531 -12.675781 10.0625 -13.1875 C 10.726562 -13.695312 11.265625 -14.269531 11.671875 -14.90625 C 12.085938 -15.550781 12.28125 -16.316406 12.25 -17.203125 C 12.226562 -18.085938 11.898438 -18.78125 11.265625 -19.28125 C 10.628906 -19.789062 9.8125 -20.144531 8.8125 -20.34375 C 7.8125 -20.539062 6.734375 -20.640625 5.578125 -20.640625 L 3.84375 -20.640625 Z M 3.84375 -7.90625 "/></g></g><g style="fill:#3e28c0;fill-opacity:1;"><g transform="translate(62.310047, 154.058745)"><path style="stroke:none" d="M 11.8125 -21.65625 L 18.25 -3.8125 C 18.476562 -3.175781 18.757812 -2.515625 19.09375 -1.828125 C 19.4375 -1.148438 19.757812 -0.539062 20.0625 0 L 15.671875 0 C 15.671875 -0.5 15.570312 -1.09375 15.375 -1.78125 C 15.175781 -2.476562 14.957031 -3.132812 14.71875 -3.75 C 14.46875 -4.476562 14.179688 -5.125 13.859375 -5.6875 C 13.535156 -6.25 13.070312 -6.710938 12.46875 -7.078125 C 11.800781 -7.492188 11.039062 -7.773438 10.1875 -7.921875 C 9.34375 -8.066406 8.492188 -8.078125 7.640625 -7.953125 C 6.796875 -7.828125 6.039062 -7.5625 5.375 -7.15625 C 4.695312 -6.769531 4.191406 -6.289062 3.859375 -5.71875 C 3.535156 -5.15625 3.238281 -4.519531 2.96875 -3.8125 C 2.601562 -2.789062 2.875 -1.519531 3.78125 0 L 0 0 C 0.320312 -0.539062 0.640625 -1.148438 0.953125 -1.828125 C 1.273438 -2.515625 1.554688 -3.175781 1.796875 -3.8125 L 8.234375 -21.65625 Z M 13.21875 -7.9375 L 8.828125 -19.984375 L 4.46875 -7.9375 C 5.320312 -8.476562 6.257812 -8.835938 7.28125 -9.015625 C 8.3125 -9.203125 9.347656 -9.203125 10.390625 -9.015625 C 11.429688 -8.835938 12.375 -8.476562 13.21875 -7.9375 Z M 13.21875 -7.9375 "/></g></g><g style="fill:#3e28c0;fill-opacity:1;"><g transform="translate(84.196275, 154.058745)"><path style="stroke:none" d="M 8.546875 -21.65625 C 10.160156 -21.65625 11.488281 -21.445312 12.53125 -21.03125 C 13.570312 -20.625 14.34375 -20.070312 14.84375 -19.375 C 15.34375 -18.675781 15.59375 -17.90625 15.59375 -17.0625 C 15.59375 -16.082031 15.378906 -15.238281 14.953125 -14.53125 C 14.535156 -13.832031 13.972656 -13.234375 13.265625 -12.734375 C 12.566406 -12.234375 11.796875 -11.78125 10.953125 -11.375 C 10.117188 -10.96875 9.285156 -10.554688 8.453125 -10.140625 C 7.628906 -9.734375 6.863281 -9.28125 6.15625 -8.78125 C 5.457031 -8.28125 4.894531 -7.675781 4.46875 -6.96875 C 4.050781 -6.269531 3.84375 -5.429688 3.84375 -4.453125 L 3.84375 -3.84375 C 3.84375 -3.113281 3.878906 -2.429688 3.953125 -1.796875 C 4.035156 -1.160156 4.171875 -0.5625 4.359375 0 C 3.722656 0 2.992188 0 2.171875 0 C 1.359375 0 0.632812 0 0 0 C 0.207031 -0.5625 0.34375 -1.160156 0.40625 -1.796875 C 0.476562 -2.429688 0.515625 -3.113281 0.515625 -3.84375 C 0.515625 -4.320312 0.515625 -5.023438 0.515625 -5.953125 C 0.515625 -6.890625 0.515625 -7.9375 0.515625 -9.09375 C 0.515625 -10.25 0.515625 -11.40625 0.515625 -12.5625 C 0.515625 -13.71875 0.515625 -14.757812 0.515625 -15.6875 C 0.515625 -16.625 0.515625 -17.332031 0.515625 -17.8125 C 0.515625 -18.539062 0.476562 -19.226562 0.40625 -19.875 C 0.34375 -20.519531 0.207031 -21.113281 0 -21.65625 Z M 3.84375 -7.90625 C 4.320312 -8.738281 4.921875 -9.453125 5.640625 -10.046875 C 6.367188 -10.640625 7.117188 -11.179688 7.890625 -11.671875 C 8.671875 -12.171875 9.394531 -12.675781 10.0625 -13.1875 C 10.726562 -13.695312 11.265625 -14.269531 11.671875 -14.90625 C 12.085938 -15.550781 12.28125 -16.316406 12.25 -17.203125 C 12.226562 -18.085938 11.898438 -18.78125 11.265625 -19.28125 C 10.628906 -19.789062 9.8125 -20.144531 8.8125 -20.34375 C 7.8125 -20.539062 6.734375 -20.640625 5.578125 -20.640625 L 3.84375 -20.640625 Z M 3.84375 -7.90625 "/></g></g><g style="fill:#3e28c0;fill-opacity:1;"><g transform="translate(101.607071, 154.058745)"><path style="stroke:none" d="M 0.515625 -17.8125 C 0.515625 -18.539062 0.476562 -19.226562 0.40625 -19.875 C 0.34375 -20.519531 0.207031 -21.113281 0 -21.65625 L 4.359375 -21.65625 C 4.171875 -21.113281 4.035156 -20.519531 3.953125 -19.875 C 3.878906 -19.226562 3.84375 -18.539062 3.84375 -17.8125 C 3.84375 -17.332031 3.84375 -16.625 3.84375 -15.6875 C 3.84375 -14.757812 3.84375 -13.71875 3.84375 -12.5625 C 3.84375 -11.40625 3.84375 -10.25 3.84375 -9.09375 C 3.84375 -7.9375 3.84375 -6.890625 3.84375 -5.953125 C 3.84375 -5.023438 3.84375 -4.320312 3.84375 -3.84375 C 3.84375 -3.113281 3.878906 -2.429688 3.953125 -1.796875 C 4.035156 -1.160156 4.171875 -0.5625 4.359375 0 L 0 0 C 0.207031 -0.5625 0.34375 -1.160156 0.40625 -1.796875 C 0.476562 -2.429688 0.515625 -3.113281 0.515625 -3.84375 Z M 0.515625 -17.8125 "/></g></g><g style="fill:#3e28c0;fill-opacity:1;"><g transform="translate(107.872589, 154.058745)"><path style="stroke:none" d="M 11.8125 -21.65625 L 18.25 -3.8125 C 18.476562 -3.175781 18.757812 -2.515625 19.09375 -1.828125 C 19.4375 -1.148438 19.757812 -0.539062 20.0625 0 L 15.671875 0 C 15.671875 -0.5 15.570312 -1.09375 15.375 -1.78125 C 15.175781 -2.476562 14.957031 -3.132812 14.71875 -3.75 C 14.46875 -4.476562 14.179688 -5.125 13.859375 -5.6875 C 13.535156 -6.25 13.070312 -6.710938 12.46875 -7.078125 C 11.800781 -7.492188 11.039062 -7.773438 10.1875 -7.921875 C 9.34375 -8.066406 8.492188 -8.078125 7.640625 -7.953125 C 6.796875 -7.828125 6.039062 -7.5625 5.375 -7.15625 C 4.695312 -6.769531 4.191406 -6.289062 3.859375 -5.71875 C 3.535156 -5.15625 3.238281 -4.519531 2.96875 -3.8125 C 2.601562 -2.789062 2.875 -1.519531 3.78125 0 L 0 0 C 0.320312 -0.539062 0.640625 -1.148438 0.953125 -1.828125 C 1.273438 -2.515625 1.554688 -3.175781 1.796875 -3.8125 L 8.234375 -21.65625 Z M 13.21875 -7.9375 L 8.828125 -19.984375 L 4.46875 -7.9375 C 5.320312 -8.476562 6.257812 -8.835938 7.28125 -9.015625 C 8.3125 -9.203125 9.347656 -9.203125 10.390625 -9.015625 C 11.429688 -8.835938 12.375 -8.476562 13.21875 -7.9375 Z M 13.21875 -7.9375 "/></g></g><g style="fill:#3e28c0;fill-opacity:1;"><g transform="translate(129.758818, 154.058745)"><path style="stroke:none" d=""/></g></g><g style="fill:#3e28c0;fill-opacity:1;"><g transform="translate(139.142703, 154.058745)"><path style="stroke:none" d="M 3.84375 -3.84375 C 3.84375 -3.113281 3.878906 -2.429688 3.953125 -1.796875 C 4.035156 -1.160156 4.171875 -0.5625 4.359375 0 L 0 0 C 0.207031 -0.5625 0.34375 -1.160156 0.40625 -1.796875 C 0.476562 -2.429688 0.515625 -3.113281 0.515625 -3.84375 C 0.515625 -4.320312 0.515625 -5.023438 0.515625 -5.953125 C 0.515625 -6.890625 0.515625 -7.9375 0.515625 -9.09375 C 0.515625 -10.25 0.515625 -11.40625 0.515625 -12.5625 C 0.515625 -13.71875 0.515625 -14.757812 0.515625 -15.6875 C 0.515625 -16.625 0.515625 -17.332031 0.515625 -17.8125 C 0.515625 -18.539062 0.476562 -19.226562 0.40625 -19.875 C 0.34375 -20.519531 0.207031 -21.113281 0 -21.65625 L 4.359375 -21.65625 C 4.171875 -21.113281 4.035156 -20.519531 3.953125 -19.875 C 3.878906 -19.226562 3.84375 -18.539062 3.84375 -17.8125 L 3.84375 -10.484375 L 13.484375 -10.484375 L 13.484375 -17.8125 C 13.484375 -18.539062 13.445312 -19.226562 13.375 -19.875 C 13.3125 -20.519531 13.175781 -21.113281 12.96875 -21.65625 L 17.328125 -21.65625 C 17.128906 -21.113281 16.992188 -20.519531 16.921875 -19.875 C 16.847656 -19.226562 16.8125 -18.539062 16.8125 -17.8125 C 16.8125 -17.332031 16.8125 -16.625 16.8125 -15.6875 C 16.8125 -14.757812 16.8125 -13.71875 16.8125 -12.5625 C 16.8125 -11.40625 16.8125 -10.25 16.8125 -9.09375 C 16.8125 -7.9375 16.8125 -6.890625 16.8125 -5.953125 C 16.8125 -5.023438 16.8125 -4.320312 16.8125 -3.84375 C 16.8125 -3.113281 16.847656 -2.429688 16.921875 -1.796875 C 16.992188 -1.160156 17.128906 -0.5625 17.328125 0 L 12.96875 0 C 13.175781 -0.5625 13.3125 -1.160156 13.375 -1.796875 C 13.445312 -2.429688 13.484375 -3.113281 13.484375 -3.84375 L 13.484375 -9.359375 L 3.84375 -9.359375 Z M 3.84375 -3.84375 "/></g></g><g style="fill:#3e28c0;fill-opacity:1;"><g transform="translate(158.285929, 154.058745)"><path style="stroke:none" d="M 11.234375 -22.0625 C 12.796875 -22.0625 14.253906 -21.769531 15.609375 -21.1875 C 16.960938 -20.613281 18.15625 -19.8125 19.1875 -18.78125 C 20.21875 -17.75 21.019531 -16.554688 21.59375 -15.203125 C 22.175781 -13.847656 22.46875 -12.390625 22.46875 -10.828125 C 22.46875 -9.265625 22.175781 -7.804688 21.59375 -6.453125 C 21.019531 -5.097656 20.21875 -3.90625 19.1875 -2.875 C 18.15625 -1.84375 16.960938 -1.035156 15.609375 -0.453125 C 14.253906 0.117188 12.796875 0.40625 11.234375 0.40625 C 9.671875 0.40625 8.210938 0.117188 6.859375 -0.453125 C 5.503906 -1.035156 4.3125 -1.84375 3.28125 -2.875 C 2.25 -3.90625 1.441406 -5.097656 0.859375 -6.453125 C 0.285156 -7.804688 0 -9.265625 0 -10.828125 C 0 -12.390625 0.285156 -13.847656 0.859375 -15.203125 C 1.441406 -16.554688 2.25 -17.75 3.28125 -18.78125 C 4.3125 -19.8125 5.503906 -20.613281 6.859375 -21.1875 C 8.210938 -21.769531 9.671875 -22.0625 11.234375 -22.0625 Z M 16.078125 -2.015625 C 17.023438 -2.535156 17.78125 -3.25 18.34375 -4.15625 C 18.914062 -5.0625 19.289062 -6.09375 19.46875 -7.25 C 19.65625 -8.40625 19.632812 -9.613281 19.40625 -10.875 C 19.175781 -12.132812 18.722656 -13.367188 18.046875 -14.578125 C 17.367188 -15.796875 16.554688 -16.835938 15.609375 -17.703125 C 14.671875 -18.566406 13.664062 -19.234375 12.59375 -19.703125 C 11.53125 -20.179688 10.460938 -20.421875 9.390625 -20.421875 C 8.328125 -20.429688 7.320312 -20.175781 6.375 -19.65625 C 5.4375 -19.144531 4.679688 -18.429688 4.109375 -17.515625 C 3.546875 -16.597656 3.171875 -15.566406 2.984375 -14.421875 C 2.804688 -13.273438 2.832031 -12.070312 3.0625 -10.8125 C 3.289062 -9.550781 3.742188 -8.316406 4.421875 -7.109375 C 5.085938 -5.890625 5.890625 -4.84375 6.828125 -3.96875 C 7.765625 -3.09375 8.765625 -2.414062 9.828125 -1.9375 C 10.898438 -1.46875 11.972656 -1.234375 13.046875 -1.234375 C 14.128906 -1.234375 15.140625 -1.492188 16.078125 -2.015625 Z M 16.078125 -2.015625 "/></g></g><g style="fill:#3e28c0;fill-opacity:1;"><g transform="translate(182.626429, 154.058745)"><path style="stroke:none" d="M 3.84375 -17.8125 L 3.84375 -1.125 L 10.484375 -1.125 C 11.347656 -1.125 12.039062 -1.265625 12.5625 -1.546875 C 13.082031 -1.828125 13.476562 -2.140625 13.75 -2.484375 C 14.019531 -2.828125 14.191406 -3.097656 14.265625 -3.296875 L 14.53125 -3.296875 L 14.328125 0 L 0 0 C 0.207031 -0.5625 0.34375 -1.160156 0.40625 -1.796875 C 0.476562 -2.429688 0.515625 -3.113281 0.515625 -3.84375 C 0.515625 -4.320312 0.515625 -5.023438 0.515625 -5.953125 C 0.515625 -6.890625 0.515625 -7.9375 0.515625 -9.09375 C 0.515625 -10.25 0.515625 -11.40625 0.515625 -12.5625 C 0.515625 -13.71875 0.515625 -14.757812 0.515625 -15.6875 C 0.515625 -16.625 0.515625 -17.332031 0.515625 -17.8125 C 0.515625 -18.539062 0.476562 -19.226562 0.40625 -19.875 C 0.34375 -20.519531 0.207031 -21.113281 0 -21.65625 L 4.359375 -21.65625 C 4.171875 -21.113281 4.035156 -20.519531 3.953125 -19.875 C 3.878906 -19.226562 3.84375 -18.539062 3.84375 -17.8125 Z M 3.84375 -17.8125 "/></g></g><g style="fill:#3e28c0;fill-opacity:1;"><g transform="translate(199.026653, 154.058745)"><path style="stroke:none" d="M 0.515625 -17.8125 C 0.515625 -18.539062 0.476562 -19.226562 0.40625 -19.875 C 0.34375 -20.519531 0.207031 -21.113281 0 -21.65625 L 4.359375 -21.65625 C 4.171875 -21.113281 4.035156 -20.519531 3.953125 -19.875 C 3.878906 -19.226562 3.84375 -18.539062 3.84375 -17.8125 C 3.84375 -17.332031 3.84375 -16.625 3.84375 -15.6875 C 3.84375 -14.757812 3.84375 -13.71875 3.84375 -12.5625 C 3.84375 -11.40625 3.84375 -10.25 3.84375 -9.09375 C 3.84375 -7.9375 3.84375 -6.890625 3.84375 -5.953125 C 3.84375 -5.023438 3.84375 -4.320312 3.84375 -3.84375 C 3.84375 -3.113281 3.878906 -2.429688 3.953125 -1.796875 C 4.035156 -1.160156 4.171875 -0.5625 4.359375 0 L 0 0 C 0.207031 -0.5625 0.34375 -1.160156 0.40625 -1.796875 C 0.476562 -2.429688 0.515625 -3.113281 0.515625 -3.84375 Z M 0.515625 -17.8125 "/></g></g><g style="fill:#3e28c0;fill-opacity:1;"><g transform="translate(205.292171, 154.058745)"><path style="stroke:none" d="M 15.28125 -15.734375 C 15.238281 -16.929688 14.921875 -17.910156 14.328125 -18.671875 C 13.742188 -19.429688 12.976562 -19.992188 12.03125 -20.359375 C 11.09375 -20.722656 10.035156 -20.90625 8.859375 -20.90625 C 8.398438 -20.925781 7.878906 -20.863281 7.296875 -20.71875 C 6.722656 -20.570312 6.1875 -20.332031 5.6875 -20 C 5.1875 -19.675781 4.8125 -19.238281 4.5625 -18.6875 C 4.3125 -18.03125 4.296875 -17.332031 4.515625 -16.59375 C 4.734375 -15.851562 5.269531 -15.289062 6.125 -14.90625 C 6.945312 -14.550781 7.859375 -14.210938 8.859375 -13.890625 C 9.859375 -13.578125 10.851562 -13.238281 11.84375 -12.875 C 12.84375 -12.507812 13.742188 -12.050781 14.546875 -11.5 C 15.472656 -10.863281 16.160156 -10.113281 16.609375 -9.25 C 17.066406 -8.394531 17.289062 -7.5 17.28125 -6.5625 C 17.269531 -5.632812 17.039062 -4.734375 16.59375 -3.859375 C 16.15625 -2.984375 15.503906 -2.207031 14.640625 -1.53125 C 13.773438 -0.875 12.800781 -0.382812 11.71875 -0.0625 C 10.644531 0.25 9.566406 0.40625 8.484375 0.40625 C 7.734375 0.40625 6.898438 0.296875 5.984375 0.078125 C 5.078125 -0.128906 4.1875 -0.429688 3.3125 -0.828125 C 2.445312 -1.234375 1.691406 -1.71875 1.046875 -2.28125 C 0.921875 -2.375 0.765625 -2.472656 0.578125 -2.578125 C 0.398438 -2.691406 0.207031 -2.71875 0 -2.65625 L 0.578125 -9.46875 L 0.84375 -9.46875 C 0.84375 -8.394531 0.90625 -7.425781 1.03125 -6.5625 C 1.164062 -5.707031 1.453125 -4.921875 1.890625 -4.203125 C 2.335938 -3.484375 3.035156 -2.796875 3.984375 -2.140625 C 4.679688 -1.660156 5.410156 -1.3125 6.171875 -1.09375 C 6.941406 -0.882812 7.753906 -0.78125 8.609375 -0.78125 C 9.679688 -0.78125 10.609375 -1 11.390625 -1.4375 C 12.171875 -1.882812 12.769531 -2.476562 13.1875 -3.21875 C 13.613281 -3.957031 13.828125 -4.753906 13.828125 -5.609375 C 13.828125 -6.390625 13.632812 -7.050781 13.25 -7.59375 C 12.863281 -8.132812 12.375 -8.597656 11.78125 -8.984375 C 11.1875 -9.367188 10.570312 -9.6875 9.9375 -9.9375 C 8.875 -10.351562 7.789062 -10.71875 6.6875 -11.03125 C 5.582031 -11.34375 4.535156 -11.765625 3.546875 -12.296875 C 2.796875 -12.722656 2.195312 -13.269531 1.75 -13.9375 C 1.3125 -14.613281 1.039062 -15.335938 0.9375 -16.109375 C 0.832031 -16.878906 0.914062 -17.632812 1.1875 -18.375 C 1.46875 -19.113281 1.957031 -19.773438 2.65625 -20.359375 C 3.382812 -20.972656 4.253906 -21.410156 5.265625 -21.671875 C 6.273438 -21.929688 7.273438 -22.0625 8.265625 -22.0625 C 10.785156 -22.0625 12.890625 -21.445312 14.578125 -20.21875 C 14.753906 -20.101562 14.914062 -20 15.0625 -19.90625 C 15.21875 -19.820312 15.375 -19.816406 15.53125 -19.890625 L 15.53125 -15.734375 Z M 15.28125 -15.734375 "/></g></g><g style="fill:#3e28c0;fill-opacity:1;"><g transform="translate(224.406523, 154.058745)"><path style="stroke:none" d="M 10.421875 -3.84375 C 10.421875 -3.113281 10.453125 -2.429688 10.515625 -1.796875 C 10.585938 -1.160156 10.722656 -0.5625 10.921875 0 L 6.546875 0 C 6.765625 -0.5625 6.90625 -1.160156 6.96875 -1.796875 C 7.039062 -2.429688 7.078125 -3.113281 7.078125 -3.84375 C 7.078125 -6.613281 7.078125 -9.390625 7.078125 -12.171875 C 7.078125 -14.953125 7.078125 -17.738281 7.078125 -20.53125 L 4.046875 -20.53125 C 3.191406 -20.53125 2.5 -20.390625 1.96875 -20.109375 C 1.445312 -19.828125 1.050781 -19.519531 0.78125 -19.1875 C 0.507812 -18.851562 0.335938 -18.578125 0.265625 -18.359375 L 0 -18.359375 L 0.203125 -21.65625 L 17.296875 -21.65625 L 17.5 -18.359375 L 17.234375 -18.359375 C 17.160156 -18.578125 16.988281 -18.851562 16.71875 -19.1875 C 16.445312 -19.519531 16.046875 -19.828125 15.515625 -20.109375 C 14.984375 -20.390625 14.285156 -20.53125 13.421875 -20.53125 L 10.421875 -20.53125 C 10.421875 -17.738281 10.421875 -14.953125 10.421875 -12.171875 C 10.421875 -9.390625 10.421875 -6.613281 10.421875 -3.84375 Z M 10.421875 -3.84375 "/></g></g><g style="fill:#3e28c0;fill-opacity:1;"><g transform="translate(243.75186, 154.058745)"><path style="stroke:none" d="M 0.515625 -17.8125 C 0.515625 -18.539062 0.476562 -19.226562 0.40625 -19.875 C 0.34375 -20.519531 0.207031 -21.113281 0 -21.65625 L 4.359375 -21.65625 C 4.171875 -21.113281 4.035156 -20.519531 3.953125 -19.875 C 3.878906 -19.226562 3.84375 -18.539062 3.84375 -17.8125 C 3.84375 -17.332031 3.84375 -16.625 3.84375 -15.6875 C 3.84375 -14.757812 3.84375 -13.71875 3.84375 -12.5625 C 3.84375 -11.40625 3.84375 -10.25 3.84375 -9.09375 C 3.84375 -7.9375 3.84375 -6.890625 3.84375 -5.953125 C 3.84375 -5.023438 3.84375 -4.320312 3.84375 -3.84375 C 3.84375 -3.113281 3.878906 -2.429688 3.953125 -1.796875 C 4.035156 -1.160156 4.171875 -0.5625 4.359375 0 L 0 0 C 0.207031 -0.5625 0.34375 -1.160156 0.40625 -1.796875 C 0.476562 -2.429688 0.515625 -3.113281 0.515625 -3.84375 Z M 2.015625 -23.125 L 4.078125 -26.359375 L 6.4375 -26.359375 L 2.28125 -23.125 Z M 2.015625 -23.125 "/></g></g><g style="fill:#3e28c0;fill-opacity:1;"><g transform="translate(250.017378, 154.058745)"><path style="stroke:none" d="M 11.265625 -22.0625 C 12.628906 -22.0625 13.894531 -21.890625 15.0625 -21.546875 C 16.226562 -21.210938 17.394531 -20.648438 18.5625 -19.859375 C 18.914062 -19.609375 19.347656 -19.320312 19.859375 -19 C 20.378906 -18.6875 20.851562 -18.539062 21.28125 -18.5625 L 21.28125 -13.59375 L 20.90625 -13.59375 C 20.5625 -14.832031 19.992188 -15.976562 19.203125 -17.03125 C 18.410156 -18.09375 17.453125 -18.953125 16.328125 -19.609375 C 15.203125 -20.273438 13.925781 -20.648438 12.5 -20.734375 C 11.320312 -20.785156 10.191406 -20.585938 9.109375 -20.140625 C 8.035156 -19.691406 7.078125 -19.023438 6.234375 -18.140625 C 5.390625 -17.253906 4.71875 -16.191406 4.21875 -14.953125 C 3.71875 -13.722656 3.46875 -12.359375 3.46875 -10.859375 C 3.46875 -9.453125 3.695312 -8.148438 4.15625 -6.953125 C 4.613281 -5.765625 5.25 -4.734375 6.0625 -3.859375 C 6.875 -2.984375 7.796875 -2.296875 8.828125 -1.796875 C 9.867188 -1.296875 10.957031 -1.023438 12.09375 -0.984375 C 13.59375 -0.941406 14.984375 -1.222656 16.265625 -1.828125 C 17.546875 -2.441406 18.660156 -3.285156 19.609375 -4.359375 C 20.566406 -5.441406 21.296875 -6.664062 21.796875 -8.03125 L 22.125 -8.03125 C 21.695312 -6.394531 20.945312 -4.941406 19.875 -3.671875 C 18.8125 -2.398438 17.53125 -1.398438 16.03125 -0.671875 C 14.539062 0.046875 12.953125 0.40625 11.265625 0.40625 C 9.703125 0.40625 8.238281 0.117188 6.875 -0.453125 C 5.507812 -1.035156 4.3125 -1.84375 3.28125 -2.875 C 2.25 -3.90625 1.441406 -5.101562 0.859375 -6.46875 C 0.285156 -7.832031 0 -9.296875 0 -10.859375 C 0 -12.421875 0.285156 -13.875 0.859375 -15.21875 C 1.441406 -16.5625 2.25 -17.75 3.28125 -18.78125 C 4.3125 -19.8125 5.507812 -20.613281 6.875 -21.1875 C 8.238281 -21.769531 9.703125 -22.0625 11.265625 -22.0625 Z M 11.265625 -22.0625 "/></g></g><g style="fill:#3e28c0;fill-opacity:1;"><g transform="translate(273.95367, 154.058745)"><path style="stroke:none" d="M 11.8125 -21.65625 L 18.25 -3.8125 C 18.476562 -3.175781 18.757812 -2.515625 19.09375 -1.828125 C 19.4375 -1.148438 19.757812 -0.539062 20.0625 0 L 15.671875 0 C 15.671875 -0.5 15.570312 -1.09375 15.375 -1.78125 C 15.175781 -2.476562 14.957031 -3.132812 14.71875 -3.75 C 14.46875 -4.476562 14.179688 -5.125 13.859375 -5.6875 C 13.535156 -6.25 13.070312 -6.710938 12.46875 -7.078125 C 11.800781 -7.492188 11.039062 -7.773438 10.1875 -7.921875 C 9.34375 -8.066406 8.492188 -8.078125 7.640625 -7.953125 C 6.796875 -7.828125 6.039062 -7.5625 5.375 -7.15625 C 4.695312 -6.769531 4.191406 -6.289062 3.859375 -5.71875 C 3.535156 -5.15625 3.238281 -4.519531 2.96875 -3.8125 C 2.601562 -2.789062 2.875 -1.519531 3.78125 0 L 0 0 C 0.320312 -0.539062 0.640625 -1.148438 0.953125 -1.828125 C 1.273438 -2.515625 1.554688 -3.175781 1.796875 -3.8125 L 8.234375 -21.65625 Z M 13.21875 -7.9375 L 8.828125 -19.984375 L 4.46875 -7.9375 C 5.320312 -8.476562 6.257812 -8.835938 7.28125 -9.015625 C 8.3125 -9.203125 9.347656 -9.203125 10.390625 -9.015625 C 11.429688 -8.835938 12.375 -8.476562 13.21875 -7.9375 Z M 13.21875 -7.9375 "/></g></g><g style="fill:#ff6600;fill-opacity:1;"><g transform="translate(22.441169, 192.103153)"><path style="stroke:none" d="M 4.171875 0.15625 C 3.453125 0.15625 2.800781 0.0390625 2.21875 -0.1875 C 1.644531 -0.425781 1.179688 -0.78125 0.828125 -1.25 C 0.484375 -1.726562 0.296875 -2.320312 0.265625 -3.03125 L 1.171875 -3.03125 C 1.210938 -2.238281 1.503906 -1.632812 2.046875 -1.21875 C 2.597656 -0.8125 3.304688 -0.609375 4.171875 -0.609375 C 4.972656 -0.609375 5.566406 -0.789062 5.953125 -1.15625 C 6.347656 -1.53125 6.550781 -1.972656 6.5625 -2.484375 C 6.5625 -2.941406 6.441406 -3.300781 6.203125 -3.5625 C 5.972656 -3.832031 5.628906 -4.039062 5.171875 -4.1875 C 4.722656 -4.332031 4.171875 -4.46875 3.515625 -4.59375 C 2.929688 -4.707031 2.421875 -4.859375 1.984375 -5.046875 C 1.546875 -5.242188 1.207031 -5.507812 0.96875 -5.84375 C 0.726562 -6.1875 0.609375 -6.617188 0.609375 -7.140625 C 0.609375 -7.679688 0.742188 -8.128906 1.015625 -8.484375 C 1.296875 -8.835938 1.671875 -9.101562 2.140625 -9.28125 C 2.617188 -9.457031 3.15625 -9.546875 3.75 -9.546875 C 4.394531 -9.546875 4.96875 -9.4375 5.46875 -9.21875 C 5.96875 -9.007812 6.363281 -8.695312 6.65625 -8.28125 C 6.957031 -7.875 7.128906 -7.375 7.171875 -6.78125 L 6.265625 -6.78125 C 6.203125 -7.394531 5.960938 -7.882812 5.546875 -8.25 C 5.128906 -8.613281 4.53125 -8.796875 3.75 -8.796875 C 3.082031 -8.796875 2.539062 -8.648438 2.125 -8.359375 C 1.71875 -8.078125 1.515625 -7.679688 1.515625 -7.171875 C 1.515625 -6.765625 1.617188 -6.441406 1.828125 -6.203125 C 2.035156 -5.972656 2.332031 -5.789062 2.71875 -5.65625 C 3.113281 -5.53125 3.585938 -5.414062 4.140625 -5.3125 C 4.828125 -5.1875 5.414062 -5.015625 5.90625 -4.796875 C 6.40625 -4.585938 6.789062 -4.300781 7.0625 -3.9375 C 7.332031 -3.582031 7.46875 -3.113281 7.46875 -2.53125 C 7.46875 -2.019531 7.335938 -1.5625 7.078125 -1.15625 C 6.816406 -0.75 6.441406 -0.425781 5.953125 -0.1875 C 5.460938 0.0390625 4.867188 0.15625 4.171875 0.15625 Z M 4.171875 0.15625 "/></g></g><g style="fill:#ff6600;fill-opacity:1;"><g transform="translate(40.828648, 192.103153)"><path style="stroke:none" d="M 0.796875 0 L 0.796875 -9.390625 L 7.203125 -9.390625 L 7.203125 -8.625 L 1.703125 -8.625 L 1.703125 -5.328125 L 6.6875 -5.328125 L 6.6875 -4.5625 L 1.703125 -4.5625 L 1.703125 -0.765625 L 7.328125 -0.765625 L 7.328125 0 Z M 0.796875 0 "/></g></g><g style="fill:#ff6600;fill-opacity:1;"><g transform="translate(59.124265, 192.103153)"><path style="stroke:none" d="M 0.796875 0 L 0.796875 -9.390625 L 4.671875 -9.390625 C 5.554688 -9.390625 6.238281 -9.1875 6.71875 -8.78125 C 7.207031 -8.375 7.453125 -7.789062 7.453125 -7.03125 C 7.453125 -6.5 7.316406 -6.0625 7.046875 -5.71875 C 6.773438 -5.375 6.40625 -5.125 5.9375 -4.96875 L 5.9375 -4.953125 C 6.5 -4.835938 6.957031 -4.582031 7.3125 -4.1875 C 7.675781 -3.800781 7.859375 -3.285156 7.859375 -2.640625 C 7.859375 -2.015625 7.726562 -1.503906 7.46875 -1.109375 C 7.21875 -0.722656 6.863281 -0.441406 6.40625 -0.265625 C 5.957031 -0.0859375 5.441406 0 4.859375 0 Z M 1.703125 -5.21875 L 4.75 -5.21875 C 5.28125 -5.21875 5.710938 -5.367188 6.046875 -5.671875 C 6.378906 -5.972656 6.546875 -6.382812 6.546875 -6.90625 C 6.546875 -7.445312 6.375 -7.867188 6.03125 -8.171875 C 5.6875 -8.472656 5.191406 -8.625 4.546875 -8.625 L 1.703125 -8.625 Z M 1.703125 -0.765625 L 4.671875 -0.765625 C 5.347656 -0.765625 5.894531 -0.910156 6.3125 -1.203125 C 6.738281 -1.492188 6.953125 -2 6.953125 -2.71875 C 6.953125 -3.3125 6.753906 -3.769531 6.359375 -4.09375 C 5.972656 -4.425781 5.453125 -4.59375 4.796875 -4.59375 L 1.703125 -4.59375 Z M 1.703125 -0.765625 "/></g></g><g style="fill:#ff6600;fill-opacity:1;"><g transform="translate(77.813544, 192.103153)"><path style="stroke:none" d="M 0.078125 0 L 3.625 -9.390625 L 4.59375 -9.390625 L 8.15625 0 L 7.25 0 L 6.171875 -2.890625 L 2.0625 -2.890625 L 0.984375 0 Z M 2.296875 -3.609375 L 5.9375 -3.609375 L 4.125 -8.484375 L 4.09375 -8.484375 Z M 2.296875 -3.609375 "/></g></g><g style="fill:#ff6600;fill-opacity:1;"><g transform="translate(96.542181, 192.103153)"><path style="stroke:none" d="M 4.171875 0.15625 C 3.453125 0.15625 2.800781 0.0390625 2.21875 -0.1875 C 1.644531 -0.425781 1.179688 -0.78125 0.828125 -1.25 C 0.484375 -1.726562 0.296875 -2.320312 0.265625 -3.03125 L 1.171875 -3.03125 C 1.210938 -2.238281 1.503906 -1.632812 2.046875 -1.21875 C 2.597656 -0.8125 3.304688 -0.609375 4.171875 -0.609375 C 4.972656 -0.609375 5.566406 -0.789062 5.953125 -1.15625 C 6.347656 -1.53125 6.550781 -1.972656 6.5625 -2.484375 C 6.5625 -2.941406 6.441406 -3.300781 6.203125 -3.5625 C 5.972656 -3.832031 5.628906 -4.039062 5.171875 -4.1875 C 4.722656 -4.332031 4.171875 -4.46875 3.515625 -4.59375 C 2.929688 -4.707031 2.421875 -4.859375 1.984375 -5.046875 C 1.546875 -5.242188 1.207031 -5.507812 0.96875 -5.84375 C 0.726562 -6.1875 0.609375 -6.617188 0.609375 -7.140625 C 0.609375 -7.679688 0.742188 -8.128906 1.015625 -8.484375 C 1.296875 -8.835938 1.671875 -9.101562 2.140625 -9.28125 C 2.617188 -9.457031 3.15625 -9.546875 3.75 -9.546875 C 4.394531 -9.546875 4.96875 -9.4375 5.46875 -9.21875 C 5.96875 -9.007812 6.363281 -8.695312 6.65625 -8.28125 C 6.957031 -7.875 7.128906 -7.375 7.171875 -6.78125 L 6.265625 -6.78125 C 6.203125 -7.394531 5.960938 -7.882812 5.546875 -8.25 C 5.128906 -8.613281 4.53125 -8.796875 3.75 -8.796875 C 3.082031 -8.796875 2.539062 -8.648438 2.125 -8.359375 C 1.71875 -8.078125 1.515625 -7.679688 1.515625 -7.171875 C 1.515625 -6.765625 1.617188 -6.441406 1.828125 -6.203125 C 2.035156 -5.972656 2.332031 -5.789062 2.71875 -5.65625 C 3.113281 -5.53125 3.585938 -5.414062 4.140625 -5.3125 C 4.828125 -5.1875 5.414062 -5.015625 5.90625 -4.796875 C 6.40625 -4.585938 6.789062 -4.300781 7.0625 -3.9375 C 7.332031 -3.582031 7.46875 -3.113281 7.46875 -2.53125 C 7.46875 -2.019531 7.335938 -1.5625 7.078125 -1.15625 C 6.816406 -0.75 6.441406 -0.425781 5.953125 -0.1875 C 5.460938 0.0390625 4.867188 0.15625 4.171875 0.15625 Z M 4.171875 0.15625 "/></g></g><g style="fill:#ff6600;fill-opacity:1;"><g transform="translate(114.92966, 192.103153)"><path style="stroke:none" d="M 3.453125 0 L 3.453125 -8.625 L 0.25 -8.625 L 0.25 -9.390625 L 7.546875 -9.390625 L 7.546875 -8.625 L 4.359375 -8.625 L 4.359375 0 Z M 3.453125 0 "/></g></g><g style="fill:#ff6600;fill-opacity:1;"><g transform="translate(133.225277, 192.103153)"><path style="stroke:none" d="M 0.84375 0 L 0.84375 -9.390625 L 1.75 -9.390625 L 1.75 0 Z M 0.84375 0 "/></g></g><g style="fill:#ff6600;fill-opacity:1;"><g transform="translate(146.298502, 192.103153)"><path style="stroke:none" d="M 3.78125 -10.421875 L 4.609375 -12.09375 L 5.609375 -12.09375 L 4.46875 -10.421875 Z M 0.078125 0 L 3.625 -9.390625 L 4.59375 -9.390625 L 8.15625 0 L 7.25 0 L 6.171875 -2.890625 L 2.0625 -2.890625 L 0.984375 0 Z M 2.296875 -3.609375 L 5.9375 -3.609375 L 4.125 -8.484375 L 4.09375 -8.484375 Z M 2.296875 -3.609375 "/></g></g><g style="fill:#ff6600;fill-opacity:1;"><g transform="translate(165.027139, 192.103153)"><path style="stroke:none" d="M 0.796875 0 L 0.796875 -9.390625 L 1.78125 -9.390625 L 7.09375 -1.390625 L 7.125 -1.390625 L 7.125 -9.390625 L 8.03125 -9.390625 L 8.03125 0 L 7.046875 0 L 1.734375 -7.96875 L 1.703125 -7.96875 L 1.703125 0 Z M 0.796875 0 "/></g></g><g style="fill:#ff6600;fill-opacity:1;"><g transform="translate(184.359363, 192.103153)"><path style="stroke:none" d=""/></g></g><g style="fill:#ff6600;fill-opacity:1;"><g transform="translate(197.6819, 192.103153)"><path style="stroke:none" d="M 0.796875 0 L 0.796875 -9.390625 L 4.359375 -9.390625 C 5.253906 -9.390625 5.992188 -9.179688 6.578125 -8.765625 C 7.160156 -8.359375 7.59375 -7.800781 7.875 -7.09375 C 8.164062 -6.382812 8.3125 -5.570312 8.3125 -4.65625 C 8.3125 -3.75 8.164062 -2.941406 7.875 -2.234375 C 7.582031 -1.535156 7.144531 -0.988281 6.5625 -0.59375 C 5.976562 -0.195312 5.234375 0 4.328125 0 Z M 1.6875 -0.765625 L 4.21875 -0.765625 C 5.257812 -0.765625 6.050781 -1.109375 6.59375 -1.796875 C 7.132812 -2.492188 7.40625 -3.445312 7.40625 -4.65625 C 7.40625 -5.863281 7.144531 -6.828125 6.625 -7.546875 C 6.113281 -8.265625 5.335938 -8.625 4.296875 -8.625 L 1.6875 -8.625 Z M 1.6875 -0.765625 "/></g></g><g style="fill:#ff6600;fill-opacity:1;"><g transform="translate(216.922275, 192.103153)"><path style="stroke:none" d="M 4.203125 0.15625 C 2.960938 0.15625 2.066406 -0.140625 1.515625 -0.734375 C 0.960938 -1.328125 0.6875 -2.179688 0.6875 -3.296875 L 0.6875 -9.390625 L 1.59375 -9.390625 L 1.59375 -3.296875 C 1.59375 -2.367188 1.804688 -1.6875 2.234375 -1.25 C 2.671875 -0.820312 3.328125 -0.609375 4.203125 -0.609375 C 5.078125 -0.609375 5.726562 -0.820312 6.15625 -1.25 C 6.582031 -1.6875 6.796875 -2.367188 6.796875 -3.296875 L 6.796875 -9.390625 L 7.703125 -9.390625 L 7.703125 -3.296875 C 7.703125 -2.179688 7.425781 -1.328125 6.875 -0.734375 C 6.320312 -0.140625 5.429688 0.15625 4.203125 0.15625 Z M 4.203125 0.15625 "/></g></g><g style="fill:#ff6600;fill-opacity:1;"><g transform="translate(235.821492, 192.103153)"><path style="stroke:none" d="M 0.796875 0 L 0.796875 -9.390625 L 4.65625 -9.390625 C 5.5625 -9.390625 6.28125 -9.171875 6.8125 -8.734375 C 7.351562 -8.296875 7.625 -7.628906 7.625 -6.734375 C 7.625 -6.066406 7.4375 -5.53125 7.0625 -5.125 C 6.695312 -4.726562 6.207031 -4.46875 5.59375 -4.34375 L 5.59375 -4.3125 C 5.988281 -4.257812 6.304688 -4.125 6.546875 -3.90625 C 6.785156 -3.6875 6.96875 -3.421875 7.09375 -3.109375 C 7.21875 -2.804688 7.304688 -2.484375 7.359375 -2.140625 C 7.421875 -1.804688 7.460938 -1.488281 7.484375 -1.1875 C 7.515625 -0.882812 7.550781 -0.628906 7.59375 -0.421875 C 7.632812 -0.222656 7.695312 -0.113281 7.78125 -0.09375 L 7.78125 0 L 6.828125 0 C 6.742188 -0.0703125 6.6875 -0.210938 6.65625 -0.421875 C 6.625 -0.640625 6.597656 -0.894531 6.578125 -1.1875 C 6.554688 -1.488281 6.515625 -1.796875 6.453125 -2.109375 C 6.390625 -2.421875 6.289062 -2.710938 6.15625 -2.984375 C 6.019531 -3.265625 5.828125 -3.488281 5.578125 -3.65625 C 5.328125 -3.832031 4.988281 -3.921875 4.5625 -3.921875 L 1.703125 -3.921875 L 1.703125 0 Z M 1.703125 -4.671875 L 4.359375 -4.671875 C 5.054688 -4.671875 5.625 -4.832031 6.0625 -5.15625 C 6.5 -5.488281 6.71875 -5.988281 6.71875 -6.65625 C 6.71875 -7.351562 6.515625 -7.851562 6.109375 -8.15625 C 5.710938 -8.46875 5.128906 -8.625 4.359375 -8.625 L 1.703125 -8.625 Z M 1.703125 -4.671875 "/></g></g><g style="fill:#ff6600;fill-opacity:1;"><g transform="translate(254.484527, 192.103153)"><path style="stroke:none" d="M 3.78125 -10.421875 L 4.609375 -12.09375 L 5.609375 -12.09375 L 4.46875 -10.421875 Z M 0.078125 0 L 3.625 -9.390625 L 4.59375 -9.390625 L 8.15625 0 L 7.25 0 L 6.171875 -2.890625 L 2.0625 -2.890625 L 0.984375 0 Z M 2.296875 -3.609375 L 5.9375 -3.609375 L 4.125 -8.484375 L 4.09375 -8.484375 Z M 2.296875 -3.609375 "/></g></g><g style="fill:#ff6600;fill-opacity:1;"><g transform="translate(273.213165, 192.103153)"><path style="stroke:none" d="M 0.796875 0 L 0.796875 -9.390625 L 1.78125 -9.390625 L 7.09375 -1.390625 L 7.125 -1.390625 L 7.125 -9.390625 L 8.03125 -9.390625 L 8.03125 0 L 7.046875 0 L 1.734375 -7.96875 L 1.703125 -7.96875 L 1.703125 0 Z M 0.796875 0 "/></g></g></g></svg>