<svg xmlns="http://www.w3.org/2000/svg" xmlns:xlink="http://www.w3.org/1999/xlink" width="500" zoomAndPan="magnify" viewBox="0 0 375 374.999991" height="500" preserveAspectRatio="xMidYMid meet" version="1.2"><defs><clipPath id="c190157a39"><path d="M 68.742188 128 L 306 128 L 306 244.3125 L 68.742188 244.3125 Z M 68.742188 128 "/></clipPath><clipPath id="f22469b946"><path d="M 136 86.0625 L 238 86.0625 L 238 131 L 136 131 Z M 136 86.0625 "/></clipPath></defs><g id="1eae1dbc91"><g style="fill:#1e1e24;fill-opacity:1;"><g transform="translate(66.185023, 311.100503)"><path style="stroke:none" d="M 31.328125 -10.6875 L 31.4375 0 L 27.203125 0 L 27.421875 -10.3125 L 27.375 -15.453125 L 17.859375 -15.5 L 9.140625 -15.453125 L 9.09375 -10.6875 L 9.25 0 L 5.03125 0 L 5.1875 -10.3125 L 5.03125 -34.265625 L 9.296875 -34.265625 L 9.140625 -19.078125 L 18.234375 -19.03125 L 27.375 -19.078125 L 27.203125 -34.265625 L 31.53125 -34.265625 Z M 31.328125 -10.6875 "/></g></g><g style="fill:#1e1e24;fill-opacity:1;"><g transform="translate(104.133243, 311.100503)"><path style="stroke:none" d="M 17.375 -34.578125 C 22.070312 -34.578125 25.675781 -33.132812 28.1875 -30.25 C 30.707031 -27.363281 31.96875 -23.210938 31.96875 -17.796875 C 31.96875 -11.953125 30.628906 -7.453125 27.953125 -4.296875 C 25.285156 -1.148438 21.472656 0.421875 16.515625 0.421875 C 11.878906 0.421875 8.304688 -1.070312 5.796875 -4.0625 C 3.285156 -7.050781 2.03125 -11.3125 2.03125 -16.84375 C 2.03125 -22.539062 3.359375 -26.921875 6.015625 -29.984375 C 8.671875 -33.046875 12.457031 -34.578125 17.375 -34.578125 Z M 17.109375 -31.109375 C 9.984375 -31.109375 6.421875 -26.507812 6.421875 -17.3125 C 6.421875 -12.4375 7.28125 -8.820312 9 -6.46875 C 10.726562 -4.113281 13.34375 -2.9375 16.84375 -2.9375 C 23.96875 -2.9375 27.53125 -7.625 27.53125 -17 C 27.53125 -21.769531 26.664062 -25.3125 24.9375 -27.625 C 23.207031 -29.945312 20.597656 -31.109375 17.109375 -31.109375 Z M 17.109375 -31.109375 "/></g></g><g style="fill:#1e1e24;fill-opacity:1;"><g transform="translate(139.462553, 311.100503)"><path style="stroke:none" d="M 22.078125 -3.203125 L 21.703125 0 L 4.8125 0 L 5.078125 -10.3125 L 4.8125 -34.265625 L 9.1875 -34.265625 L 8.921875 -10.6875 L 9.09375 -3.578125 L 21.75 -3.578125 Z M 22.078125 -3.203125 "/></g></g><g style="fill:#1e1e24;fill-opacity:1;"><g transform="translate(163.086952, 311.100503)"><path style="stroke:none" d="M 9.09375 -10.6875 L 9.296875 0 L 4.96875 0 L 5.234375 -10.3125 L 4.96875 -34.265625 L 9.359375 -34.265625 Z M 9.09375 -10.6875 "/></g></g><g style="fill:#1e1e24;fill-opacity:1;"><g transform="translate(178.801135, 311.100503)"><path style="stroke:none" d="M 14.265625 -34.53125 C 16.722656 -34.53125 19.273438 -33.992188 21.921875 -32.921875 L 21.21875 -28.8125 L 20.46875 -28.59375 C 19.4375 -29.375 18.34375 -29.976562 17.1875 -30.40625 C 16.03125 -30.84375 14.878906 -31.0625 13.734375 -31.0625 C 12.421875 -31.0625 11.269531 -30.789062 10.28125 -30.25 C 9.300781 -29.71875 8.550781 -29.023438 8.03125 -28.171875 C 7.519531 -27.316406 7.265625 -26.425781 7.265625 -25.5 C 7.265625 -24.53125 7.554688 -23.679688 8.140625 -22.953125 C 8.734375 -22.222656 9.472656 -21.59375 10.359375 -21.0625 C 11.253906 -20.53125 12.46875 -19.890625 14 -19.140625 C 15.925781 -18.242188 17.476562 -17.410156 18.65625 -16.640625 C 19.832031 -15.878906 20.835938 -14.910156 21.671875 -13.734375 C 22.515625 -12.554688 22.9375 -11.132812 22.9375 -9.46875 C 22.9375 -7.675781 22.453125 -6.03125 21.484375 -4.53125 C 20.523438 -3.039062 19.171875 -1.847656 17.421875 -0.953125 C 15.679688 -0.0664062 13.6875 0.375 11.4375 0.375 C 9.9375 0.375 8.375 0.171875 6.75 -0.234375 C 5.132812 -0.648438 3.632812 -1.25 2.25 -2.03125 L 2.78125 -6.421875 L 3.375 -6.6875 C 4.613281 -5.46875 5.988281 -4.5625 7.5 -3.96875 C 9.019531 -3.382812 10.472656 -3.09375 11.859375 -3.09375 C 13.210938 -3.09375 14.414062 -3.359375 15.46875 -3.890625 C 16.519531 -4.429688 17.320312 -5.144531 17.875 -6.03125 C 18.425781 -6.925781 18.703125 -7.875 18.703125 -8.875 C 18.703125 -10.375 18.128906 -11.578125 16.984375 -12.484375 C 15.847656 -13.390625 14.125 -14.378906 11.8125 -15.453125 C 9.925781 -16.378906 8.410156 -17.207031 7.265625 -17.9375 C 6.128906 -18.664062 5.148438 -19.609375 4.328125 -20.765625 C 3.503906 -21.921875 3.09375 -23.335938 3.09375 -25.015625 C 3.09375 -26.765625 3.566406 -28.367188 4.515625 -29.828125 C 5.460938 -31.285156 6.78125 -32.429688 8.46875 -33.265625 C 10.164062 -34.109375 12.097656 -34.53125 14.265625 -34.53125 Z M 14.265625 -34.53125 "/></g></g><g style="fill:#1e1e24;fill-opacity:1;"><g transform="translate(205.418545, 311.100503)"><path style="stroke:none" d="M 25.0625 -33.828125 L 24.75 -30.515625 L 18.765625 -30.84375 L 15.28125 -30.84375 L 15.125 -10.6875 L 15.28125 0 L 10.953125 0 L 11.28125 -10.3125 L 11.015625 -30.84375 L 7.53125 -30.84375 L 1.4375 -30.515625 L 1.171875 -30.953125 L 1.5 -34.265625 L 24.75 -34.265625 Z M 25.0625 -33.828125 "/></g></g><g style="fill:#1e1e24;fill-opacity:1;"><g transform="translate(232.998006, 311.100503)"><path style="stroke:none" d="M 9.09375 -10.6875 L 9.296875 0 L 4.96875 0 L 5.234375 -10.3125 L 4.96875 -34.265625 L 9.359375 -34.265625 Z M 9.09375 -10.6875 "/></g></g><g style="fill:#1e1e24;fill-opacity:1;"><g transform="translate(248.712219, 311.100503)"><path style="stroke:none" d="M 17.21875 -34.53125 C 20.8125 -34.53125 23.925781 -33.675781 26.5625 -31.96875 L 25.71875 -28.0625 L 25.234375 -27.953125 C 22.847656 -29.953125 20.101562 -30.953125 17 -30.953125 C 13.613281 -30.953125 11.007812 -29.785156 9.1875 -27.453125 C 7.375 -25.117188 6.46875 -21.707031 6.46875 -17.21875 C 6.46875 -12.6875 7.375 -9.226562 9.1875 -6.84375 C 11.007812 -4.457031 13.578125 -3.265625 16.890625 -3.265625 C 18.460938 -3.265625 20.019531 -3.546875 21.5625 -4.109375 C 23.113281 -4.679688 24.53125 -5.484375 25.8125 -6.515625 L 26.359375 -6.25 L 25.984375 -2.1875 C 22.878906 -0.476562 19.722656 0.375 16.515625 0.375 C 11.921875 0.375 8.359375 -1.109375 5.828125 -4.078125 C 3.296875 -7.054688 2.03125 -11.3125 2.03125 -16.84375 C 2.03125 -22.507812 3.347656 -26.875 5.984375 -29.9375 C 8.617188 -33 12.363281 -34.53125 17.21875 -34.53125 Z M 17.21875 -34.53125 "/></g></g><g style="fill:#1e1e24;fill-opacity:1;"><g transform="translate(277.89507, 311.100503)"><path style="stroke:none" d="M 29.71875 0 L 25.34375 0 L 24.53125 -3.421875 L 22.609375 -9.296875 L 14.90625 -9.46875 L 7.96875 -9.296875 L 5.875 -3.640625 L 5.03125 0 L 0.75 0 L 13.3125 -34.265625 L 18.28125 -34.265625 Z M 21.4375 -12.9375 L 15.875 -29.828125 L 15.5 -29.828125 L 9.296875 -12.9375 L 15.28125 -12.828125 Z M 21.4375 -12.9375 "/></g></g><g style="fill:#1e1e24;fill-opacity:1;"><g transform="translate(91.821521, 49.997358)"><path style="stroke:none" d="M 24.375 -32.890625 L 24.0625 -29.671875 L 18.234375 -29.984375 L 14.859375 -29.984375 L 14.703125 -10.390625 L 14.859375 0 L 10.65625 0 L 10.96875 -10.03125 L 10.703125 -29.984375 L 7.328125 -29.984375 L 1.40625 -29.671875 L 1.140625 -30.09375 L 1.453125 -33.3125 L 24.0625 -33.3125 Z M 24.375 -32.890625 "/></g></g><g style="fill:#1e1e24;fill-opacity:1;"><g transform="translate(119.109108, 49.997358)"><path style="stroke:none" d="M 23.859375 -3.21875 L 23.546875 0 L 4.828125 0 L 5.09375 -10.03125 L 4.828125 -33.3125 L 23.59375 -33.3125 L 23.796875 -32.890625 L 23.484375 -29.671875 L 15.640625 -29.828125 L 9.046875 -29.71875 L 8.9375 -18.8125 L 15.171875 -18.703125 L 20.6875 -18.859375 L 21 -18.5 L 20.625 -15.28125 L 14.8125 -15.375 L 8.890625 -15.328125 L 8.828125 -10.390625 L 8.984375 -3.484375 L 15.59375 -3.4375 L 23.59375 -3.640625 Z M 23.859375 -3.21875 "/></g></g><g style="fill:#1e1e24;fill-opacity:1;"><g transform="translate(145.980884, 49.997358)"><path style="stroke:none" d="M 18.390625 -13.453125 C 20.679688 -9.679688 23.5625 -5.523438 27.03125 -0.984375 L 26.96875 -0.46875 C 25.71875 0.0195312 24.4375 0.332031 23.125 0.46875 L 22.546875 0.109375 C 19.710938 -4.148438 17.171875 -8.3125 14.921875 -12.375 L 8.828125 -12.375 L 8.828125 -10.390625 L 9.046875 0 L 4.828125 0 L 5.09375 -10.03125 L 4.828125 -33.3125 L 15.015625 -33.359375 C 18.273438 -33.359375 20.796875 -32.535156 22.578125 -30.890625 C 24.359375 -29.242188 25.25 -26.898438 25.25 -23.859375 C 25.25 -21.566406 24.648438 -19.507812 23.453125 -17.6875 C 22.265625 -15.875 20.578125 -14.460938 18.390625 -13.453125 Z M 8.890625 -15.90625 L 15.125 -15.75 C 19 -16.851562 20.9375 -19.429688 20.9375 -23.484375 C 20.9375 -25.597656 20.363281 -27.179688 19.21875 -28.234375 C 18.082031 -29.296875 16.367188 -29.863281 14.078125 -29.9375 L 9.046875 -29.78125 Z M 8.890625 -15.90625 "/></g></g><g style="fill:#1e1e24;fill-opacity:1;"><g transform="translate(176.646936, 49.997358)"><path style="stroke:none" d="M 28.890625 0 L 24.640625 0 L 23.859375 -3.328125 L 21.984375 -9.046875 L 14.5 -9.203125 L 7.75 -9.046875 L 5.71875 -3.53125 L 4.890625 0 L 0.734375 0 L 12.9375 -33.3125 L 17.765625 -33.3125 Z M 20.84375 -12.578125 L 15.4375 -29 L 15.078125 -29 L 9.046875 -12.578125 L 14.859375 -12.46875 Z M 20.84375 -12.578125 "/></g></g><g style="fill:#1e1e24;fill-opacity:1;"><g transform="translate(208.508443, 49.997358)"><path style="stroke:none" d="M 15.015625 -33.359375 C 18.273438 -33.359375 20.785156 -32.519531 22.546875 -30.84375 C 24.316406 -29.164062 25.203125 -26.75 25.203125 -23.59375 C 25.203125 -19.882812 24.101562 -16.972656 21.90625 -14.859375 C 19.707031 -12.742188 16.664062 -11.6875 12.78125 -11.6875 L 8.828125 -11.6875 L 8.828125 -10.390625 L 9.046875 0 L 4.828125 0 L 5.09375 -10.03125 L 4.828125 -33.3125 Z M 14.34375 -15.078125 C 16.488281 -15.421875 18.125 -16.285156 19.25 -17.671875 C 20.375 -19.054688 20.9375 -20.910156 20.9375 -23.234375 C 20.9375 -27.523438 18.648438 -29.757812 14.078125 -29.9375 L 9.046875 -29.78125 L 8.890625 -15.171875 Z M 14.34375 -15.078125 "/></g></g><g style="fill:#1e1e24;fill-opacity:1;"><g transform="translate(237.355317, 49.997358)"><path style="stroke:none" d="M 8.828125 -10.390625 L 9.046875 0 L 4.828125 0 L 5.09375 -10.03125 L 4.828125 -33.3125 L 9.09375 -33.3125 Z M 8.828125 -10.390625 "/></g></g><g style="fill:#1e1e24;fill-opacity:1;"><g transform="translate(253.104155, 49.997358)"><path style="stroke:none" d="M 28.890625 0 L 24.640625 0 L 23.859375 -3.328125 L 21.984375 -9.046875 L 14.5 -9.203125 L 7.75 -9.046875 L 5.71875 -3.53125 L 4.890625 0 L 0.734375 0 L 12.9375 -33.3125 L 17.765625 -33.3125 Z M 20.84375 -12.578125 L 15.4375 -29 L 15.078125 -29 L 9.046875 -12.578125 L 14.859375 -12.46875 Z M 20.84375 -12.578125 "/></g></g><g clip-rule="nonzero" clip-path="url(#c190157a39)"><path style=" stroke:none;fill-rule:nonzero;fill:#83a962;fill-opacity:1;" d="M 303.199219 158.261719 C 303.039062 158.359375 289.183594 166.871094 270.222656 171.480469 C 270.835938 169.402344 271.421875 167.316406 272.003906 165.242188 C 272.601562 163.117188 273.222656 160.921875 273.851562 158.769531 C 280.550781 135.933594 290.597656 132.050781 290.6875 132.019531 L 298.457031 129.363281 L 290.25 129.023438 C 289.589844 128.992188 273.941406 128.414062 255.644531 133.628906 C 231.269531 140.574219 214.105469 154.621094 206.007812 174.253906 C 197.859375 194.007812 199.328125 217.296875 199.628906 221.007812 C 199.757812 223.308594 200.175781 225.636719 200.871094 227.988281 C 191.863281 229.328125 182.691406 229.328125 173.691406 227.988281 C 174.382812 225.644531 174.800781 223.320312 174.929688 221.023438 C 175.222656 217.371094 176.710938 194.039062 168.550781 174.253906 C 160.449219 154.621094 143.285156 140.570312 118.914062 133.628906 C 100.617188 128.414062 84.964844 128.996094 84.308594 129.023438 L 76.527344 129.351562 L 83.859375 132.011719 C 83.960938 132.046875 94.007812 135.929688 100.710938 158.765625 C 101.34375 160.917969 101.957031 163.109375 102.554688 165.234375 C 103.136719 167.308594 103.722656 169.394531 104.335938 171.476562 C 85.375 166.863281 71.523438 158.355469 71.359375 158.257812 L 68.734375 156.621094 L 69.015625 159.703125 C 70.304688 173.804688 72.832031 185.746094 76.730469 196.210938 C 81.851562 209.960938 90.878906 221.769531 102.832031 230.355469 C 114.796875 238.957031 128.867188 243.722656 143.511719 244.148438 C 144.171875 244.167969 144.820312 244.179688 145.457031 244.179688 C 159.382812 244.179688 168.679688 239.667969 172.574219 231.054688 C 177.414062 231.820312 182.328125 232.210938 187.277344 232.210938 C 192.230469 232.210938 197.144531 231.820312 201.980469 231.054688 C 205.878906 239.667969 215.175781 244.179688 229.097656 244.179688 C 229.738281 244.179688 230.386719 244.167969 231.042969 244.148438 C 245.691406 243.726562 259.757812 238.957031 271.726562 230.355469 C 283.675781 221.769531 292.703125 209.960938 297.828125 196.210938 C 301.726562 185.746094 304.25 173.808594 305.539062 159.703125 L 305.820312 156.621094 Z M 127.644531 206.84375 L 127.019531 206.296875 C 117.21875 197.648438 112.457031 187.054688 108.8125 175.613281 C 110.242188 175.890625 111.691406 176.144531 113.164062 176.367188 C 133.269531 179.410156 157.9375 189.574219 167.726562 205.4375 C 172.023438 212.410156 173 219.824219 170.632812 227.480469 C 155.105469 224.628906 140.199219 217.75 127.644531 206.84375 Z M 105.523438 164.40625 C 104.925781 162.277344 104.304688 160.070312 103.667969 157.902344 C 99.304688 143.03125 93.511719 135.671875 89.515625 132.144531 C 95.585938 132.363281 106.414062 133.257812 118.15625 136.613281 C 141.878906 143.394531 157.875 156.453125 165.707031 175.429688 C 170.050781 185.960938 171.546875 197.777344 171.972656 206.769531 C 171.484375 205.777344 170.945312 204.796875 170.34375 203.816406 C 160.042969 187.121094 134.433594 176.46875 113.625 173.320312 C 111.636719 173.023438 109.6875 172.664062 107.777344 172.261719 C 107.007812 169.675781 106.265625 167.054688 105.523438 164.40625 Z M 143.601562 241.082031 C 114.824219 240.25 89.707031 222.21875 79.617188 195.140625 C 76.089844 185.679688 73.714844 174.945312 72.378906 162.40625 C 77.550781 165.257812 89.8125 171.386719 105.367188 174.894531 C 109.152344 187.117188 114.203125 199.089844 124.980469 208.605469 C 125.195312 208.789062 125.40625 208.980469 125.625 209.167969 C 138.179688 220.078125 153.320312 227.382812 169.4375 230.503906 C 165.683594 237.914062 157.007812 241.472656 143.601562 241.082031 Z M 208.859375 175.429688 C 216.6875 156.453125 232.683594 143.394531 256.414062 136.613281 C 268.152344 133.257812 278.980469 132.363281 285.054688 132.144531 C 281.054688 135.671875 275.265625 143.03125 270.898438 157.902344 C 270.261719 160.070312 269.644531 162.277344 269.042969 164.40625 C 268.300781 167.054688 267.5625 169.671875 266.789062 172.261719 C 264.882812 172.664062 262.933594 173.023438 260.941406 173.324219 C 240.132812 176.46875 214.523438 187.121094 204.222656 203.816406 C 203.621094 204.792969 203.078125 205.777344 202.59375 206.769531 C 203.023438 197.777344 204.515625 185.964844 208.859375 175.429688 Z M 206.847656 205.433594 C 216.632812 189.574219 241.296875 179.40625 261.402344 176.363281 C 262.875 176.140625 264.324219 175.886719 265.753906 175.609375 C 262.109375 187.050781 257.34375 197.644531 247.546875 206.292969 C 247.34375 206.476562 247.132812 206.65625 246.921875 206.839844 C 234.367188 217.75 219.460938 224.625 203.933594 227.476562 C 201.574219 219.820312 202.542969 212.40625 206.847656 205.433594 Z M 294.949219 195.140625 C 284.859375 222.214844 259.742188 240.25 230.964844 241.082031 C 217.566406 241.464844 208.890625 237.910156 205.132812 230.503906 C 221.25 227.382812 236.390625 220.078125 248.945312 209.164062 C 249.164062 208.976562 249.375 208.789062 249.589844 208.601562 C 260.371094 199.089844 265.417969 187.113281 269.203125 174.890625 C 284.757812 171.382812 297.019531 165.257812 302.191406 162.402344 C 300.851562 174.945312 298.472656 185.679688 294.949219 195.140625 Z M 294.949219 195.140625 "/></g><path style=" stroke:none;fill-rule:nonzero;fill:#83a962;fill-opacity:1;" d="M 195.707031 122.660156 C 191.140625 118.296875 188.824219 111.78125 188.824219 103.285156 L 185.746094 103.285156 C 185.746094 111.78125 183.429688 118.296875 178.863281 122.660156 C 173.425781 127.847656 166.199219 128.558594 163.691406 128.640625 C 163.085938 128.628906 162.714844 128.640625 162.636719 128.648438 L 162.636719 131.722656 C 162.714844 131.726562 163.085938 131.742188 163.691406 131.730469 C 166.199219 131.8125 173.425781 132.519531 178.863281 137.710938 C 183.429688 142.074219 185.746094 148.589844 185.746094 157.085938 L 188.824219 157.085938 C 188.824219 148.589844 191.140625 142.074219 195.707031 137.710938 C 201.144531 132.519531 208.371094 131.8125 210.878906 131.730469 C 211.484375 131.742188 211.859375 131.730469 211.933594 131.722656 L 211.933594 128.648438 C 211.855469 128.644531 211.488281 128.628906 210.878906 128.640625 C 208.371094 128.554688 201.144531 127.84375 195.707031 122.660156 Z M 193.609375 135.453125 C 190.695312 138.222656 188.582031 141.722656 187.28125 145.902344 C 185.984375 141.71875 183.875 138.222656 180.953125 135.453125 C 178.167969 132.800781 175.03125 131.175781 172.144531 130.179688 C 175.027344 129.1875 178.167969 127.5625 180.953125 124.910156 C 183.871094 122.136719 185.984375 118.640625 187.28125 114.460938 C 188.578125 118.644531 190.695312 122.136719 193.609375 124.910156 C 196.398438 127.5625 199.53125 129.1875 202.417969 130.179688 C 199.535156 131.175781 196.398438 132.800781 193.609375 135.453125 Z M 193.609375 135.453125 "/><g clip-rule="nonzero" clip-path="url(#f22469b946)"><path style=" stroke:none;fill-rule:nonzero;fill:#83a962;fill-opacity:1;" d="M 149.195312 109.820312 C 158.667969 96.167969 171.484375 89.246094 187.285156 89.246094 C 203.050781 89.246094 215.84375 96.140625 225.316406 109.742188 C 232.457031 119.996094 234.929688 130.425781 234.953125 130.53125 L 237.953125 129.839844 C 237.851562 129.390625 235.355469 118.808594 227.902344 108.066406 C 217.957031 93.738281 203.914062 86.167969 187.28125 86.167969 C 170.652344 86.167969 156.605469 93.738281 146.664062 108.066406 C 139.210938 118.808594 136.710938 129.390625 136.613281 129.839844 L 139.613281 130.53125 C 139.640625 130.421875 142.078125 120.078125 149.195312 109.820312 Z M 149.195312 109.820312 "/></g><g style="fill:#1e1e24;fill-opacity:1;"><g transform="translate(74.720923, 337.869905)"><path style="stroke:none" d="M 4.5 -10.296875 C 5.363281 -10.296875 6.222656 -10.125 7.078125 -9.78125 L 6.734375 -7.9375 L 6.40625 -7.796875 C 6.050781 -8.054688 5.679688 -8.257812 5.296875 -8.40625 C 4.910156 -8.550781 4.5625 -8.625 4.25 -8.625 C 3.832031 -8.625 3.492188 -8.507812 3.234375 -8.28125 C 2.984375 -8.0625 2.859375 -7.800781 2.859375 -7.5 C 2.859375 -7.195312 3 -6.9375 3.28125 -6.71875 C 3.5625 -6.507812 4 -6.265625 4.59375 -5.984375 C 5.175781 -5.722656 5.648438 -5.476562 6.015625 -5.25 C 6.378906 -5.019531 6.6875 -4.722656 6.9375 -4.359375 C 7.195312 -3.992188 7.328125 -3.539062 7.328125 -3 C 7.328125 -2.414062 7.164062 -1.882812 6.84375 -1.40625 C 6.53125 -0.925781 6.082031 -0.546875 5.5 -0.265625 C 4.925781 0.00390625 4.257812 0.140625 3.5 0.140625 C 2.5 0.140625 1.492188 -0.0703125 0.484375 -0.5 L 0.796875 -2.5 L 1.03125 -2.625 C 1.445312 -2.25 1.90625 -1.960938 2.40625 -1.765625 C 2.90625 -1.578125 3.351562 -1.484375 3.75 -1.484375 C 4.207031 -1.484375 4.566406 -1.597656 4.828125 -1.828125 C 5.085938 -2.054688 5.21875 -2.328125 5.21875 -2.640625 C 5.21875 -2.972656 5.078125 -3.242188 4.796875 -3.453125 C 4.515625 -3.671875 4.0625 -3.925781 3.4375 -4.21875 C 2.875 -4.46875 2.410156 -4.703125 2.046875 -4.921875 C 1.691406 -5.148438 1.390625 -5.445312 1.140625 -5.8125 C 0.890625 -6.175781 0.765625 -6.625 0.765625 -7.15625 C 0.765625 -7.75 0.921875 -8.285156 1.234375 -8.765625 C 1.546875 -9.242188 1.984375 -9.617188 2.546875 -9.890625 C 3.117188 -10.160156 3.769531 -10.296875 4.5 -10.296875 Z M 4.5 -10.296875 "/></g></g><g style="fill:#1e1e24;fill-opacity:1;"><g transform="translate(89.57013, 337.869905)"><path style="stroke:none" d="M 7.625 -1.765625 L 7.75 -1.59375 L 7.609375 0 L 1.234375 0 L 1.34375 -3.03125 L 1.234375 -10.171875 L 7.671875 -10.171875 L 7.796875 -10 L 7.640625 -8.40625 L 5.21875 -8.484375 L 3.375 -8.46875 L 3.328125 -6.015625 L 5.09375 -5.984375 L 6.75 -6.03125 L 6.875 -5.875 L 6.734375 -4.28125 L 4.921875 -4.328125 L 3.296875 -4.3125 L 3.28125 -3.21875 L 3.328125 -1.6875 L 5.125 -1.671875 Z M 7.625 -1.765625 "/></g></g><g style="fill:#1e1e24;fill-opacity:1;"><g transform="translate(104.593025, 337.869905)"><path style="stroke:none" d="M 6.609375 -5.28125 C 7.296875 -5.101562 7.804688 -4.816406 8.140625 -4.421875 C 8.472656 -4.035156 8.640625 -3.519531 8.640625 -2.875 C 8.640625 -0.90625 7.097656 0.078125 4.015625 0.078125 C 3.109375 0.078125 2.179688 0.0507812 1.234375 0 L 1.34375 -3.03125 L 1.234375 -10.171875 L 4.84375 -10.1875 C 5.882812 -10.1875 6.695312 -9.96875 7.28125 -9.53125 C 7.863281 -9.09375 8.15625 -8.460938 8.15625 -7.640625 C 8.15625 -7.097656 8.019531 -6.617188 7.75 -6.203125 C 7.476562 -5.796875 7.097656 -5.488281 6.609375 -5.28125 Z M 5.953125 -7.359375 C 5.953125 -7.828125 5.816406 -8.15625 5.546875 -8.34375 C 5.273438 -8.539062 4.796875 -8.640625 4.109375 -8.640625 L 3.328125 -8.640625 L 3.28125 -5.875 L 4.765625 -5.828125 C 5.171875 -5.929688 5.46875 -6.101562 5.65625 -6.34375 C 5.851562 -6.59375 5.953125 -6.929688 5.953125 -7.359375 Z M 4.375 -1.453125 C 5.039062 -1.453125 5.550781 -1.582031 5.90625 -1.84375 C 6.269531 -2.113281 6.453125 -2.492188 6.453125 -2.984375 C 6.453125 -3.734375 5.96875 -4.195312 5 -4.375 L 3.25 -4.34375 L 3.234375 -3.21875 L 3.28125 -1.515625 C 3.65625 -1.472656 4.019531 -1.453125 4.375 -1.453125 Z M 4.375 -1.453125 "/></g></g><g style="fill:#1e1e24;fill-opacity:1;"><g transform="translate(120.721207, 337.869905)"><path style="stroke:none" d="M 9.21875 0 L 7.046875 0 L 6.796875 -1.328125 L 6.53125 -2.28125 L 4.53125 -2.328125 L 2.78125 -2.28125 L 2.515625 -1.4375 L 2.25 0 L 0.125 0 L 3.5625 -10.171875 L 6.109375 -10.171875 Z M 6.0625 -3.9375 L 4.859375 -8.171875 L 4.71875 -8.171875 L 3.328125 -3.9375 L 4.6875 -3.90625 Z M 6.0625 -3.9375 "/></g></g><g style="fill:#1e1e24;fill-opacity:1;"><g transform="translate(137.180963, 337.869905)"><path style="stroke:none" d="M 4.5 -10.296875 C 5.363281 -10.296875 6.222656 -10.125 7.078125 -9.78125 L 6.734375 -7.9375 L 6.40625 -7.796875 C 6.050781 -8.054688 5.679688 -8.257812 5.296875 -8.40625 C 4.910156 -8.550781 4.5625 -8.625 4.25 -8.625 C 3.832031 -8.625 3.492188 -8.507812 3.234375 -8.28125 C 2.984375 -8.0625 2.859375 -7.800781 2.859375 -7.5 C 2.859375 -7.195312 3 -6.9375 3.28125 -6.71875 C 3.5625 -6.507812 4 -6.265625 4.59375 -5.984375 C 5.175781 -5.722656 5.648438 -5.476562 6.015625 -5.25 C 6.378906 -5.019531 6.6875 -4.722656 6.9375 -4.359375 C 7.195312 -3.992188 7.328125 -3.539062 7.328125 -3 C 7.328125 -2.414062 7.164062 -1.882812 6.84375 -1.40625 C 6.53125 -0.925781 6.082031 -0.546875 5.5 -0.265625 C 4.925781 0.00390625 4.257812 0.140625 3.5 0.140625 C 2.5 0.140625 1.492188 -0.0703125 0.484375 -0.5 L 0.796875 -2.5 L 1.03125 -2.625 C 1.445312 -2.25 1.90625 -1.960938 2.40625 -1.765625 C 2.90625 -1.578125 3.351562 -1.484375 3.75 -1.484375 C 4.207031 -1.484375 4.566406 -1.597656 4.828125 -1.828125 C 5.085938 -2.054688 5.21875 -2.328125 5.21875 -2.640625 C 5.21875 -2.972656 5.078125 -3.242188 4.796875 -3.453125 C 4.515625 -3.671875 4.0625 -3.925781 3.4375 -4.21875 C 2.875 -4.46875 2.410156 -4.703125 2.046875 -4.921875 C 1.691406 -5.148438 1.390625 -5.445312 1.140625 -5.8125 C 0.890625 -6.175781 0.765625 -6.625 0.765625 -7.15625 C 0.765625 -7.75 0.921875 -8.285156 1.234375 -8.765625 C 1.546875 -9.242188 1.984375 -9.617188 2.546875 -9.890625 C 3.117188 -10.160156 3.769531 -10.296875 4.5 -10.296875 Z M 4.5 -10.296875 "/></g></g><g style="fill:#1e1e24;fill-opacity:1;"><g transform="translate(151.824728, 337.869905)"><path style="stroke:none" d="M 7.71875 -10 L 7.59375 -8.40625 L 5.6875 -8.5 L 5.0625 -8.5 L 4.96875 -3.21875 L 5.078125 0 L 2.921875 0 L 3.03125 -3.03125 L 2.953125 -8.5 L 2.328125 -8.5 L 0.375 -8.40625 L 0.234375 -8.578125 L 0.375 -10.171875 L 7.59375 -10.171875 Z M 7.71875 -10 "/></g></g><g style="fill:#1e1e24;fill-opacity:1;"><g transform="translate(166.68969, 337.869905)"><path style="stroke:none" d="M 3.28125 -3.21875 L 3.375 0 L 1.234375 0 L 1.34375 -3.03125 L 1.234375 -10.171875 L 3.40625 -10.171875 Z M 3.28125 -3.21875 "/></g></g><g style="fill:#1e1e24;fill-opacity:1;"><g transform="translate(178.333586, 337.869905)"><path style="stroke:none" d="M 9.21875 0 L 7.046875 0 L 6.796875 -1.328125 L 6.53125 -2.28125 L 4.53125 -2.328125 L 2.78125 -2.28125 L 2.515625 -1.4375 L 2.25 0 L 0.125 0 L 3.5625 -10.171875 L 6.109375 -10.171875 Z M 6.0625 -3.9375 L 4.859375 -8.171875 L 4.71875 -8.171875 L 3.328125 -3.9375 L 4.6875 -3.90625 Z M 6.53125 -14 L 7.0625 -12.75 L 7 -12.5625 C 5.976562 -12.15625 4.84375 -11.742188 3.59375 -11.328125 L 3.40625 -11.390625 L 3.046875 -12.265625 C 4.347656 -12.910156 5.441406 -13.503906 6.328125 -14.046875 Z M 6.53125 -14 "/></g></g><g style="fill:#1e1e24;fill-opacity:1;"><g transform="translate(194.793342, 337.869905)"><path style="stroke:none" d="M 9.640625 -3.140625 L 9.71875 0 L 7.40625 0 L 3.25 -6.890625 L 3.125 -6.890625 L 3.109375 -3.5 L 3.171875 0 L 1.234375 0 L 1.34375 -3 L 1.25 -10.171875 L 3.53125 -10.171875 L 7.6875 -3.28125 L 7.828125 -3.28125 L 7.78125 -10.078125 L 9.765625 -10.203125 Z M 9.640625 -3.140625 "/></g></g><g style="fill:#1e1e24;fill-opacity:1;"><g transform="translate(212.753132, 337.869905)"><path style="stroke:none" d=""/></g></g><g style="fill:#1e1e24;fill-opacity:1;"><g transform="translate(222.123314, 337.869905)"><path style="stroke:none" d="M 5.328125 -10.234375 C 6.796875 -10.234375 7.925781 -9.820312 8.71875 -9 C 9.507812 -8.175781 9.90625 -7 9.90625 -5.46875 C 9.90625 -3.664062 9.460938 -2.285156 8.578125 -1.328125 C 7.691406 -0.367188 6.425781 0.109375 4.78125 0.109375 C 4.289062 0.109375 3.695312 0.0976562 3 0.078125 C 2.3125 0.0546875 1.722656 0.03125 1.234375 0 L 1.34375 -3.03125 L 1.234375 -10.171875 Z M 5.171875 -1.546875 C 6.835938 -1.546875 7.671875 -2.6875 7.671875 -4.96875 C 7.671875 -6.21875 7.46875 -7.125 7.0625 -7.6875 C 6.65625 -8.25 6.023438 -8.53125 5.171875 -8.53125 C 4.609375 -8.53125 4.007812 -8.503906 3.375 -8.453125 L 3.28125 -3.21875 L 3.328125 -1.65625 C 4.066406 -1.582031 4.679688 -1.546875 5.171875 -1.546875 Z M 5.171875 -1.546875 "/></g></g><g style="fill:#1e1e24;fill-opacity:1;"><g transform="translate(239.45151, 337.869905)"><path style="stroke:none" d="M 9.046875 -5 L 9.03125 -3.671875 C 9.039062 -2.453125 8.6875 -1.507812 7.96875 -0.84375 C 7.257812 -0.1875 6.234375 0.140625 4.890625 0.140625 C 3.609375 0.140625 2.628906 -0.175781 1.953125 -0.8125 C 1.285156 -1.457031 0.96875 -2.378906 1 -3.578125 L 1.015625 -5.0625 L 0.96875 -10.171875 L 3.109375 -10.171875 L 3 -3.875 C 2.988281 -3.101562 3.148438 -2.53125 3.484375 -2.15625 C 3.828125 -1.789062 4.335938 -1.609375 5.015625 -1.609375 C 6.390625 -1.609375 7.070312 -2.328125 7.0625 -3.765625 L 6.953125 -10.171875 L 9.125 -10.171875 Z M 9.046875 -5 "/></g></g><g style="fill:#1e1e24;fill-opacity:1;"><g transform="translate(256.511273, 337.869905)"><path style="stroke:none" d="M 6.578125 -4.046875 C 7.390625 -2.734375 8.203125 -1.550781 9.015625 -0.5 L 8.984375 -0.265625 C 8.304688 -0.0234375 7.609375 0.113281 6.890625 0.15625 L 6.671875 -0.015625 C 5.910156 -1.316406 5.289062 -2.453125 4.8125 -3.421875 L 3.28125 -3.421875 L 3.28125 -3.21875 L 3.375 0 L 1.234375 0 L 1.34375 -3.03125 L 1.234375 -10.171875 L 5.140625 -10.1875 C 6.203125 -10.1875 7.019531 -9.925781 7.59375 -9.40625 C 8.175781 -8.882812 8.46875 -8.140625 8.46875 -7.171875 C 8.46875 -6.515625 8.300781 -5.914062 7.96875 -5.375 C 7.632812 -4.832031 7.171875 -4.390625 6.578125 -4.046875 Z M 3.3125 -5.09375 L 4.875 -5.015625 C 5.769531 -5.328125 6.21875 -5.976562 6.21875 -6.96875 C 6.21875 -7.5 6.070312 -7.898438 5.78125 -8.171875 C 5.5 -8.441406 5.054688 -8.585938 4.453125 -8.609375 L 3.375 -8.546875 Z M 3.3125 -5.09375 "/></g></g><g style="fill:#1e1e24;fill-opacity:1;"><g transform="translate(272.813142, 337.869905)"><path style="stroke:none" d="M 9.21875 0 L 7.046875 0 L 6.796875 -1.328125 L 6.53125 -2.28125 L 4.53125 -2.328125 L 2.78125 -2.28125 L 2.515625 -1.4375 L 2.25 0 L 0.125 0 L 3.5625 -10.171875 L 6.109375 -10.171875 Z M 6.0625 -3.9375 L 4.859375 -8.171875 L 4.71875 -8.171875 L 3.328125 -3.9375 L 4.6875 -3.90625 Z M 6.53125 -14 L 7.0625 -12.75 L 7 -12.5625 C 5.976562 -12.15625 4.84375 -11.742188 3.59375 -11.328125 L 3.40625 -11.390625 L 3.046875 -12.265625 C 4.347656 -12.910156 5.441406 -13.503906 6.328125 -14.046875 Z M 6.53125 -14 "/></g></g><g style="fill:#1e1e24;fill-opacity:1;"><g transform="translate(289.272898, 337.869905)"><path style="stroke:none" d="M 9.640625 -3.140625 L 9.71875 0 L 7.40625 0 L 3.25 -6.890625 L 3.125 -6.890625 L 3.109375 -3.5 L 3.171875 0 L 1.234375 0 L 1.34375 -3 L 1.25 -10.171875 L 3.53125 -10.171875 L 7.6875 -3.28125 L 7.828125 -3.28125 L 7.78125 -10.078125 L 9.765625 -10.203125 Z M 9.640625 -3.140625 "/></g></g><g style="fill:#83a962;fill-opacity:1;"><g transform="translate(74.32273, 359.365492)"><path style="stroke:none" d="M 7.40625 -10 L 7.3125 -9.015625 L 5.546875 -9.109375 L 4.515625 -9.109375 L 4.46875 -3.15625 L 4.515625 0 L 3.234375 0 L 3.328125 -3.046875 L 3.25 -9.109375 L 2.234375 -9.109375 L 0.421875 -9.015625 L 0.34375 -9.140625 L 0.4375 -10.125 L 7.3125 -10.125 Z M 7.40625 -10 "/></g></g><g style="fill:#83a962;fill-opacity:1;"><g transform="translate(88.792731, 359.365492)"><path style="stroke:none" d="M 7.25 -0.984375 L 7.15625 0 L 1.46875 0 L 1.546875 -3.046875 L 1.46875 -10.125 L 7.171875 -10.125 L 7.234375 -10 L 7.140625 -9.015625 L 4.75 -9.0625 L 2.75 -9.03125 L 2.71875 -5.71875 L 4.609375 -5.6875 L 6.28125 -5.734375 L 6.375 -5.625 L 6.265625 -4.640625 L 4.5 -4.671875 L 2.703125 -4.65625 L 2.6875 -3.15625 L 2.734375 -1.0625 L 4.734375 -1.046875 L 7.171875 -1.109375 Z M 7.25 -0.984375 "/></g></g><g style="fill:#83a962;fill-opacity:1;"><g transform="translate(103.136416, 359.365492)"><path style="stroke:none" d="M 5.59375 -4.09375 C 6.289062 -2.945312 7.164062 -1.679688 8.21875 -0.296875 L 8.203125 -0.140625 C 7.816406 0.00390625 7.425781 0.0976562 7.03125 0.140625 L 6.859375 0.03125 C 5.992188 -1.257812 5.21875 -2.523438 4.53125 -3.765625 L 2.6875 -3.765625 L 2.6875 -3.15625 L 2.75 0 L 1.46875 0 L 1.546875 -3.046875 L 1.46875 -10.125 L 4.5625 -10.140625 C 5.550781 -10.140625 6.316406 -9.890625 6.859375 -9.390625 C 7.398438 -8.890625 7.671875 -8.175781 7.671875 -7.25 C 7.671875 -6.550781 7.488281 -5.925781 7.125 -5.375 C 6.769531 -4.820312 6.257812 -4.394531 5.59375 -4.09375 Z M 2.703125 -4.828125 L 4.59375 -4.78125 C 5.769531 -5.125 6.359375 -5.910156 6.359375 -7.140625 C 6.359375 -7.785156 6.1875 -8.265625 5.84375 -8.578125 C 5.5 -8.898438 4.976562 -9.070312 4.28125 -9.09375 L 2.75 -9.046875 Z M 2.703125 -4.828125 "/></g></g><g style="fill:#83a962;fill-opacity:1;"><g transform="translate(118.632744, 359.365492)"><path style="stroke:none" d="M 8.78125 0 L 7.484375 0 L 7.25 -1.015625 L 6.6875 -2.75 L 4.40625 -2.796875 L 2.359375 -2.75 L 1.734375 -1.078125 L 1.484375 0 L 0.21875 0 L 3.9375 -10.125 L 5.40625 -10.125 Z M 6.328125 -3.828125 L 4.6875 -8.8125 L 4.578125 -8.8125 L 2.75 -3.828125 L 4.515625 -3.796875 Z M 6.328125 -3.828125 "/></g></g><g style="fill:#83a962;fill-opacity:1;"><g transform="translate(134.492249, 359.365492)"><path style="stroke:none" d="M 4.5625 -10.140625 C 5.550781 -10.140625 6.3125 -9.882812 6.84375 -9.375 C 7.382812 -8.863281 7.65625 -8.128906 7.65625 -7.171875 C 7.65625 -6.046875 7.320312 -5.160156 6.65625 -4.515625 C 5.988281 -3.867188 5.066406 -3.546875 3.890625 -3.546875 L 2.6875 -3.546875 L 2.6875 -3.15625 L 2.75 0 L 1.46875 0 L 1.546875 -3.046875 L 1.46875 -10.125 Z M 4.359375 -4.578125 C 5.015625 -4.679688 5.507812 -4.941406 5.84375 -5.359375 C 6.1875 -5.785156 6.359375 -6.351562 6.359375 -7.0625 C 6.359375 -8.363281 5.664062 -9.039062 4.28125 -9.09375 L 2.75 -9.046875 L 2.703125 -4.609375 Z M 4.359375 -4.578125 "/></g></g><g style="fill:#83a962;fill-opacity:1;"><g transform="translate(148.645804, 359.365492)"><path style="stroke:none" d="M 8.78125 0 L 7.484375 0 L 7.25 -1.015625 L 6.6875 -2.75 L 4.40625 -2.796875 L 2.359375 -2.75 L 1.734375 -1.078125 L 1.484375 0 L 0.21875 0 L 3.9375 -10.125 L 5.40625 -10.125 Z M 6.328125 -3.828125 L 4.6875 -8.8125 L 4.578125 -8.8125 L 2.75 -3.828125 L 4.515625 -3.796875 Z M 6.328125 -3.828125 "/></g></g><g style="fill:#83a962;fill-opacity:1;"><g transform="translate(164.236663, 359.365492)"><path style="stroke:none" d="M 8.703125 -4.96875 L 8.6875 -3.84375 C 8.707031 -2.59375 8.378906 -1.617188 7.703125 -0.921875 C 7.035156 -0.234375 6.078125 0.109375 4.828125 0.109375 C 3.640625 0.109375 2.726562 -0.21875 2.09375 -0.875 C 1.457031 -1.539062 1.148438 -2.484375 1.171875 -3.703125 L 1.1875 -5.078125 L 1.171875 -10.125 L 2.421875 -10.125 L 2.375 -3.859375 C 2.363281 -2.910156 2.570312 -2.195312 3 -1.71875 C 3.4375 -1.238281 4.078125 -1 4.921875 -1 C 5.773438 -1 6.421875 -1.222656 6.859375 -1.671875 C 7.304688 -2.128906 7.523438 -2.804688 7.515625 -3.703125 L 7.453125 -10.125 L 8.71875 -10.125 Z M 8.703125 -4.96875 "/></g></g><g style="fill:#83a962;fill-opacity:1;"><g transform="translate(180.854062, 359.365492)"><path style="stroke:none" d="M 7.40625 -10 L 7.3125 -9.015625 L 5.546875 -9.109375 L 4.515625 -9.109375 L 4.46875 -3.15625 L 4.515625 0 L 3.234375 0 L 3.328125 -3.046875 L 3.25 -9.109375 L 2.234375 -9.109375 L 0.421875 -9.015625 L 0.34375 -9.140625 L 0.4375 -10.125 L 7.3125 -10.125 Z M 7.40625 -10 "/></g></g><g style="fill:#83a962;fill-opacity:1;"><g transform="translate(194.454906, 359.365492)"><path style="stroke:none" d="M 8.78125 0 L 7.484375 0 L 7.25 -1.015625 L 6.6875 -2.75 L 4.40625 -2.796875 L 2.359375 -2.75 L 1.734375 -1.078125 L 1.484375 0 L 0.21875 0 L 3.9375 -10.125 L 5.40625 -10.125 Z M 6.328125 -3.828125 L 4.6875 -8.8125 L 4.578125 -8.8125 L 2.75 -3.828125 L 4.515625 -3.796875 Z M 6.328125 -3.828125 "/></g></g><g style="fill:#83a962;fill-opacity:1;"><g transform="translate(210.314411, 359.365492)"><path style="stroke:none" d=""/></g></g><g style="fill:#83a962;fill-opacity:1;"><g transform="translate(219.652762, 359.365492)"><path style="stroke:none" d="M 2.75 -9.03125 L 2.71875 -5.515625 L 4.421875 -5.484375 L 6.0625 -5.53125 L 6.15625 -5.40625 L 6.046875 -4.4375 L 4.296875 -4.484375 L 2.703125 -4.46875 L 2.6875 -3.15625 L 2.75 0 L 1.46875 0 L 1.546875 -3.046875 L 1.46875 -10.125 L 6.859375 -10.125 L 6.953125 -10 L 6.84375 -8.984375 L 4.515625 -9.0625 Z M 2.75 -9.03125 "/></g></g><g style="fill:#83a962;fill-opacity:1;"><g transform="translate(233.238538, 359.365492)"><path style="stroke:none" d="M 6.53125 -0.953125 L 6.40625 0 L 1.421875 0 L 1.5 -3.046875 L 1.421875 -10.125 L 2.71875 -10.125 L 2.640625 -3.15625 L 2.6875 -1.0625 L 6.421875 -1.0625 Z M 6.53125 -0.953125 "/></g></g><g style="fill:#83a962;fill-opacity:1;"><g transform="translate(245.987018, 359.365492)"><path style="stroke:none" d="M 5.140625 -10.21875 C 6.523438 -10.21875 7.585938 -9.789062 8.328125 -8.9375 C 9.078125 -8.082031 9.453125 -6.859375 9.453125 -5.265625 C 9.453125 -3.535156 9.054688 -2.203125 8.265625 -1.265625 C 7.472656 -0.335938 6.34375 0.125 4.875 0.125 C 3.507812 0.125 2.453125 -0.316406 1.703125 -1.203125 C 0.960938 -2.085938 0.59375 -3.34375 0.59375 -4.96875 C 0.59375 -6.65625 0.984375 -7.953125 1.765625 -8.859375 C 2.554688 -9.765625 3.679688 -10.21875 5.140625 -10.21875 Z M 5.0625 -9.1875 C 2.945312 -9.1875 1.890625 -7.832031 1.890625 -5.125 C 1.890625 -3.675781 2.144531 -2.601562 2.65625 -1.90625 C 3.164062 -1.21875 3.9375 -0.875 4.96875 -0.875 C 7.082031 -0.875 8.140625 -2.253906 8.140625 -5.015625 C 8.140625 -6.429688 7.882812 -7.476562 7.375 -8.15625 C 6.863281 -8.84375 6.09375 -9.1875 5.0625 -9.1875 Z M 5.0625 -9.1875 "/></g></g><g style="fill:#83a962;fill-opacity:1;"><g transform="translate(262.746534, 359.365492)"><path style="stroke:none" d="M 5.59375 -4.09375 C 6.289062 -2.945312 7.164062 -1.679688 8.21875 -0.296875 L 8.203125 -0.140625 C 7.816406 0.00390625 7.425781 0.0976562 7.03125 0.140625 L 6.859375 0.03125 C 5.992188 -1.257812 5.21875 -2.523438 4.53125 -3.765625 L 2.6875 -3.765625 L 2.6875 -3.15625 L 2.75 0 L 1.46875 0 L 1.546875 -3.046875 L 1.46875 -10.125 L 4.5625 -10.140625 C 5.550781 -10.140625 6.316406 -9.890625 6.859375 -9.390625 C 7.398438 -8.890625 7.671875 -8.175781 7.671875 -7.25 C 7.671875 -6.550781 7.488281 -5.925781 7.125 -5.375 C 6.769531 -4.820312 6.257812 -4.394531 5.59375 -4.09375 Z M 2.703125 -4.828125 L 4.59375 -4.78125 C 5.769531 -5.125 6.359375 -5.910156 6.359375 -7.140625 C 6.359375 -7.785156 6.1875 -8.265625 5.84375 -8.578125 C 5.5 -8.898438 4.976562 -9.070312 4.28125 -9.09375 L 2.75 -9.046875 Z M 2.703125 -4.828125 "/></g></g><g style="fill:#83a962;fill-opacity:1;"><g transform="translate(278.242861, 359.365492)"><path style="stroke:none" d="M 8.78125 0 L 7.484375 0 L 7.25 -1.015625 L 6.6875 -2.75 L 4.40625 -2.796875 L 2.359375 -2.75 L 1.734375 -1.078125 L 1.484375 0 L 0.21875 0 L 3.9375 -10.125 L 5.40625 -10.125 Z M 6.328125 -3.828125 L 4.6875 -8.8125 L 4.578125 -8.8125 L 2.75 -3.828125 L 4.515625 -3.796875 Z M 6.328125 -3.828125 "/></g></g><g style="fill:#83a962;fill-opacity:1;"><g transform="translate(294.102366, 359.365492)"><path style="stroke:none" d="M 6.53125 -0.953125 L 6.40625 0 L 1.421875 0 L 1.5 -3.046875 L 1.421875 -10.125 L 2.71875 -10.125 L 2.640625 -3.15625 L 2.6875 -1.0625 L 6.421875 -1.0625 Z M 6.53125 -0.953125 "/></g></g></g></svg>