<svg xmlns="http://www.w3.org/2000/svg" xmlns:xlink="http://www.w3.org/1999/xlink" width="500" zoomAndPan="magnify" viewBox="0 0 375 374.999991" height="500" preserveAspectRatio="xMidYMid meet" version="1.2"><defs><clipPath id="643b606cac"><path d="M 25 225 L 367.644531 225 L 367.644531 288 L 25 288 Z M 25 225 "/></clipPath><clipPath id="16ea0e3bde"><path d="M 142 52.019531 L 211 52.019531 L 211 190 L 142 190 Z M 142 52.019531 "/></clipPath><clipPath id="27fce9dcf0"><path d="M 8.394531 185 L 146 185 L 146 251 L 8.394531 251 Z M 8.394531 185 "/></clipPath><clipPath id="a36725be2c"><path d="M 48 257 L 367.644531 257 L 367.644531 290 L 48 290 Z M 48 257 "/></clipPath></defs><g id="327510c1af"><g clip-rule="nonzero" clip-path="url(#643b606cac)"><path style=" stroke:none;fill-rule:evenodd;fill:#ff6600;fill-opacity:1;" d="M 25.585938 283.273438 C 227.941406 132.769531 403.976562 334.171875 575.910156 243.078125 C 453.855469 371.925781 216.164062 165.875 25.585938 283.273438 "/></g><g clip-rule="nonzero" clip-path="url(#16ea0e3bde)"><path style=" stroke:none;fill-rule:evenodd;fill:#ff6600;fill-opacity:1;" d="M 151.539062 189.546875 C 145.410156 174.375 142.03125 157.789062 142.03125 140.417969 C 142.03125 106.34375 155.015625 75.304688 176.304688 51.972656 C 197.59375 75.304688 210.582031 106.34375 210.582031 140.417969 C 210.582031 157.789062 207.203125 174.375 201.074219 189.550781 C 204.476562 178.683594 206.316406 167.128906 206.316406 155.140625 C 206.316406 125.308594 194.945312 98.132812 176.304688 77.707031 C 157.667969 98.132812 146.296875 125.308594 146.296875 155.140625 C 146.296875 167.128906 148.136719 178.683594 151.539062 189.546875 "/></g><path style=" stroke:none;fill-rule:evenodd;fill:#ff6600;fill-opacity:1;" d="M 139.691406 205.996094 C 126.792969 195.917969 115.574219 183.246094 106.890625 168.199219 C 89.851562 138.691406 85.578125 105.320312 92.347656 74.46875 C 122.453125 84.03125 149.21875 104.417969 166.253906 133.925781 C 174.941406 148.972656 180.304688 165.019531 182.585938 181.230469 C 180.101562 170.121094 175.917969 159.191406 169.921875 148.8125 C 155.007812 122.976562 131.574219 105.125 105.214844 96.753906 C 99.289062 123.765625 103.027344 152.984375 117.945312 178.820312 C 123.941406 189.199219 131.3125 198.289062 139.691406 205.996094 "/><path style=" stroke:none;fill-rule:evenodd;fill:#ff6600;fill-opacity:1;" d="M 130.320312 224.921875 C 116.617188 222.1875 103.121094 217.207031 90.347656 209.832031 C 60.835938 192.796875 40.449219 166.03125 30.890625 135.929688 C 61.738281 129.15625 95.113281 133.429688 124.625 150.46875 C 139.667969 159.15625 152.339844 170.371094 162.417969 183.269531 C 154.710938 174.886719 145.625 167.519531 135.242188 161.527344 C 109.40625 146.609375 80.183594 142.867188 53.175781 148.796875 C 61.546875 175.152344 79.398438 198.585938 105.234375 213.503906 C 113.714844 218.398438 122.5625 222.089844 131.574219 224.632812 C 131.152344 224.726562 130.738281 224.820312 130.320312 224.921875 "/><g clip-rule="nonzero" clip-path="url(#27fce9dcf0)"><path style=" stroke:none;fill-rule:evenodd;fill:#ff6600;fill-opacity:1;" d="M 64.691406 250.191406 C 43.375 244.824219 24.128906 234.242188 8.394531 219.882812 C 31.726562 198.59375 62.765625 185.609375 96.839844 185.609375 C 114.210938 185.609375 130.792969 188.988281 145.972656 195.117188 C 135.105469 191.714844 123.550781 189.875 111.566406 189.875 C 81.734375 189.875 54.554688 201.246094 34.128906 219.882812 C 46.101562 230.808594 60.390625 239.234375 76.175781 244.339844 C 72.355469 246.183594 68.527344 248.117188 64.691406 250.191406 "/></g><path style=" stroke:none;fill-rule:evenodd;fill:#ff6600;fill-opacity:1;" d="M 170.027344 181.230469 C 172.304688 165.023438 177.667969 148.972656 186.355469 133.925781 C 203.394531 104.417969 230.160156 84.027344 260.261719 74.464844 C 267.035156 105.320312 262.761719 138.691406 245.722656 168.199219 C 237.035156 183.246094 225.820312 195.917969 212.921875 205.996094 C 221.304688 198.289062 228.671875 189.199219 234.667969 178.820312 C 249.582031 152.984375 253.324219 123.765625 247.394531 96.753906 C 221.039062 105.125 197.605469 122.976562 182.691406 148.8125 C 176.695312 159.191406 172.507812 170.117188 170.027344 181.230469 "/><path style=" stroke:none;fill-rule:evenodd;fill:#ff6600;fill-opacity:1;" d="M 190.195312 183.265625 C 200.273438 170.371094 212.945312 159.152344 227.988281 150.46875 C 257.5 133.429688 290.871094 129.15625 321.722656 135.925781 C 312.160156 166.03125 291.773438 192.796875 262.261719 209.832031 C 255.089844 213.972656 247.6875 217.363281 240.148438 220.019531 C 238.589844 219.839844 237.035156 219.65625 235.480469 219.492188 C 239.511719 217.746094 243.480469 215.75 247.378906 213.503906 C 273.214844 198.585938 291.066406 175.152344 299.4375 148.796875 C 272.425781 142.867188 243.207031 146.609375 217.367188 161.527344 C 206.988281 167.519531 197.902344 174.886719 190.195312 183.265625 "/><path style=" stroke:none;fill-rule:evenodd;fill:#ff6600;fill-opacity:1;" d="M 206.640625 195.117188 C 221.816406 188.988281 238.402344 185.609375 255.773438 185.609375 C 289.847656 185.609375 320.886719 198.59375 344.21875 219.882812 C 337.84375 225.703125 330.882812 230.902344 323.453125 235.382812 C 317.015625 233.914062 310.5625 232.46875 304.089844 231.070312 C 309.183594 227.722656 313.996094 223.976562 318.484375 219.882812 C 298.058594 201.242188 270.882812 189.875 241.050781 189.875 C 229.0625 189.875 217.507812 191.710938 206.640625 195.117188 "/><path style=" stroke:none;fill-rule:evenodd;fill:#ff6600;fill-opacity:1;" d="M 176.308594 188.457031 C 192.875 188.457031 206.445312 201.277344 207.644531 217.535156 C 205.816406 217.476562 203.984375 217.445312 202.148438 217.414062 C 200.90625 204.238281 189.8125 193.921875 176.308594 193.921875 C 161.96875 193.921875 150.347656 205.546875 150.347656 219.882812 C 150.347656 220.238281 150.355469 220.585938 150.371094 220.933594 C 148.5625 221.222656 146.753906 221.503906 144.945312 221.832031 C 144.902344 221.1875 144.882812 220.539062 144.882812 219.882812 C 144.882812 202.527344 158.949219 188.457031 176.308594 188.457031 "/><g clip-rule="nonzero" clip-path="url(#a36725be2c)"><path style=" stroke:none;fill-rule:evenodd;fill:#ff6600;fill-opacity:1;" d="M 48.949219 281.054688 C 162.605469 224.816406 279.675781 285.753906 398.289062 288.550781 C 279.824219 295.480469 161.625 246.871094 48.949219 281.054688 "/></g></g></svg>