<svg xmlns="http://www.w3.org/2000/svg" xmlns:xlink="http://www.w3.org/1999/xlink" width="500" zoomAndPan="magnify" viewBox="0 0 375 149.999998" height="200" preserveAspectRatio="xMidYMid meet" version="1.2"><defs><clipPath id="36822d7533"><path d="M 14 88 L 126.601562 88 L 126.601562 110 L 14 110 Z M 14 88 "/></clipPath><clipPath id="49b376a8c1"><path d="M 52 32.054688 L 76 32.054688 L 76 78 L 52 78 Z M 52 32.054688 "/></clipPath><clipPath id="ce08c5570b"><path d="M 8.851562 75 L 54 75 L 54 97 L 8.851562 97 Z M 8.851562 75 "/></clipPath><clipPath id="a9e219d6cc"><path d="M 22 99 L 126.601562 99 L 126.601562 110 L 22 110 Z M 22 99 "/></clipPath></defs><g id="f3270b147f"><g clip-rule="nonzero" clip-path="url(#36822d7533)"><path style=" stroke:none;fill-rule:evenodd;fill:#ff6600;fill-opacity:1;" d="M 14.484375 107.800781 C 80.761719 58.503906 138.421875 124.46875 194.734375 94.632812 C 154.757812 136.835938 76.90625 69.347656 14.484375 107.800781 "/></g><g clip-rule="nonzero" clip-path="url(#49b376a8c1)"><path style=" stroke:none;fill-rule:evenodd;fill:#ff6600;fill-opacity:1;" d="M 55.738281 77.101562 C 53.730469 72.128906 52.625 66.699219 52.625 61.007812 C 52.625 49.847656 56.878906 39.679688 63.851562 32.039062 C 70.824219 39.679688 75.078125 49.847656 75.078125 61.007812 C 75.078125 66.699219 73.96875 72.128906 71.960938 77.101562 C 73.078125 73.542969 73.679688 69.757812 73.679688 65.832031 C 73.679688 56.058594 69.953125 47.160156 63.851562 40.46875 C 57.746094 47.160156 54.019531 56.058594 54.019531 65.832031 C 54.019531 69.757812 54.625 73.542969 55.738281 77.101562 "/></g><path style=" stroke:none;fill-rule:evenodd;fill:#ff6600;fill-opacity:1;" d="M 51.855469 82.488281 C 47.632812 79.1875 43.957031 75.035156 41.113281 70.109375 C 35.535156 60.441406 34.132812 49.511719 36.351562 39.40625 C 46.210938 42.539062 54.976562 49.214844 60.558594 58.882812 C 63.402344 63.808594 65.160156 69.066406 65.90625 74.375 C 65.09375 70.738281 63.722656 67.15625 61.757812 63.757812 C 56.875 55.296875 49.199219 49.449219 40.566406 46.707031 C 38.625 55.554688 39.847656 65.125 44.734375 73.585938 C 46.699219 76.988281 49.113281 79.964844 51.855469 82.488281 "/><path style=" stroke:none;fill-rule:evenodd;fill:#ff6600;fill-opacity:1;" d="M 48.789062 88.6875 C 44.300781 87.792969 39.878906 86.160156 35.695312 83.746094 C 26.03125 78.164062 19.351562 69.398438 16.21875 59.539062 C 26.324219 57.320312 37.257812 58.71875 46.921875 64.300781 C 51.851562 67.144531 56 70.820312 59.300781 75.042969 C 56.777344 72.296875 53.800781 69.882812 50.398438 67.921875 C 41.9375 63.035156 32.367188 61.8125 23.519531 63.753906 C 26.261719 72.386719 32.109375 80.0625 40.570312 84.945312 C 43.347656 86.550781 46.246094 87.757812 49.199219 88.589844 C 49.0625 88.625 48.925781 88.652344 48.789062 88.6875 "/><g clip-rule="nonzero" clip-path="url(#ce08c5570b)"><path style=" stroke:none;fill-rule:evenodd;fill:#ff6600;fill-opacity:1;" d="M 27.292969 96.964844 C 20.3125 95.207031 14.007812 91.738281 8.851562 87.035156 C 16.496094 80.0625 26.660156 75.8125 37.820312 75.8125 C 43.511719 75.8125 48.941406 76.917969 53.914062 78.925781 C 50.355469 77.808594 46.570312 77.207031 42.644531 77.207031 C 32.875 77.207031 23.972656 80.933594 17.28125 87.035156 C 21.203125 90.617188 25.882812 93.375 31.054688 95.046875 C 29.800781 95.652344 28.550781 96.285156 27.292969 96.964844 "/></g><path style=" stroke:none;fill-rule:evenodd;fill:#ff6600;fill-opacity:1;" d="M 61.792969 74.375 C 62.539062 69.066406 64.296875 63.808594 67.140625 58.882812 C 72.722656 49.214844 81.488281 42.539062 91.347656 39.40625 C 93.566406 49.511719 92.167969 60.441406 86.585938 70.109375 C 83.742188 75.035156 80.066406 79.1875 75.84375 82.488281 C 78.589844 79.964844 81.003906 76.988281 82.964844 73.585938 C 87.851562 65.125 89.078125 55.554688 87.132812 46.707031 C 78.5 49.449219 70.828125 55.296875 65.941406 63.757812 C 63.976562 67.15625 62.605469 70.738281 61.792969 74.375 "/><path style=" stroke:none;fill-rule:evenodd;fill:#ff6600;fill-opacity:1;" d="M 68.398438 75.042969 C 71.699219 70.820312 75.851562 67.144531 80.777344 64.300781 C 90.445312 58.71875 101.375 57.320312 111.480469 59.539062 C 108.347656 69.398438 101.671875 78.164062 92.003906 83.746094 C 89.65625 85.101562 87.230469 86.210938 84.761719 87.082031 C 84.25 87.023438 83.742188 86.960938 83.230469 86.90625 C 84.550781 86.335938 85.851562 85.683594 87.128906 84.945312 C 95.589844 80.0625 101.4375 72.386719 104.179688 63.753906 C 95.332031 61.808594 85.761719 63.035156 77.300781 67.921875 C 73.898438 69.882812 70.921875 72.296875 68.398438 75.042969 "/><path style=" stroke:none;fill-rule:evenodd;fill:#ff6600;fill-opacity:1;" d="M 73.785156 78.925781 C 78.757812 76.917969 84.1875 75.808594 89.878906 75.808594 C 101.039062 75.808594 111.207031 80.0625 118.847656 87.035156 C 116.757812 88.941406 114.480469 90.644531 112.046875 92.113281 C 109.9375 91.632812 107.824219 91.160156 105.703125 90.699219 C 107.371094 89.605469 108.949219 88.378906 110.417969 87.035156 C 103.726562 80.929688 94.828125 77.207031 85.054688 77.207031 C 81.128906 77.207031 77.34375 77.808594 73.785156 78.925781 "/><path style=" stroke:none;fill-rule:evenodd;fill:#ff6600;fill-opacity:1;" d="M 63.851562 76.742188 C 69.277344 76.742188 73.722656 80.941406 74.113281 86.265625 C 73.515625 86.246094 72.914062 86.238281 72.316406 86.226562 C 71.90625 81.910156 68.273438 78.535156 63.851562 78.535156 C 59.152344 78.535156 55.347656 82.339844 55.347656 87.035156 C 55.347656 87.152344 55.351562 87.265625 55.355469 87.378906 C 54.761719 87.476562 54.171875 87.566406 53.578125 87.675781 C 53.566406 87.464844 53.558594 87.25 53.558594 87.035156 C 53.558594 81.351562 58.164062 76.742188 63.851562 76.742188 "/><g clip-rule="nonzero" clip-path="url(#a9e219d6cc)"><path style=" stroke:none;fill-rule:evenodd;fill:#ff6600;fill-opacity:1;" d="M 22.136719 107.074219 C 59.363281 88.652344 97.707031 108.609375 136.558594 109.527344 C 97.757812 111.796875 59.042969 95.875 22.136719 107.074219 "/></g><g style="fill:#ffffff;fill-opacity:1;"><g transform="translate(144.245382, 77.832813)"><path style="stroke:none" d="M 7.90625 -2.90625 C 7.90625 -2.351562 7.929688 -1.835938 7.984375 -1.359375 C 8.035156 -0.878906 8.132812 -0.425781 8.28125 0 L 4.96875 0 C 5.132812 -0.425781 5.238281 -0.878906 5.28125 -1.359375 C 5.332031 -1.835938 5.359375 -2.351562 5.359375 -2.90625 C 5.359375 -5.007812 5.359375 -7.117188 5.359375 -9.234375 C 5.359375 -11.347656 5.359375 -13.460938 5.359375 -15.578125 L 3.0625 -15.578125 C 2.425781 -15.578125 1.90625 -15.46875 1.5 -15.25 C 1.09375 -15.039062 0.785156 -14.804688 0.578125 -14.546875 C 0.378906 -14.296875 0.253906 -14.09375 0.203125 -13.9375 L 0 -13.9375 L 0.15625 -16.421875 L 13.125 -16.421875 L 13.28125 -13.9375 L 13.078125 -13.9375 C 13.015625 -14.09375 12.878906 -14.296875 12.671875 -14.546875 C 12.472656 -14.804688 12.171875 -15.039062 11.765625 -15.25 C 11.367188 -15.46875 10.84375 -15.578125 10.1875 -15.578125 L 7.90625 -15.578125 C 7.90625 -13.460938 7.90625 -11.347656 7.90625 -9.234375 C 7.90625 -7.117188 7.90625 -5.007812 7.90625 -2.90625 Z M 7.90625 -2.90625 "/></g></g><g style="fill:#ffffff;fill-opacity:1;"><g transform="translate(158.9184, 77.832813)"><path style="stroke:none" d="M 11.40625 0 L 0 0 C 0.15625 -0.425781 0.257812 -0.878906 0.3125 -1.359375 C 0.363281 -1.835938 0.390625 -2.351562 0.390625 -2.90625 C 0.390625 -3.28125 0.390625 -3.820312 0.390625 -4.53125 C 0.390625 -5.238281 0.390625 -6.03125 0.390625 -6.90625 C 0.390625 -7.78125 0.390625 -8.65625 0.390625 -9.53125 C 0.390625 -10.40625 0.390625 -11.195312 0.390625 -11.90625 C 0.390625 -12.613281 0.390625 -13.148438 0.390625 -13.515625 C 0.390625 -14.066406 0.363281 -14.585938 0.3125 -15.078125 C 0.257812 -15.566406 0.15625 -16.015625 0 -16.421875 L 10.78125 -16.421875 L 10.9375 -13.9375 L 10.75 -13.9375 C 10.695312 -14.09375 10.566406 -14.296875 10.359375 -14.546875 C 10.160156 -14.804688 9.859375 -15.039062 9.453125 -15.25 C 9.046875 -15.46875 8.515625 -15.578125 7.859375 -15.578125 L 2.90625 -15.578125 L 2.90625 -7.953125 L 5.328125 -7.953125 C 5.984375 -7.953125 6.507812 -8.054688 6.90625 -8.265625 C 7.3125 -8.484375 7.613281 -8.722656 7.8125 -8.984375 C 8.019531 -9.242188 8.15625 -9.445312 8.21875 -9.59375 L 8.40625 -9.59375 C 8.40625 -8.90625 8.40625 -8.210938 8.40625 -7.515625 C 8.40625 -6.828125 8.40625 -6.140625 8.40625 -5.453125 L 8.21875 -5.453125 C 8.15625 -5.617188 8.019531 -5.828125 7.8125 -6.078125 C 7.613281 -6.335938 7.3125 -6.570312 6.90625 -6.78125 C 6.507812 -6.988281 5.984375 -7.09375 5.328125 -7.09375 L 2.90625 -7.09375 L 2.90625 -0.859375 L 8.484375 -0.859375 C 9.140625 -0.859375 9.664062 -0.960938 10.0625 -1.171875 C 10.46875 -1.378906 10.769531 -1.613281 10.96875 -1.875 C 11.175781 -2.144531 11.3125 -2.351562 11.375 -2.5 L 11.5625 -2.5 Z M 11.40625 0 "/></g></g><g style="fill:#ffffff;fill-opacity:1;"><g transform="translate(171.883198, 77.832813)"><path style="stroke:none" d="M 6.484375 -16.421875 C 7.710938 -16.421875 8.71875 -16.265625 9.5 -15.953125 C 10.289062 -15.640625 10.875 -15.21875 11.25 -14.6875 C 11.632812 -14.164062 11.828125 -13.585938 11.828125 -12.953125 C 11.828125 -12.085938 11.613281 -11.367188 11.1875 -10.796875 C 10.769531 -10.234375 10.226562 -9.75 9.5625 -9.34375 C 8.894531 -8.9375 8.191406 -8.550781 7.453125 -8.1875 L 10.28125 -2.90625 C 10.539062 -2.425781 10.84375 -1.910156 11.1875 -1.359375 C 11.539062 -0.804688 11.859375 -0.351562 12.140625 0 L 8.65625 0 C 8.507812 -0.65625 8.257812 -1.304688 7.90625 -1.953125 L 5.21875 -7.015625 C 4.5625 -6.597656 4.007812 -6.101562 3.5625 -5.53125 C 3.125 -4.96875 2.90625 -4.25 2.90625 -3.375 L 2.90625 -2.90625 C 2.90625 -2.351562 2.9375 -1.835938 3 -1.359375 C 3.0625 -0.878906 3.164062 -0.425781 3.3125 0 C 2.820312 0 2.265625 0 1.640625 0 C 1.023438 0 0.476562 0 0 0 C 0.15625 -0.425781 0.257812 -0.878906 0.3125 -1.359375 C 0.363281 -1.835938 0.390625 -2.351562 0.390625 -2.90625 C 0.390625 -3.28125 0.390625 -3.820312 0.390625 -4.53125 C 0.390625 -5.238281 0.390625 -6.03125 0.390625 -6.90625 C 0.390625 -7.78125 0.390625 -8.65625 0.390625 -9.53125 C 0.390625 -10.40625 0.390625 -11.195312 0.390625 -11.90625 C 0.390625 -12.613281 0.390625 -13.148438 0.390625 -13.515625 C 0.390625 -14.066406 0.363281 -14.585938 0.3125 -15.078125 C 0.257812 -15.566406 0.15625 -16.015625 0 -16.421875 Z M 2.90625 -6 C 3.28125 -6.625 3.738281 -7.160156 4.28125 -7.609375 C 4.832031 -8.066406 5.398438 -8.484375 5.984375 -8.859375 C 6.578125 -9.234375 7.125 -9.613281 7.625 -10 C 8.132812 -10.382812 8.546875 -10.820312 8.859375 -11.3125 C 9.171875 -11.800781 9.3125 -12.382812 9.28125 -13.0625 C 9.269531 -13.726562 9.023438 -14.25 8.546875 -14.625 C 8.066406 -15.007812 7.445312 -15.273438 6.6875 -15.421875 C 5.925781 -15.578125 5.109375 -15.65625 4.234375 -15.65625 L 2.90625 -15.65625 Z M 2.90625 -6 "/></g></g><g style="fill:#ffffff;fill-opacity:1;"><g transform="translate(185.395497, 77.832813)"><path style="stroke:none" d="M 8.953125 -16.421875 L 13.84375 -2.890625 C 14.019531 -2.410156 14.234375 -1.910156 14.484375 -1.390625 C 14.742188 -0.867188 14.988281 -0.40625 15.21875 0 L 11.890625 0 C 11.890625 -0.375 11.8125 -0.820312 11.65625 -1.34375 C 11.507812 -1.875 11.347656 -2.375 11.171875 -2.84375 C 10.984375 -3.40625 10.765625 -3.894531 10.515625 -4.3125 C 10.265625 -4.738281 9.914062 -5.085938 9.46875 -5.359375 C 8.957031 -5.679688 8.378906 -5.894531 7.734375 -6 C 7.085938 -6.113281 6.441406 -6.125 5.796875 -6.03125 C 5.160156 -5.9375 4.585938 -5.738281 4.078125 -5.4375 C 3.566406 -5.144531 3.1875 -4.78125 2.9375 -4.34375 C 2.6875 -3.914062 2.457031 -3.429688 2.25 -2.890625 C 1.976562 -2.117188 2.1875 -1.15625 2.875 0 L 0 0 C 0.25 -0.40625 0.492188 -0.867188 0.734375 -1.390625 C 0.972656 -1.910156 1.179688 -2.410156 1.359375 -2.890625 L 6.25 -16.421875 Z M 10.03125 -6.03125 L 6.703125 -15.15625 L 3.390625 -6.03125 C 4.035156 -6.4375 4.75 -6.707031 5.53125 -6.84375 C 6.3125 -6.976562 7.09375 -6.976562 7.875 -6.84375 C 8.664062 -6.707031 9.382812 -6.4375 10.03125 -6.03125 Z M 10.03125 -6.03125 "/></g></g><g style="fill:#ffffff;fill-opacity:1;"><g transform="translate(201.995732, 77.832813)"><path style="stroke:none" d="M 6.484375 -16.421875 C 7.710938 -16.421875 8.71875 -16.265625 9.5 -15.953125 C 10.289062 -15.640625 10.875 -15.21875 11.25 -14.6875 C 11.632812 -14.164062 11.828125 -13.585938 11.828125 -12.953125 C 11.828125 -12.203125 11.664062 -11.5625 11.34375 -11.03125 C 11.019531 -10.5 10.59375 -10.039062 10.0625 -9.65625 C 9.53125 -9.28125 8.945312 -8.9375 8.3125 -8.625 C 7.675781 -8.320312 7.039062 -8.015625 6.40625 -7.703125 C 5.78125 -7.390625 5.203125 -7.039062 4.671875 -6.65625 C 4.140625 -6.28125 3.710938 -5.820312 3.390625 -5.28125 C 3.066406 -4.75 2.90625 -4.113281 2.90625 -3.375 L 2.90625 -2.90625 C 2.90625 -2.351562 2.9375 -1.835938 3 -1.359375 C 3.0625 -0.878906 3.164062 -0.425781 3.3125 0 C 2.820312 0 2.265625 0 1.640625 0 C 1.023438 0 0.476562 0 0 0 C 0.15625 -0.425781 0.257812 -0.878906 0.3125 -1.359375 C 0.363281 -1.835938 0.390625 -2.351562 0.390625 -2.90625 C 0.390625 -3.28125 0.390625 -3.820312 0.390625 -4.53125 C 0.390625 -5.238281 0.390625 -6.03125 0.390625 -6.90625 C 0.390625 -7.78125 0.390625 -8.65625 0.390625 -9.53125 C 0.390625 -10.40625 0.390625 -11.195312 0.390625 -11.90625 C 0.390625 -12.613281 0.390625 -13.148438 0.390625 -13.515625 C 0.390625 -14.066406 0.363281 -14.585938 0.3125 -15.078125 C 0.257812 -15.566406 0.15625 -16.015625 0 -16.421875 Z M 2.90625 -6 C 3.28125 -6.625 3.738281 -7.160156 4.28125 -7.609375 C 4.832031 -8.066406 5.398438 -8.484375 5.984375 -8.859375 C 6.578125 -9.234375 7.125 -9.613281 7.625 -10 C 8.132812 -10.382812 8.546875 -10.820312 8.859375 -11.3125 C 9.171875 -11.800781 9.3125 -12.382812 9.28125 -13.0625 C 9.269531 -13.726562 9.023438 -14.25 8.546875 -14.625 C 8.066406 -15.007812 7.445312 -15.273438 6.6875 -15.421875 C 5.925781 -15.578125 5.109375 -15.65625 4.234375 -15.65625 L 2.90625 -15.65625 Z M 2.90625 -6 "/></g></g><g style="fill:#ffffff;fill-opacity:1;"><g transform="translate(215.201428, 77.832813)"><path style="stroke:none" d="M 0.390625 -13.515625 C 0.390625 -14.066406 0.363281 -14.585938 0.3125 -15.078125 C 0.257812 -15.566406 0.15625 -16.015625 0 -16.421875 L 3.3125 -16.421875 C 3.164062 -16.015625 3.0625 -15.566406 3 -15.078125 C 2.9375 -14.585938 2.90625 -14.066406 2.90625 -13.515625 C 2.90625 -13.148438 2.90625 -12.613281 2.90625 -11.90625 C 2.90625 -11.195312 2.90625 -10.40625 2.90625 -9.53125 C 2.90625 -8.65625 2.90625 -7.78125 2.90625 -6.90625 C 2.90625 -6.03125 2.90625 -5.238281 2.90625 -4.53125 C 2.90625 -3.820312 2.90625 -3.28125 2.90625 -2.90625 C 2.90625 -2.351562 2.9375 -1.835938 3 -1.359375 C 3.0625 -0.878906 3.164062 -0.425781 3.3125 0 L 0 0 C 0.15625 -0.425781 0.257812 -0.878906 0.3125 -1.359375 C 0.363281 -1.835938 0.390625 -2.351562 0.390625 -2.90625 Z M 0.390625 -13.515625 "/></g></g><g style="fill:#ffffff;fill-opacity:1;"><g transform="translate(219.953619, 77.832813)"><path style="stroke:none" d="M 8.953125 -16.421875 L 13.84375 -2.890625 C 14.019531 -2.410156 14.234375 -1.910156 14.484375 -1.390625 C 14.742188 -0.867188 14.988281 -0.40625 15.21875 0 L 11.890625 0 C 11.890625 -0.375 11.8125 -0.820312 11.65625 -1.34375 C 11.507812 -1.875 11.347656 -2.375 11.171875 -2.84375 C 10.984375 -3.40625 10.765625 -3.894531 10.515625 -4.3125 C 10.265625 -4.738281 9.914062 -5.085938 9.46875 -5.359375 C 8.957031 -5.679688 8.378906 -5.894531 7.734375 -6 C 7.085938 -6.113281 6.441406 -6.125 5.796875 -6.03125 C 5.160156 -5.9375 4.585938 -5.738281 4.078125 -5.4375 C 3.566406 -5.144531 3.1875 -4.78125 2.9375 -4.34375 C 2.6875 -3.914062 2.457031 -3.429688 2.25 -2.890625 C 1.976562 -2.117188 2.1875 -1.15625 2.875 0 L 0 0 C 0.25 -0.40625 0.492188 -0.867188 0.734375 -1.390625 C 0.972656 -1.910156 1.179688 -2.410156 1.359375 -2.890625 L 6.25 -16.421875 Z M 10.03125 -6.03125 L 6.703125 -15.15625 L 3.390625 -6.03125 C 4.035156 -6.4375 4.75 -6.707031 5.53125 -6.84375 C 6.3125 -6.976562 7.09375 -6.976562 7.875 -6.84375 C 8.664062 -6.707031 9.382812 -6.4375 10.03125 -6.03125 Z M 10.03125 -6.03125 "/></g></g><g style="fill:#ffffff;fill-opacity:1;"><g transform="translate(236.553854, 77.832813)"><path style="stroke:none" d=""/></g></g><g style="fill:#ffffff;fill-opacity:1;"><g transform="translate(243.671271, 77.832813)"><path style="stroke:none" d="M 2.90625 -2.90625 C 2.90625 -2.351562 2.9375 -1.835938 3 -1.359375 C 3.0625 -0.878906 3.164062 -0.425781 3.3125 0 L 0 0 C 0.15625 -0.425781 0.257812 -0.878906 0.3125 -1.359375 C 0.363281 -1.835938 0.390625 -2.351562 0.390625 -2.90625 C 0.390625 -3.28125 0.390625 -3.820312 0.390625 -4.53125 C 0.390625 -5.238281 0.390625 -6.03125 0.390625 -6.90625 C 0.390625 -7.78125 0.390625 -8.65625 0.390625 -9.53125 C 0.390625 -10.40625 0.390625 -11.195312 0.390625 -11.90625 C 0.390625 -12.613281 0.390625 -13.148438 0.390625 -13.515625 C 0.390625 -14.066406 0.363281 -14.585938 0.3125 -15.078125 C 0.257812 -15.566406 0.15625 -16.015625 0 -16.421875 L 3.3125 -16.421875 C 3.164062 -16.015625 3.0625 -15.566406 3 -15.078125 C 2.9375 -14.585938 2.90625 -14.066406 2.90625 -13.515625 L 2.90625 -7.953125 L 10.234375 -7.953125 L 10.234375 -13.515625 C 10.234375 -14.066406 10.207031 -14.585938 10.15625 -15.078125 C 10.101562 -15.566406 9.992188 -16.015625 9.828125 -16.421875 L 13.140625 -16.421875 C 12.992188 -16.015625 12.890625 -15.566406 12.828125 -15.078125 C 12.773438 -14.585938 12.75 -14.066406 12.75 -13.515625 C 12.75 -13.148438 12.75 -12.613281 12.75 -11.90625 C 12.75 -11.195312 12.75 -10.40625 12.75 -9.53125 C 12.75 -8.65625 12.75 -7.78125 12.75 -6.90625 C 12.75 -6.03125 12.75 -5.238281 12.75 -4.53125 C 12.75 -3.820312 12.75 -3.28125 12.75 -2.90625 C 12.75 -2.351562 12.773438 -1.835938 12.828125 -1.359375 C 12.890625 -0.878906 12.992188 -0.425781 13.140625 0 L 9.828125 0 C 9.992188 -0.425781 10.101562 -0.878906 10.15625 -1.359375 C 10.207031 -1.835938 10.234375 -2.351562 10.234375 -2.90625 L 10.234375 -7.09375 L 2.90625 -7.09375 Z M 2.90625 -2.90625 "/></g></g><g style="fill:#ffffff;fill-opacity:1;"><g transform="translate(258.190981, 77.832813)"><path style="stroke:none" d="M 8.515625 -16.734375 C 9.703125 -16.734375 10.8125 -16.515625 11.84375 -16.078125 C 12.875 -15.640625 13.78125 -15.03125 14.5625 -14.25 C 15.34375 -13.46875 15.953125 -12.5625 16.390625 -11.53125 C 16.828125 -10.5 17.046875 -9.394531 17.046875 -8.21875 C 17.046875 -7.03125 16.828125 -5.921875 16.390625 -4.890625 C 15.953125 -3.867188 15.34375 -2.960938 14.5625 -2.171875 C 13.78125 -1.390625 12.875 -0.78125 11.84375 -0.34375 C 10.8125 0.09375 9.703125 0.3125 8.515625 0.3125 C 7.335938 0.3125 6.234375 0.09375 5.203125 -0.34375 C 4.171875 -0.78125 3.265625 -1.390625 2.484375 -2.171875 C 1.703125 -2.960938 1.09375 -3.867188 0.65625 -4.890625 C 0.21875 -5.921875 0 -7.03125 0 -8.21875 C 0 -9.394531 0.21875 -10.5 0.65625 -11.53125 C 1.09375 -12.5625 1.703125 -13.46875 2.484375 -14.25 C 3.265625 -15.03125 4.171875 -15.640625 5.203125 -16.078125 C 6.234375 -16.515625 7.335938 -16.734375 8.515625 -16.734375 Z M 12.203125 -1.53125 C 12.921875 -1.925781 13.492188 -2.46875 13.921875 -3.15625 C 14.347656 -3.84375 14.628906 -4.625 14.765625 -5.5 C 14.910156 -6.375 14.894531 -7.289062 14.71875 -8.25 C 14.539062 -9.207031 14.195312 -10.144531 13.6875 -11.0625 C 13.175781 -11.976562 12.5625 -12.765625 11.84375 -13.421875 C 11.132812 -14.085938 10.375 -14.597656 9.5625 -14.953125 C 8.75 -15.304688 7.9375 -15.488281 7.125 -15.5 C 6.320312 -15.507812 5.5625 -15.316406 4.84375 -14.921875 C 4.125 -14.523438 3.546875 -13.976562 3.109375 -13.28125 C 2.679688 -12.59375 2.398438 -11.8125 2.265625 -10.9375 C 2.128906 -10.070312 2.144531 -9.160156 2.3125 -8.203125 C 2.488281 -7.242188 2.835938 -6.304688 3.359375 -5.390625 C 3.867188 -4.472656 4.476562 -3.679688 5.1875 -3.015625 C 5.894531 -2.347656 6.648438 -1.832031 7.453125 -1.46875 C 8.265625 -1.113281 9.078125 -0.9375 9.890625 -0.9375 C 10.710938 -0.9375 11.484375 -1.132812 12.203125 -1.53125 Z M 12.203125 -1.53125 "/></g></g><g style="fill:#ffffff;fill-opacity:1;"><g transform="translate(276.652743, 77.832813)"><path style="stroke:none" d="M 2.90625 -13.515625 L 2.90625 -0.859375 L 7.953125 -0.859375 C 8.609375 -0.859375 9.132812 -0.960938 9.53125 -1.171875 C 9.925781 -1.378906 10.222656 -1.613281 10.421875 -1.875 C 10.628906 -2.144531 10.765625 -2.351562 10.828125 -2.5 L 11.015625 -2.5 L 10.859375 0 L 0 0 C 0.15625 -0.425781 0.257812 -0.878906 0.3125 -1.359375 C 0.363281 -1.835938 0.390625 -2.351562 0.390625 -2.90625 C 0.390625 -3.28125 0.390625 -3.820312 0.390625 -4.53125 C 0.390625 -5.238281 0.390625 -6.03125 0.390625 -6.90625 C 0.390625 -7.78125 0.390625 -8.65625 0.390625 -9.53125 C 0.390625 -10.40625 0.390625 -11.195312 0.390625 -11.90625 C 0.390625 -12.613281 0.390625 -13.148438 0.390625 -13.515625 C 0.390625 -14.066406 0.363281 -14.585938 0.3125 -15.078125 C 0.257812 -15.566406 0.15625 -16.015625 0 -16.421875 L 3.3125 -16.421875 C 3.164062 -16.015625 3.0625 -15.566406 3 -15.078125 C 2.9375 -14.585938 2.90625 -14.066406 2.90625 -13.515625 Z M 2.90625 -13.515625 "/></g></g><g style="fill:#ffffff;fill-opacity:1;"><g transform="translate(289.091928, 77.832813)"><path style="stroke:none" d="M 0.390625 -13.515625 C 0.390625 -14.066406 0.363281 -14.585938 0.3125 -15.078125 C 0.257812 -15.566406 0.15625 -16.015625 0 -16.421875 L 3.3125 -16.421875 C 3.164062 -16.015625 3.0625 -15.566406 3 -15.078125 C 2.9375 -14.585938 2.90625 -14.066406 2.90625 -13.515625 C 2.90625 -13.148438 2.90625 -12.613281 2.90625 -11.90625 C 2.90625 -11.195312 2.90625 -10.40625 2.90625 -9.53125 C 2.90625 -8.65625 2.90625 -7.78125 2.90625 -6.90625 C 2.90625 -6.03125 2.90625 -5.238281 2.90625 -4.53125 C 2.90625 -3.820312 2.90625 -3.28125 2.90625 -2.90625 C 2.90625 -2.351562 2.9375 -1.835938 3 -1.359375 C 3.0625 -0.878906 3.164062 -0.425781 3.3125 0 L 0 0 C 0.15625 -0.425781 0.257812 -0.878906 0.3125 -1.359375 C 0.363281 -1.835938 0.390625 -2.351562 0.390625 -2.90625 Z M 0.390625 -13.515625 "/></g></g><g style="fill:#ffffff;fill-opacity:1;"><g transform="translate(293.844118, 77.832813)"><path style="stroke:none" d="M 11.59375 -11.9375 C 11.5625 -12.84375 11.320312 -13.582031 10.875 -14.15625 C 10.425781 -14.738281 9.84375 -15.164062 9.125 -15.4375 C 8.414062 -15.71875 7.613281 -15.859375 6.71875 -15.859375 C 6.375 -15.867188 5.984375 -15.816406 5.546875 -15.703125 C 5.109375 -15.597656 4.695312 -15.421875 4.3125 -15.171875 C 3.9375 -14.929688 3.65625 -14.597656 3.46875 -14.171875 C 3.269531 -13.671875 3.253906 -13.140625 3.421875 -12.578125 C 3.597656 -12.015625 4.003906 -11.585938 4.640625 -11.296875 C 5.273438 -11.035156 5.96875 -10.785156 6.71875 -10.546875 C 7.476562 -10.304688 8.234375 -10.046875 8.984375 -9.765625 C 9.742188 -9.492188 10.429688 -9.144531 11.046875 -8.71875 C 11.742188 -8.238281 12.265625 -7.671875 12.609375 -7.015625 C 12.953125 -6.367188 13.117188 -5.691406 13.109375 -4.984375 C 13.097656 -4.273438 12.925781 -3.585938 12.59375 -2.921875 C 12.257812 -2.253906 11.765625 -1.664062 11.109375 -1.15625 C 10.453125 -0.664062 9.710938 -0.296875 8.890625 -0.046875 C 8.078125 0.191406 7.257812 0.3125 6.4375 0.3125 C 5.875 0.3125 5.242188 0.226562 4.546875 0.0625 C 3.847656 -0.09375 3.171875 -0.320312 2.515625 -0.625 C 1.859375 -0.9375 1.28125 -1.304688 0.78125 -1.734375 C 0.695312 -1.804688 0.582031 -1.878906 0.4375 -1.953125 C 0.300781 -2.035156 0.15625 -2.054688 0 -2.015625 L 0.4375 -7.1875 L 0.640625 -7.1875 C 0.640625 -6.363281 0.6875 -5.628906 0.78125 -4.984375 C 0.882812 -4.335938 1.101562 -3.738281 1.4375 -3.1875 C 1.78125 -2.632812 2.304688 -2.113281 3.015625 -1.625 C 3.546875 -1.257812 4.101562 -0.992188 4.6875 -0.828125 C 5.269531 -0.671875 5.882812 -0.59375 6.53125 -0.59375 C 7.34375 -0.59375 8.046875 -0.757812 8.640625 -1.09375 C 9.234375 -1.425781 9.691406 -1.875 10.015625 -2.4375 C 10.335938 -3 10.5 -3.601562 10.5 -4.25 C 10.5 -4.84375 10.347656 -5.34375 10.046875 -5.75 C 9.753906 -6.164062 9.382812 -6.519531 8.9375 -6.8125 C 8.488281 -7.101562 8.019531 -7.34375 7.53125 -7.53125 C 6.726562 -7.851562 5.90625 -8.128906 5.0625 -8.359375 C 4.226562 -8.597656 3.4375 -8.921875 2.6875 -9.328125 C 2.125 -9.648438 1.671875 -10.066406 1.328125 -10.578125 C 0.992188 -11.085938 0.785156 -11.632812 0.703125 -12.21875 C 0.628906 -12.800781 0.695312 -13.375 0.90625 -13.9375 C 1.125 -14.5 1.492188 -15 2.015625 -15.4375 C 2.566406 -15.90625 3.222656 -16.238281 3.984375 -16.4375 C 4.753906 -16.632812 5.515625 -16.734375 6.265625 -16.734375 C 8.179688 -16.734375 9.78125 -16.265625 11.0625 -15.328125 C 11.195312 -15.242188 11.320312 -15.164062 11.4375 -15.09375 C 11.550781 -15.03125 11.664062 -15.03125 11.78125 -15.09375 L 11.78125 -11.9375 Z M 11.59375 -11.9375 "/></g></g><g style="fill:#ffffff;fill-opacity:1;"><g transform="translate(308.341927, 77.832813)"><path style="stroke:none" d="M 7.90625 -2.90625 C 7.90625 -2.351562 7.929688 -1.835938 7.984375 -1.359375 C 8.035156 -0.878906 8.132812 -0.425781 8.28125 0 L 4.96875 0 C 5.132812 -0.425781 5.238281 -0.878906 5.28125 -1.359375 C 5.332031 -1.835938 5.359375 -2.351562 5.359375 -2.90625 C 5.359375 -5.007812 5.359375 -7.117188 5.359375 -9.234375 C 5.359375 -11.347656 5.359375 -13.460938 5.359375 -15.578125 L 3.0625 -15.578125 C 2.425781 -15.578125 1.90625 -15.46875 1.5 -15.25 C 1.09375 -15.039062 0.785156 -14.804688 0.578125 -14.546875 C 0.378906 -14.296875 0.253906 -14.09375 0.203125 -13.9375 L 0 -13.9375 L 0.15625 -16.421875 L 13.125 -16.421875 L 13.28125 -13.9375 L 13.078125 -13.9375 C 13.015625 -14.09375 12.878906 -14.296875 12.671875 -14.546875 C 12.472656 -14.804688 12.171875 -15.039062 11.765625 -15.25 C 11.367188 -15.46875 10.84375 -15.578125 10.1875 -15.578125 L 7.90625 -15.578125 C 7.90625 -13.460938 7.90625 -11.347656 7.90625 -9.234375 C 7.90625 -7.117188 7.90625 -5.007812 7.90625 -2.90625 Z M 7.90625 -2.90625 "/></g></g><g style="fill:#ffffff;fill-opacity:1;"><g transform="translate(323.014945, 77.832813)"><path style="stroke:none" d="M 0.390625 -13.515625 C 0.390625 -14.066406 0.363281 -14.585938 0.3125 -15.078125 C 0.257812 -15.566406 0.15625 -16.015625 0 -16.421875 L 3.3125 -16.421875 C 3.164062 -16.015625 3.0625 -15.566406 3 -15.078125 C 2.9375 -14.585938 2.90625 -14.066406 2.90625 -13.515625 C 2.90625 -13.148438 2.90625 -12.613281 2.90625 -11.90625 C 2.90625 -11.195312 2.90625 -10.40625 2.90625 -9.53125 C 2.90625 -8.65625 2.90625 -7.78125 2.90625 -6.90625 C 2.90625 -6.03125 2.90625 -5.238281 2.90625 -4.53125 C 2.90625 -3.820312 2.90625 -3.28125 2.90625 -2.90625 C 2.90625 -2.351562 2.9375 -1.835938 3 -1.359375 C 3.0625 -0.878906 3.164062 -0.425781 3.3125 0 L 0 0 C 0.15625 -0.425781 0.257812 -0.878906 0.3125 -1.359375 C 0.363281 -1.835938 0.390625 -2.351562 0.390625 -2.90625 Z M 1.53125 -17.546875 L 3.09375 -20 L 4.890625 -20 L 1.734375 -17.546875 Z M 1.53125 -17.546875 "/></g></g><g style="fill:#ffffff;fill-opacity:1;"><g transform="translate(327.767136, 77.832813)"><path style="stroke:none" d="M 8.546875 -16.734375 C 9.578125 -16.734375 10.535156 -16.601562 11.421875 -16.34375 C 12.304688 -16.09375 13.191406 -15.671875 14.078125 -15.078125 C 14.347656 -14.878906 14.675781 -14.660156 15.0625 -14.421875 C 15.457031 -14.179688 15.816406 -14.066406 16.140625 -14.078125 L 16.140625 -10.3125 L 15.859375 -10.3125 C 15.597656 -11.25 15.164062 -12.117188 14.5625 -12.921875 C 13.96875 -13.722656 13.242188 -14.375 12.390625 -14.875 C 11.535156 -15.382812 10.566406 -15.671875 9.484375 -15.734375 C 8.597656 -15.773438 7.742188 -15.625 6.921875 -15.28125 C 6.109375 -14.9375 5.378906 -14.425781 4.734375 -13.75 C 4.085938 -13.082031 3.570312 -12.28125 3.1875 -11.34375 C 2.8125 -10.414062 2.625 -9.378906 2.625 -8.234375 C 2.625 -7.171875 2.800781 -6.1875 3.15625 -5.28125 C 3.507812 -4.375 3.988281 -3.585938 4.59375 -2.921875 C 5.207031 -2.253906 5.910156 -1.726562 6.703125 -1.34375 C 7.492188 -0.96875 8.316406 -0.769531 9.171875 -0.75 C 10.316406 -0.71875 11.375 -0.929688 12.34375 -1.390625 C 13.3125 -1.847656 14.15625 -2.484375 14.875 -3.296875 C 15.601562 -4.117188 16.160156 -5.050781 16.546875 -6.09375 L 16.78125 -6.09375 C 16.457031 -4.851562 15.890625 -3.75 15.078125 -2.78125 C 14.265625 -1.820312 13.289062 -1.066406 12.15625 -0.515625 C 11.03125 0.0351562 9.828125 0.3125 8.546875 0.3125 C 7.359375 0.3125 6.242188 0.09375 5.203125 -0.34375 C 4.171875 -0.78125 3.265625 -1.390625 2.484375 -2.171875 C 1.703125 -2.960938 1.09375 -3.875 0.65625 -4.90625 C 0.21875 -5.945312 0 -7.054688 0 -8.234375 C 0 -9.421875 0.21875 -10.523438 0.65625 -11.546875 C 1.09375 -12.566406 1.703125 -13.46875 2.484375 -14.25 C 3.265625 -15.03125 4.171875 -15.640625 5.203125 -16.078125 C 6.242188 -16.515625 7.359375 -16.734375 8.546875 -16.734375 Z M 8.546875 -16.734375 "/></g></g><g style="fill:#ffffff;fill-opacity:1;"><g transform="translate(345.922296, 77.832813)"><path style="stroke:none" d="M 8.953125 -16.421875 L 13.84375 -2.890625 C 14.019531 -2.410156 14.234375 -1.910156 14.484375 -1.390625 C 14.742188 -0.867188 14.988281 -0.40625 15.21875 0 L 11.890625 0 C 11.890625 -0.375 11.8125 -0.820312 11.65625 -1.34375 C 11.507812 -1.875 11.347656 -2.375 11.171875 -2.84375 C 10.984375 -3.40625 10.765625 -3.894531 10.515625 -4.3125 C 10.265625 -4.738281 9.914062 -5.085938 9.46875 -5.359375 C 8.957031 -5.679688 8.378906 -5.894531 7.734375 -6 C 7.085938 -6.113281 6.441406 -6.125 5.796875 -6.03125 C 5.160156 -5.9375 4.585938 -5.738281 4.078125 -5.4375 C 3.566406 -5.144531 3.1875 -4.78125 2.9375 -4.34375 C 2.6875 -3.914062 2.457031 -3.429688 2.25 -2.890625 C 1.976562 -2.117188 2.1875 -1.15625 2.875 0 L 0 0 C 0.25 -0.40625 0.492188 -0.867188 0.734375 -1.390625 C 0.972656 -1.910156 1.179688 -2.410156 1.359375 -2.890625 L 6.25 -16.421875 Z M 10.03125 -6.03125 L 6.703125 -15.15625 L 3.390625 -6.03125 C 4.035156 -6.4375 4.75 -6.707031 5.53125 -6.84375 C 6.3125 -6.976562 7.09375 -6.976562 7.875 -6.84375 C 8.664062 -6.707031 9.382812 -6.4375 10.03125 -6.03125 Z M 10.03125 -6.03125 "/></g></g><g style="fill:#ffffff;fill-opacity:1;"><g transform="translate(152.060713, 96.44799)"><path style="stroke:none" d="M 3.703125 0.140625 C 3.066406 0.140625 2.492188 0.0351562 1.984375 -0.171875 C 1.472656 -0.378906 1.0625 -0.691406 0.75 -1.109375 C 0.4375 -1.535156 0.265625 -2.0625 0.234375 -2.6875 L 1.03125 -2.6875 C 1.070312 -1.976562 1.332031 -1.441406 1.8125 -1.078125 C 2.300781 -0.710938 2.929688 -0.53125 3.703125 -0.53125 C 4.410156 -0.53125 4.9375 -0.695312 5.28125 -1.03125 C 5.632812 -1.363281 5.816406 -1.753906 5.828125 -2.203125 C 5.828125 -2.617188 5.722656 -2.941406 5.515625 -3.171875 C 5.304688 -3.398438 5 -3.582031 4.59375 -3.71875 C 4.195312 -3.851562 3.707031 -3.972656 3.125 -4.078125 C 2.601562 -4.179688 2.144531 -4.316406 1.75 -4.484375 C 1.363281 -4.660156 1.0625 -4.894531 0.84375 -5.1875 C 0.632812 -5.488281 0.53125 -5.875 0.53125 -6.34375 C 0.53125 -6.820312 0.648438 -7.21875 0.890625 -7.53125 C 1.140625 -7.851562 1.476562 -8.085938 1.90625 -8.234375 C 2.332031 -8.390625 2.804688 -8.46875 3.328125 -8.46875 C 3.910156 -8.46875 4.421875 -8.375 4.859375 -8.1875 C 5.304688 -8 5.660156 -7.722656 5.921875 -7.359375 C 6.179688 -6.992188 6.328125 -6.550781 6.359375 -6.03125 L 5.5625 -6.03125 C 5.507812 -6.570312 5.296875 -7.003906 4.921875 -7.328125 C 4.554688 -7.648438 4.023438 -7.8125 3.328125 -7.8125 C 2.742188 -7.8125 2.265625 -7.679688 1.890625 -7.421875 C 1.523438 -7.171875 1.34375 -6.820312 1.34375 -6.375 C 1.34375 -6.007812 1.4375 -5.722656 1.625 -5.515625 C 1.8125 -5.304688 2.078125 -5.144531 2.421875 -5.03125 C 2.765625 -4.914062 3.179688 -4.8125 3.671875 -4.71875 C 4.285156 -4.601562 4.8125 -4.453125 5.25 -4.265625 C 5.6875 -4.078125 6.023438 -3.820312 6.265625 -3.5 C 6.503906 -3.1875 6.625 -2.769531 6.625 -2.25 C 6.625 -1.800781 6.507812 -1.394531 6.28125 -1.03125 C 6.050781 -0.664062 5.71875 -0.378906 5.28125 -0.171875 C 4.851562 0.0351562 4.328125 0.140625 3.703125 0.140625 Z M 3.703125 0.140625 "/></g></g><g style="fill:#ffffff;fill-opacity:1;"><g transform="translate(166.429706, 96.44799)"><path style="stroke:none" d="M 0.71875 0 L 0.71875 -8.328125 L 6.40625 -8.328125 L 6.40625 -7.65625 L 1.515625 -7.65625 L 1.515625 -4.734375 L 5.9375 -4.734375 L 5.9375 -4.0625 L 1.515625 -4.0625 L 1.515625 -0.671875 L 6.5 -0.671875 L 6.5 0 Z M 0.71875 0 "/></g></g><g style="fill:#ffffff;fill-opacity:1;"><g transform="translate(180.717071, 96.44799)"><path style="stroke:none" d="M 0.71875 0 L 0.71875 -8.328125 L 4.15625 -8.328125 C 4.9375 -8.328125 5.539062 -8.148438 5.96875 -7.796875 C 6.40625 -7.441406 6.625 -6.925781 6.625 -6.25 C 6.625 -5.769531 6.5 -5.378906 6.25 -5.078125 C 6.007812 -4.773438 5.679688 -4.554688 5.265625 -4.421875 L 5.265625 -4.390625 C 5.773438 -4.296875 6.1875 -4.070312 6.5 -3.71875 C 6.820312 -3.375 6.984375 -2.914062 6.984375 -2.34375 C 6.984375 -1.789062 6.867188 -1.34375 6.640625 -1 C 6.410156 -0.65625 6.09375 -0.398438 5.6875 -0.234375 C 5.289062 -0.078125 4.832031 0 4.3125 0 Z M 1.515625 -4.640625 L 4.21875 -4.640625 C 4.695312 -4.640625 5.082031 -4.769531 5.375 -5.03125 C 5.664062 -5.300781 5.8125 -5.664062 5.8125 -6.125 C 5.8125 -6.613281 5.65625 -6.988281 5.34375 -7.25 C 5.039062 -7.519531 4.601562 -7.65625 4.03125 -7.65625 L 1.515625 -7.65625 Z M 1.515625 -0.671875 L 4.15625 -0.671875 C 4.75 -0.671875 5.234375 -0.800781 5.609375 -1.0625 C 5.984375 -1.320312 6.171875 -1.769531 6.171875 -2.40625 C 6.171875 -2.9375 6 -3.347656 5.65625 -3.640625 C 5.3125 -3.929688 4.847656 -4.078125 4.265625 -4.078125 L 1.515625 -4.078125 Z M 1.515625 -0.671875 "/></g></g><g style="fill:#ffffff;fill-opacity:1;"><g transform="translate(195.354274, 96.44799)"><path style="stroke:none" d="M 0.0625 0 L 3.21875 -8.328125 L 4.078125 -8.328125 L 7.234375 0 L 6.4375 0 L 5.484375 -2.5625 L 1.828125 -2.5625 L 0.875 0 Z M 2.046875 -3.203125 L 5.265625 -3.203125 L 3.65625 -7.53125 L 3.640625 -7.53125 Z M 2.046875 -3.203125 "/></g></g><g style="fill:#ffffff;fill-opacity:1;"><g transform="translate(210.026463, 96.44799)"><path style="stroke:none" d="M 3.703125 0.140625 C 3.066406 0.140625 2.492188 0.0351562 1.984375 -0.171875 C 1.472656 -0.378906 1.0625 -0.691406 0.75 -1.109375 C 0.4375 -1.535156 0.265625 -2.0625 0.234375 -2.6875 L 1.03125 -2.6875 C 1.070312 -1.976562 1.332031 -1.441406 1.8125 -1.078125 C 2.300781 -0.710938 2.929688 -0.53125 3.703125 -0.53125 C 4.410156 -0.53125 4.9375 -0.695312 5.28125 -1.03125 C 5.632812 -1.363281 5.816406 -1.753906 5.828125 -2.203125 C 5.828125 -2.617188 5.722656 -2.941406 5.515625 -3.171875 C 5.304688 -3.398438 5 -3.582031 4.59375 -3.71875 C 4.195312 -3.851562 3.707031 -3.972656 3.125 -4.078125 C 2.601562 -4.179688 2.144531 -4.316406 1.75 -4.484375 C 1.363281 -4.660156 1.0625 -4.894531 0.84375 -5.1875 C 0.632812 -5.488281 0.53125 -5.875 0.53125 -6.34375 C 0.53125 -6.820312 0.648438 -7.21875 0.890625 -7.53125 C 1.140625 -7.851562 1.476562 -8.085938 1.90625 -8.234375 C 2.332031 -8.390625 2.804688 -8.46875 3.328125 -8.46875 C 3.910156 -8.46875 4.421875 -8.375 4.859375 -8.1875 C 5.304688 -8 5.660156 -7.722656 5.921875 -7.359375 C 6.179688 -6.992188 6.328125 -6.550781 6.359375 -6.03125 L 5.5625 -6.03125 C 5.507812 -6.570312 5.296875 -7.003906 4.921875 -7.328125 C 4.554688 -7.648438 4.023438 -7.8125 3.328125 -7.8125 C 2.742188 -7.8125 2.265625 -7.679688 1.890625 -7.421875 C 1.523438 -7.171875 1.34375 -6.820312 1.34375 -6.375 C 1.34375 -6.007812 1.4375 -5.722656 1.625 -5.515625 C 1.8125 -5.304688 2.078125 -5.144531 2.421875 -5.03125 C 2.765625 -4.914062 3.179688 -4.8125 3.671875 -4.71875 C 4.285156 -4.601562 4.8125 -4.453125 5.25 -4.265625 C 5.6875 -4.078125 6.023438 -3.820312 6.265625 -3.5 C 6.503906 -3.1875 6.625 -2.769531 6.625 -2.25 C 6.625 -1.800781 6.507812 -1.394531 6.28125 -1.03125 C 6.050781 -0.664062 5.71875 -0.378906 5.28125 -0.171875 C 4.851562 0.0351562 4.328125 0.140625 3.703125 0.140625 Z M 3.703125 0.140625 "/></g></g><g style="fill:#ffffff;fill-opacity:1;"><g transform="translate(224.395455, 96.44799)"><path style="stroke:none" d="M 3.0625 0 L 3.0625 -7.65625 L 0.21875 -7.65625 L 0.21875 -8.328125 L 6.703125 -8.328125 L 6.703125 -7.65625 L 3.875 -7.65625 L 3.875 0 Z M 3.0625 0 "/></g></g><g style="fill:#ffffff;fill-opacity:1;"><g transform="translate(238.682821, 96.44799)"><path style="stroke:none" d="M 0.75 0 L 0.75 -8.328125 L 1.546875 -8.328125 L 1.546875 0 Z M 0.75 0 "/></g></g><g style="fill:#ffffff;fill-opacity:1;"><g transform="translate(248.328971, 96.44799)"><path style="stroke:none" d="M 3.359375 -9.25 L 4.09375 -10.75 L 4.984375 -10.75 L 3.96875 -9.25 Z M 0.0625 0 L 3.21875 -8.328125 L 4.078125 -8.328125 L 7.234375 0 L 6.4375 0 L 5.484375 -2.5625 L 1.828125 -2.5625 L 0.875 0 Z M 2.046875 -3.203125 L 5.265625 -3.203125 L 3.65625 -7.53125 L 3.640625 -7.53125 Z M 2.046875 -3.203125 "/></g></g><g style="fill:#ffffff;fill-opacity:1;"><g transform="translate(263.00116, 96.44799)"><path style="stroke:none" d="M 0.71875 0 L 0.71875 -8.328125 L 1.578125 -8.328125 L 6.3125 -1.234375 L 6.328125 -1.234375 L 6.328125 -8.328125 L 7.140625 -8.328125 L 7.140625 0 L 6.265625 0 L 1.53125 -7.078125 L 1.515625 -7.078125 L 1.515625 0 Z M 0.71875 0 "/></g></g><g style="fill:#ffffff;fill-opacity:1;"><g transform="translate(278.209769, 96.44799)"><path style="stroke:none" d=""/></g></g><g style="fill:#ffffff;fill-opacity:1;"><g transform="translate(288.07749, 96.44799)"><path style="stroke:none" d="M 0.71875 0 L 0.71875 -8.328125 L 3.875 -8.328125 C 4.675781 -8.328125 5.332031 -8.144531 5.84375 -7.78125 C 6.363281 -7.414062 6.75 -6.914062 7 -6.28125 C 7.25 -5.65625 7.375 -4.941406 7.375 -4.140625 C 7.375 -3.328125 7.242188 -2.609375 6.984375 -1.984375 C 6.734375 -1.367188 6.347656 -0.882812 5.828125 -0.53125 C 5.304688 -0.175781 4.644531 0 3.84375 0 Z M 1.5 -0.671875 L 3.75 -0.671875 C 4.675781 -0.671875 5.378906 -0.976562 5.859375 -1.59375 C 6.335938 -2.21875 6.578125 -3.066406 6.578125 -4.140625 C 6.578125 -5.210938 6.347656 -6.066406 5.890625 -6.703125 C 5.429688 -7.335938 4.738281 -7.65625 3.8125 -7.65625 L 1.5 -7.65625 Z M 1.5 -0.671875 "/></g></g><g style="fill:#ffffff;fill-opacity:1;"><g transform="translate(303.204473, 96.44799)"><path style="stroke:none" d="M 3.734375 0.140625 C 2.640625 0.140625 1.84375 -0.125 1.34375 -0.65625 C 0.851562 -1.1875 0.609375 -1.941406 0.609375 -2.921875 L 0.609375 -8.328125 L 1.40625 -8.328125 L 1.40625 -2.921875 C 1.40625 -2.097656 1.597656 -1.492188 1.984375 -1.109375 C 2.367188 -0.722656 2.953125 -0.53125 3.734375 -0.53125 C 4.503906 -0.53125 5.078125 -0.722656 5.453125 -1.109375 C 5.835938 -1.492188 6.03125 -2.097656 6.03125 -2.921875 L 6.03125 -8.328125 L 6.84375 -8.328125 L 6.84375 -2.921875 C 6.84375 -1.941406 6.597656 -1.1875 6.109375 -0.65625 C 5.617188 -0.125 4.828125 0.140625 3.734375 0.140625 Z M 3.734375 0.140625 "/></g></g><g style="fill:#ffffff;fill-opacity:1;"><g transform="translate(318.02826, 96.44799)"><path style="stroke:none" d="M 0.71875 0 L 0.71875 -8.328125 L 4.140625 -8.328125 C 4.941406 -8.328125 5.578125 -8.132812 6.046875 -7.75 C 6.523438 -7.375 6.765625 -6.785156 6.765625 -5.984375 C 6.765625 -5.390625 6.601562 -4.910156 6.28125 -4.546875 C 5.957031 -4.191406 5.519531 -3.960938 4.96875 -3.859375 L 4.96875 -3.828125 C 5.3125 -3.785156 5.585938 -3.664062 5.796875 -3.46875 C 6.015625 -3.28125 6.179688 -3.046875 6.296875 -2.765625 C 6.410156 -2.492188 6.492188 -2.207031 6.546875 -1.90625 C 6.597656 -1.601562 6.632812 -1.316406 6.65625 -1.046875 C 6.675781 -0.785156 6.703125 -0.5625 6.734375 -0.375 C 6.773438 -0.195312 6.832031 -0.0976562 6.90625 -0.078125 L 6.90625 0 L 6.0625 0 C 5.988281 -0.0625 5.9375 -0.1875 5.90625 -0.375 C 5.882812 -0.570312 5.863281 -0.800781 5.84375 -1.0625 C 5.820312 -1.320312 5.785156 -1.59375 5.734375 -1.875 C 5.679688 -2.15625 5.59375 -2.414062 5.46875 -2.65625 C 5.351562 -2.90625 5.179688 -3.101562 4.953125 -3.25 C 4.722656 -3.40625 4.425781 -3.484375 4.0625 -3.484375 L 1.515625 -3.484375 L 1.515625 0 Z M 1.515625 -4.15625 L 3.875 -4.15625 C 4.488281 -4.15625 4.988281 -4.300781 5.375 -4.59375 C 5.769531 -4.882812 5.96875 -5.320312 5.96875 -5.90625 C 5.96875 -6.53125 5.785156 -6.976562 5.421875 -7.25 C 5.066406 -7.519531 4.550781 -7.65625 3.875 -7.65625 L 1.515625 -7.65625 Z M 1.515625 -4.15625 "/></g></g><g style="fill:#ffffff;fill-opacity:1;"><g transform="translate(332.642142, 96.44799)"><path style="stroke:none" d="M 3.359375 -9.25 L 4.09375 -10.75 L 4.984375 -10.75 L 3.96875 -9.25 Z M 0.0625 0 L 3.21875 -8.328125 L 4.078125 -8.328125 L 7.234375 0 L 6.4375 0 L 5.484375 -2.5625 L 1.828125 -2.5625 L 0.875 0 Z M 2.046875 -3.203125 L 5.265625 -3.203125 L 3.65625 -7.53125 L 3.640625 -7.53125 Z M 2.046875 -3.203125 "/></g></g><g style="fill:#ffffff;fill-opacity:1;"><g transform="translate(347.314331, 96.44799)"><path style="stroke:none" d="M 0.71875 0 L 0.71875 -8.328125 L 1.578125 -8.328125 L 6.3125 -1.234375 L 6.328125 -1.234375 L 6.328125 -8.328125 L 7.140625 -8.328125 L 7.140625 0 L 6.265625 0 L 1.53125 -7.078125 L 1.515625 -7.078125 L 1.515625 0 Z M 0.71875 0 "/></g></g></g></svg>