<?xml version="1.0" encoding="UTF-8"?>
<!DOCTYPE svg PUBLIC "-//W3C//DTD SVG 1.1//EN" "http://www.w3.org/Graphics/SVG/1.1/DTD/svg11.dtd">
<!-- Creator: CorelDRAW (Versión de evaluación) -->
<svg xmlns="http://www.w3.org/2000/svg" xml:space="preserve" width="6396px" height="458px" version="1.1" style="shape-rendering:geometricPrecision; text-rendering:geometricPrecision; image-rendering:optimizeQuality; fill-rule:evenodd; clip-rule:evenodd"
viewBox="0 0 2903.79 208.09"
 xmlns:xlink="http://www.w3.org/1999/xlink"
 xmlns:xodm="http://www.corel.com/coreldraw/odm/2003">
 <defs>
  <style type="text/css">
   <![CDATA[
    .fil1 {fill:none}
    .fil0 {fill:#3e328c}
   ]]>
  </style>
   <clipPath id="id0">
    <path d="M0 0l2903.79 0c-100.59,64.93 10.35,162.39 -155.32,208.09l-2594.63 0c-165.18,-38.3 -50.79,-140.21 -153.84,-208.09z"/>
   </clipPath>
 </defs>
 <g id="Capa_x0020_1">
  <metadata id="Layer"/>
  <path class="fil0" d="M0 0l2903.79 0c-100.59,64.93 10.35,162.39 -155.32,208.09l-2594.63 0c-165.18,-38.3 -50.79,-140.21 -153.84,-208.09z"/>
  <g style="clip-path:url(#id0)">
   <g id="_275555288">
    <image id="piedra" x="-446.97" y="-1284.66" width="3797.73" height="2777.4" xlink:href="/piedra.webp"/>
   </g>
  </g>
  <path class="fil1" d="M0 0l2903.79 0c-100.59,64.93 10.35,162.39 -155.32,208.09l-2594.63 0c-165.18,-38.3 -50.79,-140.21 -153.84,-208.09z"/>
 </g>
</svg>
